<svg xmlns="http://www.w3.org/2000/svg" width="512" height="512" viewBox="0 0 512 512"><circle fill="#00DA8D" cx="256" cy="256" r="231"/><circle fill="none" stroke="#00DA8D" stroke-width="8" stroke-miterlimit="10" cx="256" cy="256" r="231"/><path fill="#00DA8D" stroke="#FFF" stroke-width="8" stroke-miterlimit="10" d="M395.57 226.175c-4.83-7.676 5.188-5.188 5.188-5.188s9.906.092 5.188-7.779c-3.66-6.104-14.353 2.062-19.477 6.61 7.594 13.679 11.696 29.343 11.696 46.551 0 31.646-10.563 56.32-28.56 74.426l9.903 43.542c1.589 6.981-2.784 13.93-9.768 15.52l-35.401 8.051c-6.982 1.589-13.93-2.784-15.52-9.768l-5.938-26.115c-17.454 4.785-34.218 7.151-54.752 7.151-16.673 0-25.069-2.656-34.025-7.069l-5.921 26.033c-1.588 6.981-8.537 11.354-15.519 9.768l-35.401-8.051c-6.982-1.59-11.355-8.537-9.767-15.52l11.708-51.479c-11.566-6.457-26.243-12.988-45.924-19.16l-12.966-1.944c-8.113-1.226-11.47-5.669-12.966-12.967 0 0-1.992-8.597-2.593-12.966-1.22-8.854-2.594-15.561-2.594-15.561 0-7.162 5.805-12.968 12.966-12.968h4.303c22.302-1.36 21.523-23.053 40.462-44.545.852-.965 1.5-2.108 2.277-3.163 2.388-9.855-28.89-22.308-28.89-22.308s2.271-8.292 25.932-10.373c12.656-1.113 21.271 3.617 27.108 9.998 3.938 2.722 13.554 14.437 11.791 31.493 11.444-22.126-6.719-33.62-7.78-36.305 8.862-5.425 22.435-10.177 40.649-13.456 11.75 12.732 29.1 18.644 44.928 18.644 13.412 0 30.933-6.493 42.755-19.926 31.376 6.056 53.159 19.941 68.958 39.376 13.797-6.08 36.104-17.678 41.289 3.889 5.945 24.714-18.507 23.233-23.339 15.559zm-234.686 15.56a9.077 9.077 0 1 0 0 18.153 9.077 9.077 0 0 0 0-18.153z"/><g fill="#00DA8D"><path d="M264.61 86.14c22.199 0 40.199 18 40.199 40.19 0 22.2-18 40.2-40.199 40.2-22.19 0-40.19-18-40.19-40.2 0-22.19 17.99-40.19 40.19-40.19z"/><path d="M264.61 75.77c27.93 0 50.569 22.64 50.569 50.56 0 27.93-22.64 50.57-50.569 50.57-27.92 0-50.561-22.64-50.561-50.57.001-27.92 22.641-50.56 50.561-50.56zm40.2 50.56c0-22.19-18-40.19-40.199-40.19-22.2 0-40.19 18-40.19 40.19 0 22.2 18 40.2 40.19 40.2 22.199 0 40.199-18 40.199-40.2z"/></g><g fill="none" stroke="#FFF" stroke-width="5" stroke-miterlimit="10"><path d="M264.61 176.9c-27.92 0-50.561-22.64-50.561-50.57 0-27.92 22.64-50.56 50.561-50.56 27.93 0 50.569 22.64 50.569 50.56.001 27.93-22.639 50.57-50.569 50.57z"/><path d="M264.61 86.14c-22.2 0-40.19 18-40.19 40.19 0 22.2 18 40.2 40.19 40.2 22.199 0 40.199-18 40.199-40.2.001-22.19-17.999-40.19-40.199-40.19z"/></g><g><path fill="#00DA8D" d="M277.59 106.41l-1.76 4.65c-1.48-.85-4.37-2.47-8.88-2.47-5.431 0-7.47 3.24-7.47 6.13 0 3.6 2.609 5.43 8.739 8.04 7.261 2.96 10.92 6.55 10.92 12.82 0 5.64-3.87 10.86-11.13 11.98v7.33h-4.439v-7.04c-4.09-.07-8.25-1.34-10.71-3.1l1.69-4.73c2.47 1.62 6.13 3.03 10.07 3.03 5.01 0 8.39-2.89 8.39-6.9 0-3.88-2.75-6.27-7.96-8.39-7.189-2.82-11.63-6.13-11.63-12.26 0-5.85 4.16-10.29 10.57-11.35V97.1h4.439v6.84c4.161.14 7.051 1.27 9.161 2.47z"/><path fill="none" stroke="#FFF" stroke-width="3" stroke-miterlimit="10" d="M268.01 154.89h-4.439v-7.04c-4.09-.07-8.25-1.34-10.71-3.1l1.69-4.73c2.47 1.62 6.13 3.03 10.07 3.03 5.01 0 8.39-2.89 8.39-6.9 0-3.88-2.75-6.27-7.96-8.39-7.189-2.82-11.63-6.13-11.63-12.26 0-5.85 4.16-10.29 10.57-11.35V97.1h4.439v6.84c4.16.14 7.051 1.27 9.16 2.47l-1.76 4.65c-1.48-.85-4.37-2.47-8.88-2.47-5.431 0-7.47 3.24-7.47 6.13 0 3.6 2.609 5.43 8.739 8.04 7.261 2.96 10.92 6.55 10.92 12.82 0 5.64-3.87 10.86-11.13 11.98v7.33z"/></g></svg>