<svg height="512" viewBox="0 0 512 512" width="512" xmlns="http://www.w3.org/2000/svg"><path d="M494.294 311.054c-6.485-10.028-12.733-15.279-38.661-21.697-25.928-6.418-38.207-11.612-37.438-25.602 1.452-1.409 3.995-4.03 6.835-7.423 23.617-3.265 33.956-9.975 33.956-9.975s-8.58-13.61-8.877-21.598c-.114-3.082.254-8.811.328-15.665.002-.077.002-.149.002-.224.09-9.246-.373-20.499-3.286-30.098-1.584-11.303-7.252-24.229-23.739-30.15-22.773-8.177-40.504.336-47.792 5.264-5.176.004-20.433 5.424-24.351 24.602-2.955 10.632-4.718 26.931-4.718 43.016 0 18.64-5.918 22.487-5.918 22.487s8.019 7.786 29.765 11.781c2.188 3.016 4.505 5.737 6.824 7.856.921 6.998-2.125 14.158-14.437 19.826 22.474 8.1 37.416 19.939 45.377 35.859 5.392 10.783 6.02 25.755 5.913 33.721-.057 4.276-.323 8.179-.783 11.73 52.538-2.419 81.637-17.503 83.761-20.571 2.31-3.338 1.94-25.868-2.761-33.139zM99.915 351.953c.046-15.41 2.355-26.759 6.864-33.73 4.34-6.71 10.779-15.385 22.15-22.973 9.467-6.316 21.26-11.307 36.771-15.545-20.647-5.131-23.178-10.109-22.042-18.737 8.899-8.136 11.951-25.172 13.221-33.817 6.865-3.56 8.391-9.662 9.662-17.036s-.254-7.374-1.271-7.374l-1.83.081c.812-2.166 1.114-5.938.674-10.533 3.119-31.846-18.406-40.013-24.729-40.018-7.218-4.88-24.781-13.313-47.337-5.213-32.195 11.56-22.746 50.095-22.745 50.098.011 2.936.312 5.066.768 6.006 0 0-.84-.204-1.929-.167-2.806.098-3.306 1.78-2.542 7.374.763 5.594 4.831 13.985 10.679 17.289 2.542 14.239 10.17 29.24 14.493 33.436.763 13.858-7.628 15.129-33.308 21.486-25.68 6.357-34.004 14.478-40.428 24.41-4.657 7.202-3.56 31.021-1.271 34.325 2.077 3 33.48 21.916 84.889 25.386-.508-4.245-.756-9.165-.739-14.748z" fill="#2F90B2"/><path d="M394.748 326.02c-6.299-12.596-20.645-26.592-59.483-34.641-38.84-8.049-43.388-15.045-41.639-28.342 12.246-11.197 16.446-34.641 18.195-46.538 9.447-4.899 11.547-13.297 13.297-23.444 1.75-10.147-.35-10.147-1.75-10.147l-2.518.112c1.118-2.98 1.532-8.172.927-14.495 4.292-43.826-25.329-55.065-34.031-55.072-9.933-6.716-34.103-18.32-65.143-7.174-44.305 15.908-31.302 68.938-31.301 68.943.015 4.04.429 6.972 1.056 8.265 0 0-1.156-.281-2.655-.229-3.862.135-4.549 2.449-3.498 10.147 1.049 7.698 6.648 19.245 14.696 23.793 3.498 19.595 13.996 40.239 19.944 46.013 1.049 19.07-10.498 20.82-45.837 29.568-35.34 8.748-46.795 19.923-55.635 33.591-6.409 9.911-4.899 42.689-1.75 47.237 3.149 4.549 55.286 35.69 139.262 35.69S389.5 380.604 394.75 374.655c5.247-5.947 6.297-36.039-.002-48.635z" fill="#333"/></svg>