<svg height="64" viewBox="0 0 64 64" width="64" xmlns="http://www.w3.org/2000/svg"><path d="M51 41c6.627 0 12-5.373 12-12 0-5.948-4-11-10-11 0-5-3-9-9-9h-1c-2.728-4.924-7.972-8-14-8-8.836 0-16 7.164-16 16-6.627 0-12 5.373-12 12s5.373 12 12 12h38z" fill="#fff"/><path d="M40 41h11c6.627 0 12-5.373 12-12 0-5.948-4-11-10-11 0-5-3-9-9-9h-1c-2.728-4.924-7.972-8-14-8-8.836 0-16 7.164-16 16-6.627 0-12 5.373-12 12s5.373 12 12 12h11M35 36v10M35 32v2M35 28v2M35 24v2M29 24v10M29 40v2M29 36v2M29 44v2" fill="none" stroke="#4d5152" stroke-width="2" stroke-miterlimit="10"/><circle cx="32" cy="56" r="8" fill="#f28c13"/><circle cx="32" cy="56" r="6" fill="#ffb957"/><path fill="#f28c13" d="M31 53h2v6h-2z"/><path d="M19 18c0-6.075 5-11 10-11" fill="none" stroke="#4d5152" stroke-width="2" stroke-miterlimit="10"/></svg>