<svg height="512" viewBox="0 0 512 512" width="512" xmlns="http://www.w3.org/2000/svg"><path d="M314 205v-21h-47v-22h-21v22h-47v83h47v42h-47v20h47v22h21v-22h47v-83h-47v-41h47zm-68 41h-27v-41h27v41zm48 21v42h-27v-42h27z" fill="#FFCA71"/><path d="M386.163 126.994c-71.49-71.49-187.825-71.49-259.315.009-71.49 71.482-71.481 187.808.009 259.297 71.501 71.499 187.816 71.499 259.307.019 71.489-71.501 71.497-187.825-.001-259.325zM152.369 360.797c-52.962-52.963-56.961-136.49-12.24-194.218l25.115 25.125 26.305-26.306-25.115-25.115c57.727-44.736 141.264-40.748 194.227 12.215 52.961 52.97 56.959 136.508 12.223 194.234l-25.107-25.106-26.305 26.295 25.116 25.116c-57.728 44.729-141.257 40.721-194.219-12.24z" fill="#D0583B"/></svg>