<svg xmlns="http://www.w3.org/2000/svg" width="512" height="512" viewBox="0 0 512 512"><circle fill="#7068FF" cx="258" cy="256.5" r="231"/><circle fill="none" stroke="#7068FF" stroke-width="7" stroke-miterlimit="10" cx="258" cy="256.5" r="231"/><path fill="#7068FF" stroke="#FFF" stroke-width="7" stroke-miterlimit="10" d="M107 364.976s17.812-2.64 47.823 2.77c33.812 6.093 86.609 21.11 99.171 23.749 12.562 2.639 22.479-5.277 31.734-8.576s27.768-4.618 42.975-12.535c13.85-7.209 27.045-15.859 40.307-24.074 11.178-6.922 25.332-13.351 34.934-22.239-3.965-6.237-15.172-11.2-22.517-11.208-8.761 0-13.831 4.618-23.747 9.235-9.918 4.618-26.992 10.44-26.992 13.983 0 11.215-9.918 9.895-24.463 11.875-14.545 1.979-32.396-1.32-50.908-2.64s-36.363 5.276-36.363 5.276 12.562-11.874 31.074-10.555c18.512 1.318 36.363 4.617 50.908 2.638 14.545-1.979 24.463-.659 24.463-11.874s-13.224-15.832-28.43-15.832c-15.205 0-42.312 0-50.247-2.639s-28.854-19.833-46.047-19.262c-36.449 1.213-57.938 19.649-62.669 21.771-10.89 4.877-31.006-.659-31.006-.659v50.796zM343.798 285.753c0-5.028-4.077-9.106-9.108-9.106H231.471c-5.03 0-9.108 4.078-9.108 9.106a9.108 9.108 0 0 0 9.108 9.108h103.218a9.108 9.108 0 0 0 9.109-9.108zM343.798 255.395a9.107 9.107 0 0 0-9.108-9.107H231.471a9.107 9.107 0 0 0 0 18.214h103.218a9.107 9.107 0 0 0 9.109-9.107zM280.045 94.509c-38.564 0-69.825 31.262-69.825 69.825s31.261 69.824 69.825 69.824c38.562 0 69.824-31.261 69.824-69.824s-31.262-69.825-69.824-69.825z"/><path fill="#7068FF" stroke="#FFF" stroke-width="5" stroke-miterlimit="10" d="M283.59 202.811V216h-7.938v-12.683c-7.307-.126-14.742-2.409-19.151-5.581l3.024-8.497c4.409 2.917 10.96 5.456 18.017 5.456 8.946 0 14.995-5.201 14.995-12.43 0-6.977-4.915-11.29-14.236-15.093-12.854-5.074-20.792-11.034-20.792-22.069 0-10.528 7.436-18.518 18.899-20.419V112h7.941v12.303c7.432.253 12.597 2.282 16.378 4.438l-3.15 8.372c-2.645-1.522-7.812-4.439-15.876-4.439-9.699 0-13.354 5.834-13.354 11.034 0 6.469 4.66 9.767 15.623 14.458 12.978 5.326 19.53 11.796 19.53 23.084-.003 10.145-6.932 19.531-19.91 21.561z"/></svg>