<svg viewBox="0 0 128 128" xmlns="http://www.w3.org/2000/svg"><circle cx="84.2" cy="29.8" fill="#42ACB7" r="7.5"/><circle cx="40.4" cy="71.9" fill="#42ACB7" r="7.5"/><circle cx="90.9" cy="103.3" fill="#42ACB7" r="7.5"/><circle cx="83.3" cy="81.8" fill="#42ACB7" r="6"/><circle cx="15.4" cy="46.4" fill="#F0EF98" r="6"/><circle cx="109.2" cy="53.6" fill="#F0EF98" r="5"/><circle cx="83.3" cy="7.6" fill="#F0EF98" r="5"/><circle cx="121.5" cy="23" fill="#F0EF98" r="4"/><circle cx="52.8" cy="13.7" fill="#F0EF98" r="4"/><circle cx="6.5" cy="83.9" fill="#F0EF98" r="4"/><circle cx="39.6" cy="97.7" fill="#F0EF98" r="4"/><circle cx="75.7" cy="121.5" fill="#F0EF98" r="4"/><circle cx="117.5" cy="121.5" fill="#F0EF98" r="4"/><path d="M121.5 17.5c-2.9 0-5.2 2.2-5.5 5l-23.4 4.3c-1.1-3.1-3.9-5.4-7.3-5.9l-.3-7.1c2.7-.8 4.7-3.3 4.7-6.2 0-3.6-2.9-6.5-6.5-6.5S76.8 4 76.8 7.6c0 3.2 2.3 5.8 5.3 6.4l.3 7c-2.2.5-4.1 1.7-5.4 3.4l-18.8-9.7c.1-.4.1-.7.1-1.1 0-3-2.5-5.5-5.5-5.5s-5.5 2.5-5.5 5.5 2.5 5.5 5.5 5.5c1.6 0 3-.7 4-1.8L75.6 27c-.3.9-.4 1.8-.4 2.7 0 1.9.6 3.6 1.6 5.1l-31 29.8c-1.5-1.1-3.3-1.8-5.3-1.8-1.9 0-3.7.6-5.1 1.6L21.6 50.6c.8-1.2 1.3-2.6 1.3-4.2 0-4.1-3.4-7.5-7.5-7.5s-7.5 3.4-7.5 7.5 3.4 7.5 7.5 7.5c1.5 0 2.9-.4 4.1-1.2l13.7 13.9c-1.1 1.5-1.7 3.3-1.7 5.3 0 .6.1 1.1.2 1.6l-20.5 7.4c-1-1.5-2.7-2.5-4.6-2.5-3 0-5.5 2.5-5.5 5.5s2.5 5.5 5.5 5.5S12 87 12 83.9v-.2l20.6-7.5c1.2 2.2 3.4 3.8 5.9 4.3l-.3 11.8c-2.3.6-4 2.8-4 5.3 0 3 2.5 5.5 5.5 5.5s5.5-2.5 5.5-5.5c0-2.5-1.7-4.6-4-5.3l.3-11.7c3.3-.4 6.1-2.5 7.3-5.5l27.1 6.2v.3c0 4.1 3.4 7.5 7.5 7.5.4 0 .7 0 1.1-.1l2.2 6.2c-2.8 1.5-4.6 4.5-4.6 7.9 0 2.2.8 4.3 2.2 5.8l-6.2 7.4c-.7-.3-1.4-.5-2.2-.5-3 0-5.5 2.5-5.5 5.5s2.5 5.5 5.5 5.5 5.5-2.5 5.5-5.5c0-1.1-.4-2.2-1-3.1l6.2-7.4c1.3.8 2.9 1.2 4.5 1.2 2.5 0 4.8-1 6.4-2.7l14.9 10.3c-.2.5-.3 1.1-.3 1.6 0 3 2.5 5.5 5.5 5.5s5.5-2.5 5.5-5.5-2.5-5.5-5.5-5.5c-1.4 0-2.6.5-3.6 1.3l-14.8-10.3c.5-1.2.9-2.5.9-3.8 0-5-4-9-9-9-.5 0-1 .1-1.5.1l-2.2-6.2c2.2-1.3 3.6-3.7 3.6-6.4 0-4.1-3.4-7.5-7.5-7.5-3 0-5.6 1.8-6.8 4.3L49.6 72v-.5c0-1.9-.6-3.6-1.6-5.1l30.9-29.7c1.5 1.1 3.3 1.8 5.3 1.8s3.9-.7 5.4-1.8l14 13.3c-.6 1-.9 2.1-.9 3.3 0 3.6 2.9 6.5 6.5 6.5s6.5-2.9 6.5-6.5-2.9-6.5-6.5-6.5c-1.3 0-2.5.4-3.6 1.1l-14-13.3c1-1.4 1.5-3.2 1.5-5v-.1l23.4-4.3c.9 1.8 2.8 3.1 4.9 3.1 3 0 5.5-2.5 5.5-5.5s-2.4-5.3-5.4-5.3zm-68.7-1.3c-1.4 0-2.5-1.1-2.5-2.5s1.1-2.5 2.5-2.5 2.5 1.1 2.5 2.5-1.2 2.5-2.5 2.5zM6.5 86.4c-1.4 0-2.5-1.1-2.5-2.5s1.1-2.5 2.5-2.5S9 82.6 9 83.9s-1.1 2.5-2.5 2.5zm111 32.6c1.4 0 2.5 1.1 2.5 2.5s-1.1 2.5-2.5 2.5-2.5-1.1-2.5-2.5 1.1-2.5 2.5-2.5zm-41.8 5c-1.4 0-2.5-1.1-2.5-2.5s1.1-2.5 2.5-2.5 2.5 1.1 2.5 2.5-1.2 2.5-2.5 2.5zm21.2-20.7c0 3.3-2.7 6-6 6s-6-2.7-6-6 2.7-6 6-6 6 2.6 6 6zm-13.6-26c2.5 0 4.5 2 4.5 4.5s-2 4.5-4.5 4.5-4.5-2-4.5-4.5 2-4.5 4.5-4.5zM79.8 7.6c0-2.2 2-3.9 4.3-3.4 1.3.3 2.3 1.3 2.6 2.6.4 1.7-.4 3.2-1.7 3.9-.9.5-1.9.5-2.9.2H82c-1.3-.6-2.2-1.8-2.2-3.3zM10.9 46.4c0-2.5 2-4.5 4.5-4.5s4.5 2 4.5 4.5-2 4.5-4.5 4.5-4.5-2-4.5-4.5zm31.2 51.3c0 1.4-1.1 2.5-2.5 2.5s-2.5-1.1-2.5-2.5 1.1-2.5 2.5-2.5 2.5 1.2 2.5 2.5zm-1.7-19.8c-3.3 0-6-2.7-6-6s2.7-6 6-6 6 2.7 6 6-2.6 6-6 6zm37.8-48.1c0-3.3 2.7-6 6-6s6 2.7 6 6-2.7 6-6 6-6-2.6-6-6zm34.5 23.8c0 1.9-1.6 3.5-3.5 3.5s-3.5-1.6-3.5-3.5 1.6-3.5 3.5-3.5 3.5 1.6 3.5 3.5zm8.8-28.1c-1.4 0-2.5-1.1-2.5-2.5s1.1-2.5 2.5-2.5 2.5 1.1 2.5 2.5-1.1 2.5-2.5 2.5z" fill="#62355C"/></svg>