<svg xmlns="http://www.w3.org/2000/svg" width="512" height="512" viewBox="0 0 512 512"><circle fill="#FFC300" cx="256" cy="256" r="231"/><circle fill="none" stroke="#FFC300" stroke-width="8" stroke-miterlimit="10" cx="256" cy="256" r="231"/><path fill="#FFC300" stroke="#FFF" stroke-width="8" stroke-miterlimit="10" d="M349.475 215.636c0 37.604-29.812 69.099-70.105 78.073v69.928h46.736c4.307 0 7.789 3.016 7.789 6.728 0 3.719-3.482 6.728-7.789 6.728h-140.21c-4.309 0-7.789-3.009-7.789-6.728 0-3.712 3.48-6.728 7.789-6.728h46.737v-69.928c-40.294-8.975-70.105-40.468-70.105-78.073-30.116 0-54.527-21.081-54.527-47.091V155.09c0-3.712 3.48-6.727 7.79-6.727h46.737v-6.728c0-11.148-10.459-20.182-23.369-20.182-4.309 0-7.79-3.016-7.79-6.727 0-3.712 3.48-6.728 7.79-6.728h233.684c4.307 0 7.79 3.016 7.79 6.728 0 3.711-3.483 6.727-7.79 6.727-12.908 0-23.367 9.033-23.367 20.182v6.728h46.736c4.305 0 7.789 3.015 7.789 6.727v13.455c-.001 26.01-24.411 47.091-54.526 47.091zM248.21 363.637h15.579v-67.615c-2.57.185-5.157.342-7.789.342s-5.218-.157-7.79-.342v67.615zM123.579 161.818v6.727c0 18.582 17.431 33.636 38.947 33.636v-40.363h-38.947zm46.566-40.363c4.922 5.637 7.961 12.574 7.961 20.182v74c0 37.155 34.874 67.273 77.895 67.273 43.011 0 77.896-30.118 77.896-67.273v-74c0-7.607 3.043-14.545 7.957-20.182H170.145zm218.276 40.363h-38.946v40.363c21.512 0 38.946-15.054 38.946-33.636v-6.727zM162.526 390.545h186.947c4.307 0 7.791 3.016 7.791 6.729 0 3.719-3.484 6.728-7.791 6.728H162.526c-4.31 0-7.79-3.009-7.79-6.728.001-3.713 3.481-6.729 7.79-6.729z"/></svg>