<svg height="58" viewBox="0 0 58 58" width="58" xmlns="http://www.w3.org/2000/svg"><title/><g fill="none" fill-rule="evenodd"><path d="M7.221 5A2.978 2.978 0 0 0 8 3a3 3 0 1 0-6 0c0 .772.3 1.468.779 2h4.442" fill="#E57E25"/><path d="M2 9h6v40H2V9z" fill="#F0C419"/><path d="M0 5h10v4H0V5zM0 49h10v4H0v-4z" fill="#F29C1F"/><path d="M47 9h9v40h-9V9z" fill="#F0C419"/><path d="M45 5h13v4H45V5zM45 49h13v4H45v-4z" fill="#F29C1F"/><path d="M2.779 53A2.978 2.978 0 0 0 2 55a3 3 0 1 0 6 0c0-.772-.3-1.468-.779-2H2.779M54.221 5A2.978 2.978 0 0 0 55 3a3 3 0 1 0-6 0c0 .772.3 1.468.779 2h4.442M49.779 53A2.978 2.978 0 0 0 49 55a3 3 0 1 0 6 0c0-.772-.3-1.468-.779-2h-4.442" fill="#E57E25"/><path d="M8 12h39v34H8V12z" fill="#F0EDE0"/><path d="M12 20h3a1 1 0 0 0 0-2h-3a1 1 0 0 0 0 2M24 18h-3a1 1 0 0 0 0 2h3a1 1 0 0 0 0-2M18 20c.26 0 .52-.11.71-.29.18-.19.29-.44.29-.71 0-.27-.11-.52-.29-.71-.38-.37-1.05-.37-1.42 0-.18.19-.29.45-.29.71 0 .26.11.52.29.71.19.18.45.29.71.29M12 30c.26 0 .52-.11.71-.29.18-.19.29-.44.29-.71 0-.26-.11-.52-.29-.71-.38-.37-1.05-.37-1.42 0-.18.19-.29.44-.29.71 0 .27.11.52.29.71.19.18.45.29.71.29M24 23h-9a1 1 0 0 0 0 2h9a1 1 0 0 0 0-2M21 30a1 1 0 0 0 0-2h-6a1 1 0 0 0 0 2h6M12 25c.26 0 .52-.11.71-.29.18-.19.29-.45.29-.71 0-.26-.11-.52-.29-.71-.38-.37-1.05-.36-1.42 0-.18.19-.29.44-.29.71 0 .26.11.52.29.71.19.18.45.29.71.29M23.29 28.29c-.18.19-.29.45-.29.71 0 .26.11.52.29.71.19.18.45.29.71.29.26 0 .52-.11.71-.29.18-.19.29-.45.29-.71 0-.26-.11-.52-.29-.71-.37-.37-1.04-.37-1.42 0M24 33H12a1 1 0 0 0 0 2h12a1 1 0 0 0 0-2M15 38h-3a1 1 0 0 0 0 2h3a1 1 0 0 0 0-2M24 38h-6a1 1 0 0 0 0 2h6a1 1 0 0 0 0-2M31 20h3a1 1 0 0 0 0-2h-3a1 1 0 0 0 0 2M40 20h3a1 1 0 0 0 0-2h-3a1 1 0 0 0 0 2M37 20c.26 0 .52-.11.71-.29.18-.19.29-.45.29-.71 0-.26-.11-.52-.29-.71-.37-.37-1.05-.37-1.42 0-.18.19-.29.45-.29.71 0 .26.11.52.29.71.19.18.45.29.71.29M31 30c.26 0 .52-.11.71-.29.18-.19.29-.45.29-.71 0-.26-.11-.52-.29-.71-.38-.37-1.05-.37-1.42 0-.18.19-.29.45-.29.71 0 .26.11.52.29.71.19.18.45.29.71.29M43 23h-9a1 1 0 0 0 0 2h9a1 1 0 0 0 0-2M40 30a1 1 0 0 0 0-2h-6a1 1 0 0 0 0 2h6M31 25c.26 0 .52-.11.71-.29.18-.19.29-.45.29-.71 0-.26-.11-.52-.29-.71-.37-.37-1.05-.37-1.42 0-.18.19-.29.45-.29.71 0 .26.11.52.29.71.19.18.45.29.71.29M42.29 28.29c-.18.19-.29.45-.29.71 0 .26.11.52.29.71.19.18.45.29.71.29.26 0 .52-.11.71-.29.18-.19.29-.45.29-.71 0-.26-.11-.52-.29-.71-.37-.37-1.05-.37-1.42 0M43 33H31a1 1 0 0 0 0 2h12a1 1 0 0 0 0-2M34 38h-3a1 1 0 0 0 0 2h3a1 1 0 0 0 0-2M43 38h-6a1 1 0 0 0 0 2h6a1 1 0 0 0 0-2" fill="#D6D1BB"/></g></svg>