<svg xmlns="http://www.w3.org/2000/svg" width="512" height="512" viewBox="0 0 512 512"><circle fill="#39F" cx="256" cy="256" r="231"/><circle fill="none" stroke="#39F" stroke-width="8" stroke-miterlimit="10" cx="256" cy="256" r="231"/><path fill="#FFF" d="M316.341 199.466V143.21l18.66-7.477v26.85h-2.981l-10.068 27.788 17.916 18.699 17.897-18.69-10.047-27.787h-2.982v-30.745l21.938-8.781-110.666-41.829-110.682 41.838 50.329 20.124v56.258c-31.11 20.344-50.37 55.273-50.37 92.598 0 61.029 49.654 110.706 110.711 110.706 61.04 0 110.719-49.658 110.719-110.706 0-37.325-19.272-72.245-50.374-92.59zm23.527-4.459l-6.69-6.996 5.673-15.694h2.05l5.662 15.686-6.695 7.004z"/><path fill="#39F" d="M339.85 123.33l-83.84 33.53-83.84-33.53 83.84-31.68z"/><path fill="#39F" d="M306.62 147.1v50.32c-4.13 3.42-9.521 6.29-16.07 8.54-16.439 5.64-34.04 5.13-34.76 5.14-.15.01-17.81.49-34.29-5.15-6.54-2.26-11.95-5.16-16.11-8.64V147.1l50.62 20.24 50.61-20.24z"/><g><path fill="#39F" d="M356.96 292.04c.01 55.69-45.28 100.98-100.96 100.98-55.68 0-100.98-45.289-100.98-100.979 0-34.521 18.04-66.83 47.13-85.27 4.6 3.28 9.85 6.19 16.19 8.38 18.22 6.25 37.46 5.67 37.35 5.66.12 0 .82.02 2.03.02 5.46 0 20.94-.51 35.971-5.66 6.359-2.18 11.859-4.95 16.409-8.2 28.93 18.449 46.86 50.669 46.86 85.069z"/></g><path fill="#39F" stroke="#FFF" stroke-width="5" stroke-miterlimit="10" d="M260.566 350.048v16.668h-10.098v-16.028c-9.294-.16-18.753-3.045-24.362-7.053l3.847-10.738c5.609 3.687 13.942 6.894 22.919 6.894 11.381 0 19.075-6.572 19.075-15.708 0-8.816-6.252-14.268-18.11-19.074-16.35-6.412-26.449-13.945-26.449-27.89 0-13.304 9.458-23.401 24.042-25.805v-16.029h10.102v15.548c9.455.32 16.025 2.884 20.834 5.609l-4.006 10.579c-3.365-1.924-9.938-5.609-20.197-5.609-12.339 0-16.987 7.373-16.987 13.943 0 8.176 5.929 12.344 19.874 18.272 16.509 6.731 24.845 14.907 24.845 29.173-.004 12.821-8.819 24.682-25.329 27.248z"/></svg>