<svg xmlns="http://www.w3.org/2000/svg" width="960" height="560" viewBox="0 0 960 560"><g opacity=".2"><path fill="#FFF" d="M568.387 213.533l.882 92.954c.026 2.75-1.523 6.61-3.443 8.579l-68.611 70.342c-1.92 1.969-5.741 3.579-8.491 3.579H472.37c-2.75 0-6.623-1.559-8.605-3.464l-67.069-64.438c-1.983-1.905-3.614-5.714-3.624-8.464l-.347-94.088c-.01-2.75 1.913-6.153 4.274-7.563l60.329-36.018c2.361-1.41 6.543-2.563 9.293-2.563h11.629"/><path fill="none" stroke="#B3B3B3" stroke-miterlimit="10" d="M568.387 213.533l.882 92.954c.026 2.75-1.523 6.61-3.443 8.579l-68.611 70.342c-1.92 1.969-5.741 3.579-8.491 3.579H472.37c-2.75 0-6.623-1.559-8.605-3.464l-67.069-64.438c-1.983-1.905-3.614-5.714-3.624-8.464l-.347-94.088c-.01-2.75 1.913-6.153 4.274-7.563l60.329-36.018c2.361-1.41 6.543-2.563 9.293-2.563h11.629"/></g><g opacity=".2"><path fill="#FFF" d="M499.473 172.389l68.914 41.144"/><path fill="none" stroke="#B3B3B3" stroke-miterlimit="10" d="M499.473 172.389l68.914 41.144"/></g><path opacity=".2" fill="#F5F5F5" stroke="#B3B3B3" stroke-miterlimit="10" d="M474.889 172.431l-28.668 34.778s-4.816 5.068-4.996 14.181c-.18 9.121 0 14.589 0 14.589v8.099l-18.728.041s-5.95.477-5.95 6.522l-.003 43.541s.582 6.896 4.562 10.771c2.445 2.381 29.012 28.521 29.012 28.521l24.926 55.516h-2.49s-2.008.084-6.037-1.984c-1.052-.539-5.625-3.5-7.641-5.252-.916-.795-56.388-54.16-56.388-54.16s-10.517-9.23-10.517-23.141c0-9.014-.281-78.039-.281-78.039s.504-13.093 10.902-19.458c6.441-3.943 52.197-31.14 52.197-31.14s6.535-3.469 13.295-3.469"/><g opacity=".45"><path fill="#FFF" d="M472.453 352.984c-1.375 0-3.301-.79-4.28-1.755l-49.842-49.125c-.979-.965-1.78-2.88-1.78-4.255v-51.208c0-1.375 1.125-2.5 2.5-2.5h120.202c1.375 0 2.5 1.125 2.5 2.5v50.198c0 1.375-.794 3.297-1.764 4.271l-49.877 50.102c-.97.975-2.889 1.771-4.264 1.771h-13.395z"/><path fill="none" stroke="#B3B3B3" stroke-miterlimit="10" d="M472.453 352.984c-1.375 0-3.301-.79-4.28-1.755l-49.842-49.125c-.979-.965-1.78-2.88-1.78-4.255v-51.208c0-1.375 1.125-2.5 2.5-2.5h120.202c1.375 0 2.5 1.125 2.5 2.5v50.198c0 1.375-.794 3.297-1.764 4.271l-49.877 50.102c-.97.975-2.889 1.771-4.264 1.771h-13.395z"/></g><path fill="#B3B3B3" d="M108 79.5c1.935 0 1.935-3 0-3s-1.935 3 0 3zM129 82.5c1.935 0 1.935-3 0-3s-1.935 3 0 3zM41 235.5c1.935 0 1.935-3 0-3s-1.935 3 0 3z"/></svg>