<?xml version="1.0" ?><!DOCTYPE svg  PUBLIC '-//W3C//DTD SVG 1.1//EN'  'http://www.w3.org/Graphics/SVG/1.1/DTD/svg11.dtd'><svg enable-background="new 0 0 512 512" height="512px" id="Layer_1" version="1.1" viewBox="0 0 512 512" width="512px" xml:space="preserve" xmlns="http://www.w3.org/2000/svg" xmlns:xlink="http://www.w3.org/1999/xlink"><g id="trio_x5F_men_x5F_woman"><path d="M494.294,311.054c-6.485-10.028-12.733-15.279-38.661-21.697c-25.928-6.418-38.207-11.612-37.438-25.602   c1.452-1.409,3.995-4.03,6.835-7.423c23.617-3.265,33.956-9.975,33.956-9.975s-8.58-13.61-8.877-21.598   c-0.114-3.082,0.254-8.811,0.328-15.665c0.002-0.077,0.002-0.149,0.002-0.224c0.09-9.246-0.373-20.499-3.286-30.098   c-1.584-11.303-7.252-24.229-23.739-30.15c-22.773-8.177-40.504,0.336-47.792,5.264c-5.176,0.004-20.433,5.424-24.351,24.602   c-2.955,10.632-4.718,26.931-4.718,43.016c0,18.64-5.918,22.487-5.918,22.487s8.019,7.786,29.765,11.781   c2.188,3.016,4.505,5.737,6.824,7.856c0.921,6.998-2.125,14.158-14.437,19.826c22.474,8.1,37.416,19.939,45.377,35.859   c5.392,10.783,6.02,25.755,5.913,33.721c-0.057,4.276-0.323,8.179-0.783,11.73c52.538-2.419,81.637-17.503,83.761-20.571   C499.365,340.855,498.995,318.325,494.294,311.054z" fill="#2F90B2"/><path d="M99.915,351.953c0.046-15.41,2.355-26.759,6.864-33.73c4.34-6.71,10.779-15.385,22.15-22.973   c9.467-6.316,21.26-11.307,36.771-15.545c-20.647-5.131-23.178-10.109-22.042-18.737c8.899-8.136,11.951-25.172,13.221-33.817   c6.865-3.56,8.391-9.662,9.662-17.036s-0.254-7.374-1.271-7.374l-1.83,0.081c0.812-2.166,1.114-5.938,0.674-10.533   c3.119-31.846-18.406-40.013-24.729-40.018c-7.218-4.88-24.781-13.313-47.337-5.213c-32.195,11.56-22.746,50.095-22.745,50.098   c0.011,2.936,0.312,5.066,0.768,6.006c0,0-0.84-0.204-1.929-0.167c-2.806,0.098-3.306,1.78-2.542,7.374   c0.763,5.594,4.831,13.985,10.679,17.289c2.542,14.239,10.17,29.24,14.493,33.436c0.763,13.858-7.628,15.129-33.308,21.486   c-25.68,6.357-34.004,14.478-40.428,24.41c-4.657,7.202-3.56,31.021-1.271,34.325c2.077,3,33.48,21.916,84.889,25.386   C100.146,362.456,99.898,357.536,99.915,351.953z" fill="#2F90B2"/><path d="M394.748,326.02c-6.299-12.596-20.645-26.592-59.483-34.641c-38.84-8.049-43.388-15.045-41.639-28.342   c12.246-11.197,16.446-34.641,18.195-46.538c9.447-4.899,11.547-13.297,13.297-23.444c1.75-10.147-0.35-10.147-1.75-10.147   l-2.518,0.112c1.118-2.98,1.532-8.172,0.927-14.495c4.292-43.826-25.329-55.065-34.031-55.072   c-9.933-6.716-34.103-18.32-65.143-7.174c-44.305,15.908-31.302,68.938-31.301,68.943c0.015,4.04,0.429,6.972,1.056,8.265   c0,0-1.156-0.281-2.655-0.229c-3.862,0.135-4.549,2.449-3.498,10.147c1.049,7.698,6.648,19.245,14.696,23.793   c3.498,19.595,13.996,40.239,19.944,46.013c1.049,19.07-10.498,20.82-45.837,29.568c-35.34,8.748-46.795,19.923-55.635,33.591   c-6.409,9.911-4.899,42.689-1.75,47.237c3.149,4.549,55.286,35.69,139.262,35.69S389.5,380.604,394.75,374.655   C399.997,368.708,401.047,338.616,394.748,326.02z" fill="#333333"/></g></svg>