<?xml version="1.0" ?><!DOCTYPE svg  PUBLIC '-//W3C//DTD SVG 1.1//EN'  'http://www.w3.org/Graphics/SVG/1.1/DTD/svg11.dtd'><svg height="64px" style="enable-background:new 0 0 64 64;" version="1.1" viewBox="0 0 64 64" width="64px" xml:space="preserve" xmlns="http://www.w3.org/2000/svg" xmlns:xlink="http://www.w3.org/1999/xlink"><g id="Layer_14"><g><g><g><path d="M51,41c6.627,0,12-5.373,12-12c0-5.948-4-11-10-11c0-5-3-9-9-9h-1c-2.728-4.924-7.972-8-14-8      c-8.836,0-16,7.164-16,16C6.373,17,1,22.373,1,29c0,6.627,5.373,12,12,12H51z" style="fill:#FFFFFF;"/></g><g><path d="M40,41h11c6.627,0,12-5.373,12-12      c0-5.948-4-11-10-11c0-5-3-9-9-9h-1c-2.728-4.924-7.972-8-14-8c-8.836,0-16,7.164-16,16C6.373,17,1,22.373,1,29      c0,6.627,5.373,12,12,12h11" style="fill:none;stroke:#4D5152;stroke-width:2;stroke-miterlimit:10;"/></g></g><line style="fill:none;stroke:#4D5152;stroke-width:2;stroke-miterlimit:10;" x1="35" x2="35" y1="36" y2="46"/><line style="fill:none;stroke:#4D5152;stroke-width:2;stroke-miterlimit:10;" x1="35" x2="35" y1="32" y2="34"/><line style="fill:none;stroke:#4D5152;stroke-width:2;stroke-miterlimit:10;" x1="35" x2="35" y1="28" y2="30"/><line style="fill:none;stroke:#4D5152;stroke-width:2;stroke-miterlimit:10;" x1="35" x2="35" y1="24" y2="26"/><line style="fill:none;stroke:#4D5152;stroke-width:2;stroke-miterlimit:10;" x1="29" x2="29" y1="24" y2="34"/><line style="fill:none;stroke:#4D5152;stroke-width:2;stroke-miterlimit:10;" x1="29" x2="29" y1="40" y2="42"/><line style="fill:none;stroke:#4D5152;stroke-width:2;stroke-miterlimit:10;" x1="29" x2="29" y1="36" y2="38"/><line style="fill:none;stroke:#4D5152;stroke-width:2;stroke-miterlimit:10;" x1="29" x2="29" y1="44" y2="46"/><circle cx="32" cy="56" r="8" style="fill:#F28C13;"/><circle cx="32" cy="56" r="6" style="fill:#FFB957;"/><g><rect height="6" style="fill:#F28C13;" width="2" x="31" y="53"/></g><path d="M19,18c0-6.075,5-11,10-11" style="fill:none;stroke:#4D5152;stroke-width:2;stroke-miterlimit:10;"/></g></g><g id="Layer_1"/></svg>