<?xml version="1.0" encoding="utf-8"?>
<!-- Generator: Adobe Illustrator 16.0.4, SVG Export Plug-In . SVG Version: 6.00 Build 0)  -->
<!DOCTYPE svg PUBLIC "-//W3C//DTD SVG 1.1//EN" "http://www.w3.org/Graphics/SVG/1.1/DTD/svg11.dtd">
<svg version="1.1" id="Layer_1" xmlns="http://www.w3.org/2000/svg" xmlns:xlink="http://www.w3.org/1999/xlink" x="0px" y="0px"
	 width="1400px" height="980px" viewBox="0 0 1400 980" enable-background="new 0 0 1400 980" xml:space="preserve">
<g>
	<path fill="#00ACC2" d="M0,0v979.999h1399.994V0H0z M441.55,174.012l12.893,24.754L441.55,174.012z"/>
</g>
<g>
	<g>
		<polygon fill="#0093A6" points="756.671,872.866 657.837,872.866 670.918,793.915 743.59,793.915 		"/>
		<path fill="#0093A6" d="M819.846,881.388c0-8.921-7.229-16.148-16.146-16.148H603.628c-8.917,0-16.146,7.228-16.146,16.148v2.692
			h232.363V881.388z"/>
		<path fill="#0093A6" d="M587.482,884.08v9.866c0,8.92,7.229,16.148,16.146,16.148H803.7c8.917,0,16.146-7.229,16.146-16.148
			v-9.866H587.482z"/>
		<path fill="#0093A6" d="M1020.621,780.426c0,8.923-7.231,16.151-16.148,16.151H402.855c-8.917,0-16.148-7.229-16.148-16.151
			V384.734c0-8.92,7.231-16.15,16.148-16.15h601.617c8.917,0,16.148,7.23,16.148,16.15V780.426z"/>
		<path fill="#0093A6" d="M402.855,748.131c-1.484,0-2.689-1.208-2.689-2.692V384.734c0-1.486,1.206-2.692,2.689-2.692h601.617
			c1.483,0,2.689,1.206,2.689,2.692v360.704c0,1.484-1.206,2.692-2.689,2.692H402.855z"/>
		<rect x="412.274" y="394.152" fill="#0093A6" width="582.779" height="341.864"/>
		<g>
			<g>
				<path fill="#0093A6" d="M798.158,689.798v-0.039c2.979-57.197-12.734-91.921-12.734-91.921
					c-9.268-11.791-31.735-16.007-31.735-16.007c-16.864-5.303-32.164-11.328-37.355-14.876
					c-4.802,5.542-10.573,12.716-21.657,16.747c0,0-0.245-7.488-5.3-16.191l-5.049-1.686l-5.056,1.686
					c-5.053,8.703-3.369,16.56-3.369,16.56c-11.087-4.034-18.784-11.573-23.585-17.115c-5.195,3.548-20.491,9.573-37.356,14.876
					c0,0-22.458,4.216-31.729,16.007c0,0-12.743,10.537-12.743,91.921v0.039H798.158z"/>
				<polygon fill="#0093A6" points="710.888,558.771 710.888,543.572 684.326,531.872 657.767,543.572 657.767,558.771 
					684.326,566.955 				"/>
				<path fill="#0093A6" d="M726.785,486.451c0,0,7.135-42.528-7.66-53.095c0,0-10.7-11.625-34.799-9.511
					c-24.105-2.114-34.806,9.511-34.806,9.511c-14.795,10.567-7.66,53.095-7.66,53.095c-9.241-4.755-8.715,6.333-8.715,6.333
					c-0.792,22.196,12.942,25.889,12.942,25.889c5.811,34.591,38.238,40.1,38.238,40.1s32.418-5.509,38.231-40.1
					c0,0,13.734-3.692,12.943-25.889C735.501,492.783,736.026,481.696,726.785,486.451z"/>
				<path fill="#0093A6" d="M710.888,558.771l-26.562,8.184l-26.559-8.184l-5.451,8.184c0,0,0.888,1.179,2.417,2.943
					c3.88,4.479,12.002,12.86,20.968,16.124c0,0,0.45-8.4,4.539-15.436l4.086-1.365l4.082,1.365
					c4.083,7.035,4.539,15.436,4.539,15.436c8.959-3.264,17.082-11.646,20.966-16.124c1.522-1.765,2.42-2.943,2.42-2.943
					L710.888,558.771z"/>
				<path fill="#0093A6" d="M639.911,493.918c0,0-16.127-37.719,10.821-62.913c0,0-1.324-4.056-9.313-4.037
					c-7.996,0.02,13.9-0.625,13.9-0.625l-0.356-7.865l9.15,5.416c0,0,19.69-11.512,47.987,0.572l2.236-3.525
					c0,0,30.127,17.502,12.818,68.813c0,0-0.759-29.275-11.105-38.409c0,0-28.48,6.427-45.632-1.705c0,0-22.99-1.074-24.939,16.489
					C645.478,466.129,646.656,491.553,639.911,493.918z"/>
				<path fill="#0093A6" d="M692.08,633.632c0,28.136-3.388,50.944-7.567,50.944c-4.182,0-7.573-22.809-7.573-50.944
					c0-28.137,3.391-50.951,7.573-50.951C688.692,582.681,692.08,605.495,692.08,633.632z"/>
			</g>
			<path fill="#0093A6" d="M869.936,606.577c0.103-2.345-2.705-2.672-2.705-2.672h-80.797H705.63c0,0-2.808,0.327-2.704,2.672
				l-0.004,90.237c0,0-0.009,2.031,2.369,1.991h81.143h81.139c2.378,0.04,2.366-1.991,2.366-1.991L869.936,606.577z"/>
			<path fill="#0093A6" d="M888.326,702.892c0,0,0.359-1.632-2.034-1.58h-77.869v1.027c-0.006,1.039-0.42,0.828-0.42,0.828h-21.509
				h-0.13h-21.507c0,0-0.414,0.211-0.423-0.828l0.006-1.027h-77.869c-2.394-0.052-2.04,1.58-2.04,1.58l-0.015,3.314
				c0.027,1.929,1.952,1.541,1.952,1.541h99.671h0.578h99.678c0,0,1.922,0.388,1.951-1.541L888.326,702.892z"/>
			<rect x="707.298" y="608.704" fill="#0093A6" width="158.265" height="82.61"/>
			<g>
				<path fill="#0093A6" d="M760.842,683.809c0,1.744-1.411,3.155-3.149,3.155h-11.966c-1.741,0-3.155-1.411-3.155-3.155v-13.538
					c0-1.74,1.414-3.148,3.155-3.148h11.966c1.738,0,3.149,1.408,3.149,3.148V683.809z"/>
				<path fill="#0093A6" d="M783.938,683.809c0,1.744-1.408,3.155-3.149,3.155h-11.966c-1.744,0-3.152-1.411-3.152-3.155v-26.423
					c0-1.74,1.408-3.151,3.152-3.151h11.966c1.741,0,3.149,1.411,3.149,3.151V683.809z"/>
				<path fill="#0093A6" d="M807.033,683.809c0,1.744-1.411,3.155-3.149,3.155h-11.966c-1.744,0-3.151-1.411-3.151-3.155v-37.894
					c0-1.737,1.407-3.148,3.151-3.148h11.966c1.738,0,3.149,1.411,3.149,3.148V683.809z"/>
				<path fill="#0093A6" d="M830.126,683.809c0,1.744-1.408,3.155-3.149,3.155h-11.966c-1.737,0-3.148-1.411-3.148-3.155v-48.392
					c0-1.74,1.411-3.148,3.148-3.148h11.966c1.741,0,3.149,1.408,3.149,3.148V683.809z"/>
				<rect x="739.269" y="684.129" fill="#0093A6" width="94.32" height="5.669"/>
				<g>
					<path fill="#0093A6" d="M756.164,657.44h-10.945c-0.779,0-1.411-0.632-1.411-1.414c0-0.78,0.632-1.408,1.411-1.408h9.772
						l10.093-10.126h10.358l10.097-10.127h10.814l10.093-10.12h10.356l9.682-9.706c0.553-0.556,1.441-0.556,1.997-0.009
						c0.554,0.553,0.554,1.45,0.004,2.001l-10.508,10.54h-10.358l-10.093,10.123h-10.815l-10.093,10.123h-10.361L756.164,657.44z"/>
				</g>
			</g>
		</g>
		<rect x="454.504" y="434.963" fill="#0093A6" width="121.852" height="96.909"/>
		<rect x="792.843" y="442.727" fill="#0093A6" width="167.949" height="20.131"/>
		<rect x="792.843" y="473.355" fill="#0093A6" width="167.949" height="20.129"/>
		<rect x="792.843" y="503.979" fill="#0093A6" width="167.949" height="20.133"/>
		<rect x="792.843" y="534.609" fill="#0093A6" width="167.949" height="20.128"/>
		<rect x="454.504" y="551.127" fill="#0093A6" width="87.757" height="69.792"/>
	</g>
	<g>
		<path fill="#0093A6" d="M1233.013,740.658c-2.562,0-4.642-2.076-4.642-4.642V717.45c0-2.565,2.079-4.641,4.642-4.641
			s4.642,2.075,4.642,4.641v18.566C1237.654,738.582,1235.575,740.658,1233.013,740.658z"/>
	</g>
	<path fill="#0093A6" d="M291.387,312.67c-7.855,9.532-15.467,19.451-22.627,29.481c-1.49,2.086-1.006,4.986,1.08,6.474
		c0.817,0.584,1.76,0.864,2.692,0.864c1.449,0,2.877-0.675,3.782-1.945c7.036-9.855,14.518-19.603,22.237-28.97
		c1.63-1.979,1.348-4.904-0.63-6.535C295.939,310.412,293.017,310.691,291.387,312.67z"/>
	<path fill="#0093A6" d="M533.228,145.852c-11.702,3.939-23.424,8.348-34.842,13.106c-2.366,0.986-3.484,3.705-2.499,6.071
		c0.743,1.783,2.469,2.857,4.287,2.857c0.595,0,1.201-0.115,1.784-0.358c11.217-4.676,22.735-9.008,34.231-12.876
		c2.429-0.819,3.736-3.451,2.919-5.88C538.291,146.343,535.658,145.035,533.228,145.852z"/>
	<path fill="#0093A6" d="M470.788,176.537c-1.15-2.292-3.939-3.22-6.229-2.068c-5.755,2.887-11.491,5.912-17.178,9.029l4.29,8.237
		c5.645-3.096,11.336-6.103,17.049-8.969C471.011,181.617,471.938,178.828,470.788,176.537z"/>
	<path fill="#0093A6" d="M605.138,127.146c-12.139,2.265-24.345,4.988-36.283,8.093c-2.481,0.645-3.969,3.179-3.324,5.66
		c0.544,2.089,2.426,3.475,4.489,3.475c0.387,0,0.78-0.048,1.171-0.151c11.729-3.05,23.725-5.725,35.648-7.95
		c2.521-0.47,4.182-2.895,3.712-5.414C610.08,128.338,607.668,126.685,605.138,127.146z"/>
	<path fill="#0093A6" d="M254.619,371.597c-2.188-1.342-5.042-0.66-6.384,1.528c-6.458,10.522-12.622,21.396-18.32,32.318
		c-1.185,2.274-0.304,5.077,1.969,6.263c0.686,0.356,1.42,0.527,2.143,0.527c1.674,0,3.292-0.91,4.12-2.496
		c5.598-10.733,11.654-21.417,18-31.756C257.488,375.796,256.803,372.938,254.619,371.597z"/>
	<path fill="#0093A6" d="M169.731,655.325c-0.021,0.175-0.054,0.351-0.054,0.538v36.866c0,2.565,2.078,4.641,4.642,4.641
		s4.642-2.075,4.642-4.641v-22.465L169.731,655.325z"/>
	<path fill="#0093A6" d="M222.411,442.657c1.024-2.349-0.05-5.085-2.401-6.108c-2.354-1.024-5.087,0.053-6.109,2.401
		c-1.168,2.679-2.247,5.422-3.375,8.133l8.48,3.779C220.143,448.125,221.233,445.36,222.411,442.657z"/>
	<path fill="#0093A6" d="M996.35,205.359c-2.146-1.407-5.019-0.807-6.424,1.333c-1.408,2.143-0.81,5.021,1.329,6.428
		c1.596,1.045,3.155,2.165,4.744,3.231l4.406-8.228C999.049,207.215,997.713,206.252,996.35,205.359z"/>
	<path fill="#0093A6" d="M1188.348,427.645c-1.079-2.325-3.838-3.334-6.165-2.257c-2.323,1.079-3.336,3.839-2.257,6.165
		c2.48,5.349,4.877,10.777,7.188,16.242l7.11-6.866C1192.31,436.473,1190.375,432.019,1188.348,427.645z"/>
	<path fill="#0093A6" d="M641.891,121.61c-2.546,0.294-4.373,2.596-4.08,5.143c0.273,2.366,2.28,4.109,4.605,4.109
		c0.178,0,0.356-0.009,0.538-0.03c2.014-0.232,4.062-0.385,6.087-0.594l12.177-10.485
		C654.744,120.26,648.285,120.872,641.891,121.61z"/>
	<path fill="#0093A6" d="M1237.588,643.643c-0.039-2.538-2.109-4.569-4.639-4.569h-0.075c-2.562,0.04-4.605,2.152-4.569,4.715
		c0.046,2.753,0.066,5.512,0.066,8.273v28.52c0,2.562,2.079,4.642,4.642,4.642s4.642-2.079,4.642-4.642v-28.52
		C1237.654,649.251,1237.634,646.444,1237.588,643.643z"/>
	<path fill="#0093A6" d="M1152.424,362.532c-1.393-2.153-4.264-2.772-6.418-1.378c-2.155,1.392-2.771,4.265-1.378,6.418
		c6.591,10.192,12.903,20.746,18.763,31.37c0.846,1.533,2.436,2.401,4.07,2.401c0.758,0,1.525-0.188,2.239-0.579
		c2.242-1.239,3.058-4.061,1.818-6.306C1165.554,383.646,1159.13,372.904,1152.424,362.532z"/>
	<path fill="#0093A6" d="M897.494,154.342c-11.504-4.484-23.311-8.613-35.089-12.276c-2.454-0.76-5.047,0.609-5.812,3.055
		c-0.759,2.447,0.607,5.049,3.056,5.811c11.573,3.598,23.171,7.654,34.476,12.059c0.553,0.216,1.121,0.319,1.683,0.319
		c1.858,0,3.611-1.123,4.328-2.958C901.066,157.964,899.882,155.272,897.494,154.342z"/>
	<path fill="#0093A6" d="M964.603,186.062c-10.748-6.032-21.854-11.764-33.004-17.036c-2.312-1.097-5.08-0.105-6.177,2.212
		c-1.097,2.318-0.108,5.084,2.212,6.18c10.954,5.181,21.866,10.812,32.431,16.74c0.716,0.403,1.495,0.595,2.266,0.595
		c1.623,0,3.2-0.855,4.05-2.372C967.637,190.146,966.839,187.316,964.603,186.062z"/>
	<path fill="#0093A6" d="M1131.159,332.019c-4.164-5.55-8.491-11.034-12.891-16.452l-7.654,5.317
		c4.481,5.501,8.887,11.064,13.117,16.705c0.913,1.216,2.303,1.857,3.717,1.857c0.968,0,1.946-0.302,2.78-0.928
		C1132.277,336.979,1132.694,334.069,1131.159,332.019z"/>
	<path fill="#0093A6" d="M1055.469,250.334c-1.922-1.689-4.858-1.499-6.548,0.431c-1.689,1.928-1.496,4.861,0.432,6.55
		c9.12,7.993,18.077,16.409,26.622,25.015c0.907,0.913,2.098,1.371,3.294,1.371c1.182,0,2.363-0.449,3.27-1.348
		c1.819-1.807,1.828-4.746,0.024-6.565C1073.866,267.03,1064.749,258.466,1055.469,250.334z"/>
	<g>
		<path fill="#0093A6" d="M174.318,753.404c-2.564,0-4.642-2.076-4.642-4.642v-18.566c0-2.565,2.078-4.641,4.642-4.641
			s4.642,2.075,4.642,4.641v18.566C178.96,751.328,176.882,753.404,174.318,753.404z"/>
	</g>
	<g>
		<g>
			<path fill="#0093A6" d="M761.355,62.688c-0.417-0.038-0.837-0.205-1.179-0.514c-0.853-0.757-0.931-2.067-0.176-2.92
				l26.303-29.614c0.755-0.854,2.063-0.928,2.919-0.168c0.858,0.757,0.934,2.064,0.172,2.919l-26.299,29.611
				C762.643,62.51,761.989,62.746,761.355,62.688z"/>
		</g>
		<g>
			<path fill="#0093A6" d="M795.019,127.616c-0.278-0.319-0.46-0.731-0.499-1.185c-0.091-1.144,0.765-2.138,1.9-2.23l39.483-3.093
				c1.143-0.089,2.137,0.76,2.23,1.902c0.084,1.139-0.765,2.138-1.904,2.226l-39.482,3.091
				C796.063,128.383,795.429,128.099,795.019,127.616z"/>
		</g>
		<g>
			<path fill="#0093A6" d="M789.615,90.517c-0.384-0.193-0.707-0.5-0.919-0.91c-0.522-1.018-0.12-2.266,0.897-2.786l35.237-18.08
				c1.019-0.52,2.267-0.121,2.786,0.896c0.521,1.02,0.121,2.267-0.9,2.791l-35.234,18.075
				C790.872,90.82,790.184,90.801,789.615,90.517z"/>
		</g>
		<path fill="#0093A6" d="M767.284,122.72c0,0-0.303-11.308-4.14-19.968c-4.545-8.307-13.342-15.422-13.342-15.422l8.739,17.693
			L767.284,122.72z"/>
		<path fill="#0093A6" d="M673.777,166.831c10.002-2.275,48.833-10.529,92.274-12.216l-8.672-17.554l-86.331,24.973L673.777,166.831
			z"/>
		<path fill="#0093A6" d="M723.728,68.923c-30.433,36.706-63.765,64.21-67.427,67.19l14.748,25.921l86.331-24.973l-12.493-25.29
			L723.728,68.923z"/>
		<path fill="#0093A6" d="M671.248,225.326c0,0,7.153,6.115,14.354,3.938c0,0,19.75-8.378,10.98-23.344c0,0-2.742-3.697-6.334-4.451
			c0,0-14.004-5.67-18.261-26.675l-6.367-11.188l-25.425,7.354L671.248,225.326z"/>
		<polygon fill="#0093A6" points="629.404,152.029 635.013,161.886 640.194,170.959 665.619,163.605 651.521,138.816 		"/>
		<path fill="#0093A6" d="M755.1,106.84l-20.434-41.37c-1.547-3.143-6.448-0.294-6.448-0.294l21.814,44.167l12.895,26.113
			l5.518-1.597L755.1,106.84z"/>
		<path fill="#0093A6" d="M768.444,133.858l-5.518,1.597l8.92,18.06c0,0,5.234-2.167,3.684-5.303L768.444,133.858z"/>
		<path fill="#0093A6" d="M628.062,182.064c4.738,0.212,9.845-1.354,12.066-2.141l-4.379-7.677l-11.373,3.288L628.062,182.064z"/>
		<path fill="#0093A6" d="M617.271,162.938l7.107,12.597l11.373-3.288l-10.23-17.931C623.151,156.073,619.4,159.233,617.271,162.938
			z"/>
		<path fill="#0093A6" d="M625.552,182.036l-3.297-5.887l-1.248,0.36C623.11,179.379,625.552,182.036,625.552,182.036z"/>
		<path fill="#0093A6" d="M615.79,164.616c0,0,1.651,5.749,3.583,9.475c0.476,0.786,1.044,1.612,1.635,2.417l1.248-0.36
			l-1.582-2.829L615.79,164.616z"/>
	</g>
	<g>
		<polygon fill="#0093A6" points="1289.437,748.763 1194.932,748.763 1194.932,875.725 1271.215,875.725 1289.437,857.503 		"/>
		<rect x="1213.622" y="770.734" fill="#0093A6" width="57.124" height="7.325"/>
		<rect x="1213.622" y="792.295" fill="#0093A6" width="57.124" height="7.325"/>
		<rect x="1213.622" y="813.855" fill="#0093A6" width="57.124" height="7.325"/>
		<rect x="1213.622" y="835.413" fill="#0093A6" width="57.124" height="7.334"/>
		<polygon fill="#0093A6" points="1271.215,875.725 1289.437,857.503 1271.215,857.503 		"/>
		<g>
			<path opacity="0.75" fill="#0093A6" d="M1217.04,833.038c-8.896,2.115-14.391,11.045-12.27,19.941
				c2.122,8.893,11.049,14.384,19.941,12.266c0.438-0.104,0.861-0.236,1.281-0.375l-8.657-31.89
				C1217.236,833.005,1217.137,833.011,1217.04,833.038z"/>
			<path opacity="0.75" fill="#0093A6" d="M1225.993,864.87c8.126-2.635,13.003-11.108,10.987-19.566
				c-2.094-8.797-10.852-14.251-19.645-12.323L1225.993,864.87z"/>
			<path fill="#0093A6" d="M1220.877,826.737c-12.374,0-22.403,10.033-22.403,22.404c0,4.705,1.45,9.062,3.929,12.667
				l-18.639,18.636c-2.769,3.506,0,6.35,0,6.35c3.221,3.127,6.493,0.293,6.493,0.293l18.872-18.868
				c3.42,2.105,7.439,3.323,11.748,3.323c12.372,0,22.401-10.032,22.401-22.4C1243.278,836.771,1233.249,826.737,1220.877,826.737z
				 M1220.877,865.698c-9.144,0-16.553-7.413-16.553-16.557c0-9.145,7.409-16.554,16.553-16.554c9.142,0,16.554,7.409,16.554,16.554
				C1237.431,858.285,1230.019,865.698,1220.877,865.698z"/>
		</g>
	</g>
	<g>
		<g>
			<path fill="#0093A6" d="M1130.262,250.096c0-32.831-26.71-59.536-59.539-59.537v119.073
				C1103.552,309.632,1130.262,282.923,1130.262,250.096z"/>
			<path fill="#0093A6" d="M1011.181,250.096c0,32.829,26.713,59.536,59.542,59.536l0,0V190.559l0,0
				C1037.894,190.559,1011.181,217.265,1011.181,250.096z"/>
			<path fill="#0093A6" d="M1143.428,250.096c0-40.089-32.614-72.703-72.705-72.705v13.167
				c32.829,0.001,59.539,26.707,59.539,59.537c0,32.828-26.71,59.536-59.539,59.536v13.169
				C1110.813,322.801,1143.428,290.185,1143.428,250.096z"/>
			<path fill="#0093A6" d="M1070.723,309.632c-32.829,0-59.542-26.707-59.542-59.536c0-32.831,26.713-59.537,59.542-59.537l0,0
				v-13.167l0,0c-40.09,0-72.704,32.614-72.704,72.705c0,40.091,32.614,72.705,72.704,72.705l0,0V309.632L1070.723,309.632z"/>
		</g>
		<g>
			<polygon fill="#0093A6" points="1074.482,255.593 1034.857,255.593 1034.857,248.07 1066.958,248.07 1066.958,200.783 
				1074.482,200.783 			"/>
		</g>
		<g>
			
				<rect x="1068.071" y="260.342" transform="matrix(0.8778 0.479 -0.479 0.8778 258.7741 -489.9759)" fill="#0093A6" width="43.392" height="3.764"/>
		</g>
		<g>
			<rect x="1068.844" y="295.425" fill="#0093A6" width="3.759" height="5.359"/>
		</g>
		<g>
			<rect x="1118.057" y="249.951" fill="#0093A6" width="6.268" height="3.759"/>
		</g>
		<g>
			<rect x="1016.33" y="249.951" fill="#0093A6" width="5.646" height="3.759"/>
		</g>
		<g>
			<path fill="#0093A6" d="M1077.616,251.831c0,3.811-3.086,6.897-6.894,6.897c-3.813,0-6.901-3.086-6.901-6.897
				c0-3.809,3.088-6.899,6.901-6.899C1074.53,244.932,1077.616,248.021,1077.616,251.831z"/>
		</g>
	</g>
	<g>
		<polygon fill="#0093A6" points="1227.945,566.069 1234.144,564.525 1224.195,524.694 1211.809,501.457 		"/>
		<polygon fill="#0093A6" points="1246.521,524.798 1236.597,564.525 1242.798,566.069 1258.907,501.559 		"/>
		<path fill="#0093A6" d="M1217.714,503.031c0,0,0.027-0.175,0.136-0.505c0.114-0.317,0.281-0.802,0.589-1.362
			c0.157-0.273,0.342-0.587,0.553-0.925c0.221-0.32,0.478-0.665,0.777-1.021c0.311-0.334,0.646-0.716,1.049-1.063
			c0.199-0.187,0.447-0.26,0.713-0.301c0.257-0.05,0.514-0.141,0.785-0.201c0.535-0.136,1.091-0.287,1.689-0.348
			c0.299-0.039,0.596-0.081,0.903-0.124c0.309-0.006,0.623-0.017,0.943-0.025c0.641-0.036,1.287,0.024,1.948,0.104
			c0.675,0.042,1.318,0.219,1.982,0.376c0.681,0.132,1.297,0.406,1.949,0.646c0.665,0.218,1.258,0.556,1.871,0.876
			c0.302,0.16,0.619,0.312,0.912,0.489l0.85,0.571l1.541,1.058c0.489,0.326,1.021,0.733,1.475,1.001
			c0.429,0.24,0.861,0.48,1.287,0.719c0.459,0.185,0.912,0.411,1.359,0.577c0.441,0.104,0.889,0.307,1.306,0.354
			c0.42,0.065,0.834,0.154,1.218,0.127c0.396,0.039,0.759-0.036,1.115-0.075c0.701-0.146,1.351-0.361,1.928-0.721
			c0.14-0.096,0.303-0.135,0.414-0.275c0.1-0.148,0.239-0.237,0.438-0.234c0.387-0.021,0.752-0.117,1.112-0.185
			c0.707-0.184,1.381-0.38,1.934-0.57c0.541-0.212,1.016-0.353,1.323-0.471c0.314-0.106,0.483-0.161,0.483-0.161
			s-0.069,0.713-0.365,1.914c-0.157,0.602-0.372,1.344-0.759,2.168c-0.211,0.402-0.411,0.861-0.71,1.314
			c-0.133,0.248-0.348,0.405-0.602,0.511c-0.235,0.14-0.48,0.275-0.73,0.42c-0.979,0.596-2.225,1.062-3.566,1.315
			c-0.68,0.097-1.381,0.202-2.088,0.156c-0.719,0.021-1.411-0.1-2.118-0.217c-0.71-0.106-1.348-0.366-2.037-0.557
			c-0.658-0.238-1.274-0.538-1.922-0.815c-0.625-0.326-1.245-0.695-1.864-1.052c-0.583-0.359-1.021-0.701-1.541-1.049l-1.466-1.003
			l-0.652-0.449c-0.224-0.131-0.453-0.235-0.677-0.354c-0.45-0.232-0.889-0.5-1.348-0.639c-0.457-0.157-0.895-0.375-1.348-0.444
			c-0.444-0.1-0.88-0.237-1.312-0.252c-0.429-0.052-0.852-0.1-1.26-0.066c-0.205,0.004-0.404,0.007-0.602,0.007
			c-0.199,0.027-0.393,0.058-0.586,0.088c-0.381,0.027-0.743,0.136-1.091,0.224c-0.172,0.045-0.354,0.065-0.499,0.179
			c-0.147,0.106-0.296,0.178-0.492,0.133c-0.384-0.077-0.743-0.074-1.109-0.112c-0.725-0.036-1.401-0.028-1.976,0.011
			c-0.556,0.058-1.046,0.096-1.36,0.151C1217.901,502.997,1217.714,503.031,1217.714,503.031z"/>
		<path fill="#0093A6" d="M1293.231,493.203c-1.332-28.25-15.9-41.788-27.891-48.174c-13.306-7.09-26.955-7.453-29.56-7.453
			c-0.188,0-0.33,0.004-0.411,0.004c-0.072,0-0.203-0.004-0.365-0.004v6.391c0.153,0.001,0.263,0.003,0.274,0.003h0.091h0.084
			c0.024,0,0.134-0.003,0.327-0.003c4.991,0,48.796,1.387,51.071,49.475c0.006,0.278,0.517,27.473-24.231,45.432l-0.985,0.716
			l-4.826,22.516h-21.805v6.386h26.969l5.397-25.181C1293.806,523.401,1293.271,494.492,1293.231,493.203z"/>
		<path fill="#0093A6" d="M1213.934,562.104l-4.823-22.516l-0.991-0.716c-24.634-17.88-24.235-45.158-24.231-45.369
			c2.275-48.15,46.085-49.537,51.071-49.537c0.019,0,0.027,0,0.046,0v-6.391c-0.016,0-0.027,0-0.046,0
			c-2.602,0-16.251,0.363-29.56,7.453c-11.99,6.384-26.556,19.924-27.895,48.23c-0.033,1.235-0.571,30.143,25.87,50.051
			l5.394,25.181h26.236v-6.386H1213.934z"/>
		<path fill="#0093A6" d="M1227.667,620.622c0,2.569,2.082,4.648,4.645,4.648h2.693v-5.936h-7.338V620.622z"/>
		<path fill="#0093A6" d="M1237.696,625.271c2.562,0,4.648-2.079,4.648-4.648v-1.287h-7.34v5.936H1237.696z"/>
		<path fill="#0093A6" d="M1211.171,575.374l-5.515,2.127v2.388l5.515,5.515v1.889l-5.515,2.127v2.385l5.515,5.512v4.623
			c0,8.337,6.76,15.1,15.098,15.1h8.736v-46.3h-23.834V575.374z"/>
		<path fill="#0093A6" d="M1243.74,617.038c8.337,0,15.097-6.763,15.097-15.1v-0.665l5.516-5.515v-2.381l-5.516-2.134v-1.886
			l5.516-5.512v-2.384l-5.516-2.131v-8.594h-23.832v46.3H1243.74z"/>
	</g>
	<path fill="#0093A6" d="M266.77,223.014c-2.564,0.708-5.17,0.607-7.532-0.136c-1.156,3.508-1.835,7.203-1.991,10.968
		c5.491,0.377,10.391,4.143,11.939,9.738c1.542,5.603-0.736,11.341-5.261,14.476c2.097,3.189,4.601,6.042,7.429,8.485
		c1.633-1.825,3.798-3.228,6.341-3.929c7.086-1.957,14.429,2.2,16.38,9.297c0.417,1.511,0.539,3.02,0.434,4.518
		c3.695,0.329,7.497,0.159,11.304-0.547c-1.059-6.609,3.008-13.097,9.598-14.919c4.549-1.239,9.205,0.018,12.453,2.977
		c2.579-2.706,4.781-5.742,6.535-9.017c-2.94-1.689-5.25-4.481-6.208-8.014c-1.97-7.081,2.197-14.416,9.288-16.375
		c0.483-0.134,0.959-0.232,1.434-0.311c-0.246-1.854-0.607-3.708-1.12-5.582c-0.529-1.834-1.156-3.619-1.892-5.347
		c-0.462,0.186-0.911,0.348-1.397,0.475c-7.082,1.959-14.413-2.202-16.366-9.292c-0.978-3.528-0.438-7.12,1.224-10.067
		c-3.182-1.911-6.621-3.406-10.226-4.389c-1.291,4.196-4.632,7.671-9.174,8.928c-6.604,1.822-13.408-1.663-15.893-7.869
		c-3.653,1.333-7.009,3.137-10.018,5.343c0.884,1.247,1.582,2.65,2.013,4.205C278.024,213.724,273.858,221.064,266.77,223.014z
		 M311.968,212.246c12.799,7.283,17.282,23.555,10.008,36.355c-7.278,12.797-23.552,17.277-36.355,10.005
		c-12.797-7.272-17.273-23.551-10.005-36.355C282.894,209.454,299.166,204.98,311.968,212.246z"/>
	<path fill="#0093A6" d="M337.181,233.369c-1.709,5.516-2.674,11.298-2.812,17.181c8.563,0.447,16.301,6.193,18.863,14.9
		c2.552,8.706-0.861,17.73-7.846,22.732c3.347,4.928,7.332,9.316,11.812,13.072c2.514-2.898,5.843-5.137,9.812-6.317
		c11.013-3.22,22.574,3.087,25.811,14.103c0.682,2.368,0.917,4.726,0.778,7.053c5.785,0.44,11.705,0.085,17.645-1.145
		c-1.836-10.291,4.345-20.485,14.603-23.513c7.077-2.081,14.366-0.197,19.546,4.318c3.947-4.282,7.298-9.079,9.948-14.229
		c-4.626-2.569-8.298-6.875-9.917-12.356c-3.217-11.015,3.098-22.585,14.109-25.802c0.758-0.224,1.499-0.376,2.241-0.503
		c-0.423-2.901-1.058-5.808-1.881-8.676c-0.866-2.892-1.898-5.654-3.101-8.316c-0.697,0.282-1.41,0.541-2.153,0.763
		c-11.043,3.235-22.573-3.082-25.817-14.097c-1.607-5.486-0.837-11.102,1.667-15.753c-5.016-2.907-10.412-5.145-16.068-6.604
		c-1.908,6.587-7.035,12.105-14.116,14.177c-10.244,3.018-20.957-2.265-25.013-11.886c-5.657,2.179-10.844,5.083-15.499,8.609
		c1.426,1.91,2.543,4.104,3.265,6.503c3.238,11.029-3.083,22.573-14.095,25.811C344.955,234.559,340.889,234.472,337.181,233.369z
		 M420.078,215.593c20.182,11.466,27.244,37.12,15.772,57.297c-11.468,20.18-37.12,27.242-57.296,15.772
		c-20.18-11.465-27.237-37.117-15.771-57.297C374.248,211.186,399.906,204.124,420.078,215.593z"/>
	<path fill="#0093A6" d="M378.554,288.662c20.176,11.469,45.829,4.407,57.296-15.772c11.471-20.177,4.409-45.831-15.772-57.297
		c-20.172-11.469-45.83-4.407-57.295,15.772C351.317,251.545,358.375,277.197,378.554,288.662z M388.813,219.47
		c18.077-5.291,37.023,5.053,42.327,23.143c5.293,18.075-5.057,37.007-23.122,42.312c-18.098,5.312-37.042-5.042-42.335-23.118
		C360.384,243.726,370.728,224.766,388.813,219.47z"/>
	<path fill="#0093A6" d="M285.621,258.607c12.803,7.272,29.077,2.792,36.355-10.005c7.273-12.8,2.791-29.073-10.008-36.355
		c-12.802-7.266-29.075-2.792-36.353,10.005C268.348,235.056,272.824,251.335,285.621,258.607z M292.437,214.509
		c11.625-3.208,23.66,3.614,26.864,15.25c3.198,11.628-3.614,23.651-15.248,26.87c-11.634,3.202-23.657-3.627-26.87-15.254
		C273.972,229.744,280.801,217.717,292.437,214.509z"/>
	<g>
		<g>
			<g>
				<polygon fill="#0093A6" points="195.263,550.368 178.555,550.368 178.555,588.615 195.263,589.8 				"/>
			</g>
			<g>
				<path fill="#0093A6" d="M186.679,573.409c0.079,0,0.151,0.019,0.228,0.021V471.594c-0.077,0.004-0.149,0.023-0.228,0.023
					c-2.288,0-4.143-1.857-4.143-4.145v-7.36h-10.122v7.36c0,2.288-1.857,4.145-4.147,4.145c-2.286,0-4.145-1.857-4.145-4.145
					v-7.193c-9.924,1.218-17.611,9.661-17.611,19.917v0.517h28.643c2.286,0,4.145,1.854,4.145,4.143
					c0,2.291-1.858,4.146-4.145,4.146h-28.643v6.773h28.643c2.286,0,4.145,1.858,4.145,4.146c0,2.288-1.858,4.142-4.145,4.142
					h-28.643v6.778h28.643c2.286,0,4.145,1.855,4.145,4.146c0,2.285-1.858,4.141-4.145,4.141h-28.643v6.777h28.643
					c2.286,0,4.145,1.853,4.145,4.143c0,2.288-1.858,4.144-4.145,4.144h-28.643v6.774h28.643c2.286,0,4.145,1.855,4.145,4.144
					c0,2.29-1.858,4.146-4.145,4.146h-28.643v6.775h28.643c2.286,0,4.145,1.855,4.145,4.143s-1.858,4.143-4.145,4.143h-28.643v0.518
					c0,10.256,7.688,18.695,17.611,19.919v-7.194c0-2.288,1.858-4.146,4.145-4.146c2.291,0,4.147,1.858,4.147,4.146v7.361h10.122
					v-7.361C182.536,575.268,184.392,573.409,186.679,573.409z"/>
			</g>
			<g>
				<path fill="#0093A6" d="M198.207,504.062c-2.287,0-4.144-1.854-4.144-4.142c0-2.287,1.857-4.146,4.144-4.146h28.641v-6.773
					h-28.641c-2.287,0-4.144-1.855-4.144-4.146c0-2.289,1.857-4.143,4.144-4.143h28.641v-0.517c0-10.256-7.69-18.699-17.616-19.917
					v7.193c0,2.288-1.855,4.145-4.145,4.145s-4.143-1.857-4.143-4.145v-7.36h-10.122v7.36c0,2.208-1.734,4.001-3.916,4.122v101.837
					c2.182,0.124,3.916,1.913,3.916,4.125v7.361h10.122v-7.361c0-2.288,1.854-4.146,4.143-4.146s4.145,1.858,4.145,4.146v7.194
					c9.925-1.224,17.616-9.663,17.616-19.919v-0.518h-28.641c-2.287,0-4.144-1.855-4.144-4.143s1.857-4.143,4.144-4.143h28.641
					v-6.775h-28.641c-2.287,0-4.144-1.855-4.144-4.146c0-2.288,1.857-4.144,4.144-4.144h28.641v-6.774h-28.641
					c-2.287,0-4.144-1.855-4.144-4.144c0-2.29,1.857-4.143,4.144-4.143h28.641v-6.777h-28.641c-2.287,0-4.144-1.855-4.144-4.141
					c0-2.29,1.857-4.146,4.144-4.146h28.641v-6.778H198.207z"/>
			</g>
			<g>
				<path fill="#0093A6" d="M179.298,484.855c0-2.289-1.858-4.143-4.145-4.143h-28.643v8.289h28.643
					C177.44,489.001,179.298,487.146,179.298,484.855z"/>
			</g>
			<g>
				<path fill="#0093A6" d="M179.298,499.92c0-2.287-1.858-4.146-4.145-4.146h-28.643v8.287h28.643
					C177.44,504.062,179.298,502.208,179.298,499.92z"/>
			</g>
			<g>
				<path fill="#0093A6" d="M179.298,514.985c0-2.29-1.858-4.146-4.145-4.146h-28.643v8.286h28.643
					C177.44,519.126,179.298,517.271,179.298,514.985z"/>
			</g>
			<g>
				<path fill="#0093A6" d="M179.298,530.046c0-2.29-1.858-4.143-4.145-4.143h-28.643v8.286h28.643
					C177.44,534.189,179.298,532.334,179.298,530.046z"/>
			</g>
			<g>
				<path fill="#0093A6" d="M179.298,545.107c0-2.288-1.858-4.144-4.145-4.144h-28.643v8.289h28.643
					C177.44,549.253,179.298,547.397,179.298,545.107z"/>
			</g>
			<g>
				<path fill="#0093A6" d="M179.298,560.171c0-2.287-1.858-4.143-4.145-4.143h-28.643v8.285h28.643
					C177.44,564.313,179.298,562.458,179.298,560.171z"/>
			</g>
			<g>
				<path fill="#0093A6" d="M194.063,484.855c0,2.291,1.857,4.146,4.144,4.146h28.641v-8.289h-28.641
					C195.92,480.712,194.063,482.566,194.063,484.855z"/>
			</g>
			<g>
				<path fill="#0093A6" d="M194.063,499.92c0,2.288,1.857,4.142,4.144,4.142h28.641v-8.287h-28.641
					C195.92,495.774,194.063,497.633,194.063,499.92z"/>
			</g>
			<g>
				<path fill="#0093A6" d="M194.063,514.985c0,2.285,1.857,4.141,4.144,4.141h28.641v-8.286h-28.641
					C195.92,510.84,194.063,512.695,194.063,514.985z"/>
			</g>
			<g>
				<path fill="#0093A6" d="M205.088,471.617c2.289,0,4.145-1.857,4.145-4.145v-7.193c-0.81-0.098-1.632-0.167-2.469-0.167h-5.819
					v7.36C200.945,469.76,202.799,471.617,205.088,471.617z"/>
			</g>
			<g>
				<path fill="#0093A6" d="M186.907,471.594c2.182-0.121,3.916-1.914,3.916-4.122v-7.36h-3.916V471.594z"/>
			</g>
			<g>
				<path fill="#0093A6" d="M186.679,471.617c0.079,0,0.151-0.019,0.228-0.023v-11.481h-4.371v7.36
					C182.536,469.76,184.392,471.617,186.679,471.617z"/>
			</g>
			<g>
				<path fill="#0093A6" d="M168.267,471.617c2.291,0,4.147-1.857,4.147-4.145v-7.36h-5.818c-0.837,0-1.661,0.068-2.474,0.167v7.193
					C164.123,469.76,165.981,471.617,168.267,471.617z"/>
			</g>
			<g>
				<path fill="#0093A6" d="M205.088,573.409c-2.289,0-4.143,1.858-4.143,4.146v7.361h5.819c0.837,0,1.659-0.066,2.469-0.167v-7.194
					C209.232,575.268,207.377,573.409,205.088,573.409z"/>
			</g>
			<g>
				<path fill="#0093A6" d="M186.907,573.431v11.486h3.916v-7.361C190.823,575.344,189.089,573.555,186.907,573.431z"/>
			</g>
			<g>
				<path fill="#0093A6" d="M186.907,573.431c-0.077-0.003-0.149-0.021-0.228-0.021c-2.288,0-4.143,1.858-4.143,4.146v7.361h4.371
					V573.431z"/>
			</g>
			<g>
				<path fill="#0093A6" d="M168.267,573.409c-2.286,0-4.145,1.858-4.145,4.146v7.194c0.813,0.101,1.636,0.167,2.474,0.167h5.818
					v-7.361C172.415,575.268,170.558,573.409,168.267,573.409z"/>
			</g>
			<g>
				<path fill="#0093A6" d="M194.063,530.046c0,2.288,1.857,4.144,4.144,4.144h28.641v-8.286h-28.641
					C195.92,525.903,194.063,527.756,194.063,530.046z"/>
			</g>
			<g>
				<path fill="#0093A6" d="M194.063,545.107c0,2.29,1.857,4.146,4.144,4.146h28.641v-8.289h-28.641
					C195.92,540.964,194.063,542.819,194.063,545.107z"/>
			</g>
			<g>
				<path fill="#0093A6" d="M194.063,560.171c0,2.287,1.857,4.143,4.144,4.143h28.641v-8.285h-28.641
					C195.92,556.028,194.063,557.884,194.063,560.171z"/>
			</g>
			<g>
				<g>
					<path fill="#0093A6" d="M190.131,628.146h-6.447c-28.384,0-51.48-23.087-51.48-51.474v-54.199c0-2.773,2.25-5.02,5.022-5.02
						s5.022,2.246,5.022,5.02v54.199c0,22.849,18.587,41.436,41.436,41.436h6.447c22.851,0,41.435-18.587,41.435-41.436v-54.199
						c0-2.773,2.249-5.02,5.021-5.02c2.774,0,5.022,2.246,5.022,5.02v54.199C241.61,605.06,218.517,628.146,190.131,628.146z"/>
				</g>
			</g>
			<g>
				<polygon fill="#0093A6" points="178.555,588.615 178.555,657.44 186.907,657.44 186.907,589.208 				"/>
			</g>
			<g>
				<polygon fill="#0093A6" points="195.263,589.8 186.907,589.208 186.907,657.44 195.263,657.44 				"/>
			</g>
		</g>
		<g>
			<path fill="#0093A6" d="M112.362,577.993c-1.021,0-2.041-0.39-2.825-1.157c-20.792-20.527-19.518-45.019-19.359-47.186
				c0.932-28.199,18.802-43.878,19.563-44.532c1.682-1.448,4.223-1.256,5.67,0.431c1.448,1.678,1.257,4.215-0.42,5.662
				c-0.26,0.225-16.002,14.265-16.777,38.787l-0.012,0.212c-0.018,0.211-1.55,22.603,16.982,40.9
				c1.583,1.559,1.599,4.106,0.04,5.684C114.437,577.592,113.397,577.993,112.362,577.993z"/>
		</g>
		<g>
			<path fill="#0093A6" d="M94.134,596.441c-1,0-2.003-0.371-2.783-1.117c-25.723-24.683-26.905-56.424-26.958-59.041
				c-2.582-37.576,20.057-62.059,21.023-63.083c1.521-1.617,4.069-1.692,5.686-0.169c1.613,1.523,1.69,4.064,0.172,5.681l0,0
				c-0.213,0.227-21.231,23.102-18.847,57.118l0.008,0.235c0.004,0.297,0.718,30.647,24.484,53.45
				c1.602,1.541,1.657,4.086,0.119,5.688C96.248,596.028,95.192,596.441,94.134,596.441z"/>
		</g>
		<g>
			<path fill="#0093A6" d="M262.639,577.993c-1.04,0-2.078-0.401-2.865-1.199c-1.56-1.577-1.543-4.125,0.038-5.684
				c18.536-18.298,17.004-40.689,16.986-40.913l-0.014-0.199c-0.784-24.761-16.608-38.643-16.767-38.782
				c-1.686-1.447-1.878-3.985-0.429-5.667c1.446-1.687,3.987-1.878,5.67-0.431c0.762,0.654,18.631,16.333,19.565,44.532
				c0.157,2.167,1.429,26.658-19.358,47.186C264.68,577.604,263.66,577.993,262.639,577.993z"/>
		</g>
		<g>
			<path fill="#0093A6" d="M280.863,596.441c-1.058,0-2.112-0.413-2.901-1.238c-1.538-1.602-1.485-4.146,0.118-5.688
				c23.765-22.803,24.478-53.153,24.481-53.456l0.013-0.229c2.391-34.161-18.632-56.887-18.844-57.112
				c-1.526-1.617-1.449-4.164,0.166-5.687c1.617-1.523,4.164-1.448,5.686,0.169c0.967,1.024,23.608,25.507,21.021,63.083
				c-0.053,2.617-1.233,34.358-26.955,59.041C282.87,596.07,281.865,596.441,280.863,596.441z"/>
		</g>
	</g>
	<g>
		<path fill="#0093A6" d="M255.194,876.305c4.798-6.473,7.601-14.275,7.601-22.67c0-22.428-20.003-40.613-44.677-40.613
			c-24.676,0-44.679,18.186-44.679,40.613c0,22.435,20.003,40.619,44.679,40.619c5.753,0,11.254-0.991,16.304-2.792
			c11.352,13.623,31.863,5.597,31.863,5.597C259.618,893.106,256.5,882.572,255.194,876.305z"/>
		<path fill="#0093A6" d="M252.976,897.421c-7.301-0.003-13.028-2.436-17.026-7.228l-0.89-1.064l-1.303,0.466
			c-4.98,1.771-10.241,2.671-15.639,2.671c-23.543,0-42.694-17.327-42.694-38.631c0-21.298,19.151-38.631,42.694-38.631
			c23.54,0,42.692,17.333,42.692,38.631c0,7.693-2.496,15.128-7.212,21.491l-0.529,0.713l0.18,0.874
			c1.354,6.481,3.944,14.616,8.837,19.542c-2.309,0.571-5.56,1.166-9.109,1.166H252.976z"/>
		<circle fill="#0093A6" cx="194.03" cy="856.213" r="4.154"/>
		<circle fill="#0093A6" cx="218.753" cy="856.213" r="4.154"/>
		<circle fill="#0093A6" cx="243.482" cy="856.213" r="4.154"/>
	</g>
	<g>
		<path fill="#0093A6" d="M108.294,835.003c-5.826-7.863-9.227-17.334-9.227-27.521c0-27.229,24.279-49.304,54.231-49.304
			c29.954,0,54.233,22.074,54.233,49.304s-24.279,49.305-54.233,49.305c-6.985,0-13.662-1.206-19.793-3.391
			c-13.778,16.532-38.676,6.793-38.676,6.793C102.92,855.394,106.709,842.605,108.294,835.003z"/>
		<path fill="#0093A6" d="M110.987,860.631c8.86-0.003,15.813-2.952,20.667-8.778l1.077-1.288l1.585,0.562
			c6.043,2.154,12.43,3.245,18.983,3.245c28.576,0,51.823-21.031,51.823-46.89c0-25.857-23.247-46.896-51.823-46.896
			c-28.574,0-51.823,21.038-51.823,46.896c0,9.341,3.026,18.357,8.753,26.082l0.645,0.87l-0.219,1.058
			c-1.644,7.872-4.79,17.744-10.726,23.721c2.8,0.695,6.746,1.418,11.055,1.418C110.984,860.631,110.984,860.631,110.987,860.631z"
			/>
		<path fill="#0093A6" d="M177.496,810.61c0,2.783,2.259,5.04,5.042,5.04c2.786,0,5.043-2.257,5.043-5.04
			c0-2.786-2.257-5.047-5.043-5.047C179.754,805.563,177.496,807.824,177.496,810.61z"/>
		<circle fill="#0093A6" cx="152.523" cy="810.61" r="5.042"/>
		<path fill="#0093A6" d="M117.466,810.61c0,2.783,2.26,5.04,5.043,5.04c2.786,0,5.045-2.257,5.045-5.04
			c0-2.786-2.259-5.047-5.045-5.047C119.726,805.563,117.466,807.824,117.466,810.61z"/>
	</g>
	<path fill="#0093A6" d="M703.662,256.115c-24.667,0-44.667,19.999-44.667,44.669c0,24.67,20,44.668,44.667,44.668
		c24.671,0,44.669-19.999,44.669-44.668C748.331,276.114,728.333,256.115,703.662,256.115z M688.112,324.7v-47.835l41.429,23.919
		L688.112,324.7z"/>
</g>
<g>
	<polygon fill="#CACBCD" points="753.004,867.533 654.17,867.533 667.251,788.582 739.923,788.582 	"/>
	<path fill="#E2E3E4" d="M816.179,876.055c0-8.921-7.229-16.148-16.146-16.148H599.961c-8.917,0-16.146,7.228-16.146,16.148v2.692
		h232.363V876.055z"/>
	<path fill="#FFFFFF" d="M583.815,878.747v9.866c0,8.92,7.229,16.148,16.146,16.148h200.072c8.917,0,16.146-7.229,16.146-16.148
		v-9.866H583.815z"/>
	<path fill="#FFFFFF" d="M1016.954,775.093c0,8.923-7.231,16.151-16.148,16.151H399.188c-8.917,0-16.148-7.229-16.148-16.151
		V379.401c0-8.92,7.231-16.15,16.148-16.15h601.617c8.917,0,16.148,7.23,16.148,16.15V775.093z"/>
	<path fill="#E2E3E4" d="M399.188,742.798c-1.484,0-2.689-1.208-2.689-2.692V379.401c0-1.486,1.206-2.692,2.689-2.692h601.617
		c1.483,0,2.689,1.206,2.689,2.692v360.704c0,1.484-1.206,2.692-2.689,2.692H399.188z"/>
	<rect x="408.607" y="388.819" fill="#4DD0E2" width="582.779" height="341.864"/>
	<g>
		<g>
			<path fill="#183249" d="M794.491,684.465v-0.039c2.979-57.197-12.734-91.921-12.734-91.921
				c-9.268-11.791-31.735-16.007-31.735-16.007c-16.864-5.303-32.164-11.328-37.355-14.876
				c-4.802,5.542-10.573,12.716-21.657,16.747c0,0-0.245-7.488-5.3-16.191l-5.049-1.686l-5.056,1.686
				c-5.053,8.703-3.369,16.56-3.369,16.56c-11.087-4.034-18.784-11.573-23.585-17.115c-5.195,3.548-20.491,9.573-37.356,14.876
				c0,0-22.458,4.216-31.729,16.007c0,0-12.743,10.537-12.743,91.921v0.039H794.491z"/>
			<polygon fill="#F9C58C" points="707.221,553.438 707.221,538.239 680.659,526.539 654.1,538.239 654.1,553.438 680.659,561.622 
							"/>
			<path fill="#FCD0A4" d="M723.118,481.118c0,0,7.135-42.528-7.66-53.095c0,0-10.7-11.625-34.799-9.511
				c-24.105-2.114-34.806,9.511-34.806,9.511c-14.795,10.567-7.66,53.095-7.66,53.095c-9.241-4.755-8.715,6.332-8.715,6.332
				c-0.792,22.197,12.942,25.889,12.942,25.889c5.811,34.591,38.238,40.1,38.238,40.1s32.418-5.509,38.231-40.1
				c0,0,13.734-3.692,12.943-25.889C731.834,487.45,732.359,476.363,723.118,481.118z"/>
			<path fill="#FFFFFF" d="M707.221,553.438l-26.562,8.184l-26.559-8.184l-5.451,8.184c0,0,0.888,1.179,2.417,2.943
				c3.88,4.479,12.002,12.86,20.968,16.124c0,0,0.45-8.4,4.539-15.436l4.086-1.365l4.082,1.365
				c4.083,7.035,4.539,15.436,4.539,15.436c8.959-3.264,17.082-11.646,20.966-16.124c1.522-1.765,2.42-2.943,2.42-2.943
				L707.221,553.438z"/>
			<path fill="#2D1407" d="M636.244,488.584c0,0-16.127-37.718,10.821-62.913c0,0-1.324-4.056-9.313-4.037
				c-7.996,0.02,13.9-0.625,13.9-0.625l-0.356-7.865l9.15,5.416c0,0,19.69-11.512,47.987,0.572l2.236-3.525
				c0,0,30.127,17.502,12.818,68.813c0,0-0.759-29.275-11.105-38.409c0,0-28.48,6.427-45.632-1.705c0,0-22.99-1.074-24.939,16.489
				C641.811,460.796,642.989,486.22,636.244,488.584z"/>
			<path fill="#FFFFFF" d="M688.413,628.299c0,28.136-3.388,50.944-7.567,50.944c-4.182,0-7.573-22.809-7.573-50.944
				c0-28.137,3.391-50.951,7.573-50.951C685.025,577.348,688.413,600.162,688.413,628.299z"/>
		</g>
		<path fill="#1F2229" d="M866.269,601.244c0.103-2.345-2.705-2.672-2.705-2.672h-80.797h-80.804c0,0-2.808,0.327-2.705,2.672
			l-0.003,90.237c0,0-0.009,2.031,2.369,1.991h81.143h81.139c2.378,0.04,2.366-1.991,2.366-1.991L866.269,601.244z"/>
		<path fill="#FFFFC7" d="M884.659,697.559c0,0,0.359-1.632-2.034-1.58h-77.869v1.027c-0.006,1.039-0.42,0.828-0.42,0.828h-21.509
			h-0.13H761.19c0,0-0.414,0.211-0.423-0.828l0.006-1.027h-77.869c-2.394-0.052-2.04,1.58-2.04,1.58l-0.015,3.314
			c0.027,1.929,1.952,1.541,1.952,1.541h99.671h0.578h99.678c0,0,1.922,0.388,1.951-1.541L884.659,697.559z"/>
		<rect x="703.631" y="603.371" fill="#FFFDED" width="158.265" height="82.61"/>
		<g>
			<path fill="#FEDF00" d="M757.175,678.476c0,1.744-1.411,3.155-3.149,3.155H742.06c-1.741,0-3.155-1.411-3.155-3.155v-13.538
				c0-1.74,1.414-3.148,3.155-3.148h11.966c1.738,0,3.149,1.408,3.149,3.148V678.476z"/>
			<path fill="#183249" d="M780.271,678.476c0,1.744-1.408,3.155-3.149,3.155h-11.966c-1.744,0-3.152-1.411-3.152-3.155v-26.423
				c0-1.74,1.408-3.151,3.152-3.151h11.966c1.741,0,3.149,1.411,3.149,3.151V678.476z"/>
			<path fill="#F15F4C" d="M803.366,678.476c0,1.744-1.411,3.155-3.149,3.155h-11.966c-1.744,0-3.151-1.411-3.151-3.155v-37.894
				c0-1.737,1.407-3.148,3.151-3.148h11.966c1.738,0,3.149,1.411,3.149,3.148V678.476z"/>
			<path fill="#00ACC2" d="M826.459,678.476c0,1.744-1.408,3.155-3.149,3.155h-11.966c-1.737,0-3.148-1.411-3.148-3.155v-48.392
				c0-1.74,1.411-3.148,3.148-3.148h11.966c1.741,0,3.149,1.408,3.149,3.148V678.476z"/>
			<rect x="735.602" y="678.796" fill="#DDCBA5" width="94.32" height="5.669"/>
			<g>
				<path fill="#DDCBA5" d="M752.497,652.107h-10.945c-0.779,0-1.411-0.632-1.411-1.414c0-0.78,0.632-1.408,1.411-1.408h9.772
					l10.093-10.126h10.358l10.097-10.127h10.814l10.093-10.12h10.356l9.682-9.706c0.553-0.556,1.441-0.556,1.997-0.009
					c0.554,0.553,0.554,1.45,0.004,2.001l-10.508,10.54h-10.358l-10.093,10.123h-10.815l-10.093,10.123H762.59L752.497,652.107z"/>
			</g>
		</g>
	</g>
	<rect x="450.837" y="429.63" fill="#FFFDED" width="121.852" height="96.909"/>
	<rect x="789.176" y="437.394" fill="#FFFDED" width="167.949" height="20.131"/>
	<rect x="789.176" y="468.022" fill="#FFFDED" width="167.949" height="20.128"/>
	<rect x="789.176" y="498.646" fill="#FFFDED" width="167.949" height="20.133"/>
	<rect x="789.176" y="529.276" fill="#FFFDED" width="167.949" height="20.128"/>
	<rect x="450.837" y="545.794" fill="#FFFDED" width="87.757" height="69.792"/>
</g>
<g>
	<path fill="#FFFFFF" d="M1229.346,735.325c-2.562,0-4.642-2.076-4.642-4.642v-18.566c0-2.565,2.079-4.641,4.642-4.641
		s4.642,2.075,4.642,4.641v18.566C1233.987,733.249,1231.908,735.325,1229.346,735.325z"/>
</g>
<path fill="#FFFFFF" d="M287.72,307.337c-7.855,9.532-15.467,19.451-22.627,29.481c-1.49,2.086-1.006,4.986,1.08,6.474
	c0.817,0.584,1.76,0.864,2.692,0.864c1.449,0,2.877-0.675,3.782-1.945c7.036-9.855,14.518-19.603,22.237-28.97
	c1.63-1.979,1.348-4.904-0.63-6.535C292.272,305.079,289.35,305.358,287.72,307.337z"/>
<path fill="#FFFFFF" d="M529.561,140.519c-11.702,3.939-23.424,8.348-34.842,13.106c-2.366,0.986-3.484,3.705-2.499,6.071
	c0.743,1.783,2.469,2.857,4.287,2.857c0.595,0,1.201-0.115,1.784-0.358c11.217-4.676,22.735-9.008,34.231-12.876
	c2.429-0.819,3.736-3.451,2.919-5.88C534.624,141.01,531.991,139.702,529.561,140.519z"/>
<path fill="#FFFFFF" d="M467.121,171.204c-1.15-2.292-3.939-3.22-6.229-2.068c-5.755,2.887-11.491,5.912-17.178,9.029l4.29,8.237
	c5.645-3.096,11.336-6.103,17.049-8.969C467.344,176.284,468.271,173.495,467.121,171.204z"/>
<path fill="#FFFFFF" d="M601.471,121.812c-12.139,2.265-24.345,4.988-36.283,8.093c-2.481,0.645-3.969,3.179-3.324,5.66
	c0.544,2.089,2.426,3.475,4.489,3.475c0.387,0,0.78-0.048,1.171-0.151c11.729-3.05,23.725-5.725,35.648-7.95
	c2.521-0.47,4.182-2.895,3.712-5.414C606.413,123.005,604.001,121.352,601.471,121.812z"/>
<path fill="#FFFFFF" d="M250.952,366.264c-2.188-1.342-5.042-0.66-6.384,1.528c-6.458,10.522-12.622,21.396-18.32,32.318
	c-1.185,2.274-0.304,5.077,1.969,6.263c0.686,0.356,1.42,0.527,2.143,0.527c1.674,0,3.292-0.91,4.12-2.496
	c5.598-10.733,11.654-21.417,18-31.756C253.821,370.463,253.136,367.604,250.952,366.264z"/>
<path fill="#FFFFFF" d="M166.064,649.992c-0.021,0.175-0.054,0.351-0.054,0.538v36.866c0,2.565,2.078,4.641,4.642,4.641
	s4.642-2.075,4.642-4.641v-22.465L166.064,649.992z"/>
<path fill="#FFFFFF" d="M218.744,437.324c1.024-2.349-0.05-5.085-2.401-6.108c-2.354-1.024-5.087,0.053-6.109,2.401
	c-1.168,2.679-2.247,5.422-3.375,8.133l8.48,3.779C216.476,442.792,217.566,440.027,218.744,437.324z"/>
<path fill="#FFFFFF" d="M992.683,200.026c-2.146-1.407-5.019-0.807-6.424,1.333c-1.408,2.143-0.81,5.021,1.329,6.428
	c1.596,1.045,3.155,2.165,4.744,3.231l4.406-8.228C995.382,201.882,994.046,200.919,992.683,200.026z"/>
<path fill="#FFFFFF" d="M1184.681,422.312c-1.079-2.325-3.838-3.334-6.165-2.257c-2.323,1.079-3.336,3.839-2.257,6.165
	c2.48,5.349,4.877,10.777,7.188,16.242l7.11-6.866C1188.643,431.14,1186.708,426.686,1184.681,422.312z"/>
<path fill="#FFFFFF" d="M638.224,116.277c-2.546,0.294-4.373,2.596-4.08,5.143c0.273,2.366,2.28,4.109,4.605,4.109
	c0.178,0,0.356-0.009,0.538-0.03c2.014-0.232,4.062-0.385,6.087-0.594l12.177-10.485
	C651.077,114.927,644.618,115.539,638.224,116.277z"/>
<path fill="#FFFFFF" d="M1233.921,638.31c-0.039-2.538-2.109-4.569-4.639-4.569h-0.075c-2.562,0.04-4.605,2.152-4.569,4.715
	c0.046,2.753,0.066,5.512,0.066,8.273v28.52c0,2.562,2.079,4.642,4.642,4.642s4.642-2.079,4.642-4.642v-28.52
	C1233.987,643.918,1233.967,641.111,1233.921,638.31z"/>
<path fill="#FFFFFF" d="M1148.757,357.199c-1.393-2.153-4.264-2.772-6.418-1.378c-2.155,1.392-2.771,4.265-1.378,6.418
	c6.591,10.192,12.903,20.746,18.763,31.37c0.846,1.533,2.436,2.401,4.07,2.401c0.758,0,1.525-0.188,2.239-0.579
	c2.242-1.239,3.058-4.061,1.818-6.306C1161.887,378.312,1155.463,367.571,1148.757,357.199z"/>
<path fill="#FFFFFF" d="M893.827,149.009c-11.504-4.484-23.311-8.613-35.089-12.276c-2.454-0.76-5.047,0.609-5.812,3.055
	c-0.759,2.447,0.607,5.049,3.056,5.811c11.573,3.598,23.171,7.654,34.476,12.059c0.553,0.216,1.121,0.319,1.683,0.319
	c1.858,0,3.611-1.123,4.328-2.958C897.399,152.631,896.215,149.939,893.827,149.009z"/>
<path fill="#FFFFFF" d="M960.936,180.729c-10.748-6.032-21.854-11.764-33.004-17.036c-2.312-1.097-5.08-0.105-6.177,2.212
	c-1.097,2.318-0.108,5.084,2.212,6.18c10.954,5.181,21.866,10.812,32.431,16.74c0.716,0.403,1.495,0.595,2.266,0.595
	c1.623,0,3.2-0.855,4.05-2.372C963.97,184.813,963.172,181.983,960.936,180.729z"/>
<path fill="#FFFFFF" d="M1127.492,326.686c-4.164-5.55-8.491-11.034-12.891-16.452l-7.654,5.317
	c4.481,5.501,8.887,11.064,13.117,16.705c0.913,1.216,2.303,1.857,3.717,1.857c0.968,0,1.946-0.302,2.78-0.928
	C1128.61,331.646,1129.027,328.736,1127.492,326.686z"/>
<path fill="#FFFFFF" d="M1051.802,245.001c-1.922-1.689-4.858-1.499-6.548,0.431c-1.689,1.928-1.496,4.861,0.432,6.55
	c9.12,7.993,18.077,16.409,26.622,25.015c0.907,0.913,2.098,1.371,3.294,1.371c1.182,0,2.363-0.449,3.27-1.348
	c1.819-1.807,1.828-4.746,0.024-6.565C1070.199,261.697,1061.082,253.133,1051.802,245.001z"/>
<g>
	<path fill="#FFFFFF" d="M170.651,748.071c-2.564,0-4.642-2.076-4.642-4.642v-18.566c0-2.565,2.078-4.641,4.642-4.641
		s4.642,2.075,4.642,4.641v18.566C175.293,745.995,173.215,748.071,170.651,748.071z"/>
</g>
<g>
	<g>
		<path fill="#FFFFFF" d="M757.688,57.355c-0.417-0.038-0.837-0.205-1.179-0.514c-0.853-0.757-0.931-2.067-0.176-2.92l26.303-29.614
			c0.755-0.854,2.063-0.928,2.919-0.168c0.858,0.757,0.934,2.064,0.172,2.919L759.429,56.67
			C758.976,57.177,758.322,57.413,757.688,57.355z"/>
	</g>
	<g>
		<path fill="#FFFFFF" d="M791.352,122.283c-0.278-0.319-0.46-0.731-0.499-1.185c-0.091-1.144,0.765-2.138,1.9-2.23l39.483-3.093
			c1.143-0.089,2.137,0.76,2.23,1.902c0.084,1.139-0.765,2.138-1.904,2.226l-39.482,3.091
			C792.396,123.05,791.762,122.766,791.352,122.283z"/>
	</g>
	<g>
		<path fill="#FFFFFF" d="M785.948,85.184c-0.384-0.193-0.707-0.5-0.919-0.91c-0.522-1.018-0.12-2.266,0.897-2.786l35.237-18.08
			c1.019-0.52,2.267-0.121,2.786,0.896c0.521,1.02,0.121,2.267-0.9,2.791L787.815,85.17
			C787.205,85.487,786.517,85.468,785.948,85.184z"/>
	</g>
	<path fill="#FFFFFF" d="M763.617,117.387c0,0-0.303-11.308-4.14-19.968c-4.545-8.307-13.342-15.422-13.342-15.422l8.739,17.693
		L763.617,117.387z"/>
	<path fill="#EBEBEC" d="M670.11,161.498c10.002-2.275,48.833-10.529,92.274-12.216l-8.672-17.554l-86.331,24.973L670.11,161.498z"
		/>
	<path fill="#FFFFFF" d="M720.061,63.59c-30.433,36.706-63.765,64.21-67.427,67.19l14.748,25.921l86.331-24.973l-12.493-25.29
		L720.061,63.59z"/>
	<path fill="#DF5846" d="M667.581,219.993c0,0,7.153,6.115,14.354,3.938c0,0,19.75-8.378,10.98-23.344c0,0-2.742-3.697-6.334-4.451
		c0,0-14.004-5.67-18.261-26.675l-6.367-11.188l-25.425,7.354L667.581,219.993z"/>
	<polygon fill="#F15F4C" points="625.737,146.696 631.346,156.553 636.527,165.626 661.952,158.272 647.854,133.483 	"/>
	<path fill="#F15F4C" d="M751.433,101.507l-20.434-41.37c-1.547-3.143-6.448-0.294-6.448-0.294l21.814,44.167l12.895,26.113
		l5.518-1.597L751.433,101.507z"/>
	<path fill="#DF5846" d="M764.777,128.525l-5.518,1.597l8.92,18.06c0,0,5.234-2.167,3.684-5.303L764.777,128.525z"/>
	<path fill="#EBEBEC" d="M624.396,176.731c4.738,0.212,9.845-1.354,12.066-2.141l-4.379-7.677l-11.373,3.288L624.396,176.731z"/>
	<path fill="#FFFFFF" d="M613.604,157.604l7.107,12.597l11.373-3.288l-10.23-17.931C619.484,150.74,615.733,153.9,613.604,157.604z"
		/>
	<path fill="#DF5846" d="M621.885,176.703l-3.297-5.887l-1.248,0.36C619.443,174.046,621.885,176.703,621.885,176.703z"/>
	<path fill="#F15F4C" d="M612.123,159.283c0,0,1.651,5.749,3.583,9.475c0.476,0.786,1.044,1.612,1.635,2.417l1.248-0.36
		l-1.582-2.829L612.123,159.283z"/>
</g>
<g>
	<polygon fill="#FFFFFF" points="1285.77,743.43 1191.265,743.43 1191.265,870.392 1267.548,870.392 1285.77,852.17 	"/>
	<rect x="1209.955" y="765.401" fill="#183249" width="57.124" height="7.325"/>
	<rect x="1209.955" y="786.962" fill="#183249" width="57.124" height="7.325"/>
	<rect x="1209.955" y="808.522" fill="#183249" width="57.124" height="7.325"/>
	<rect x="1209.955" y="830.08" fill="#183249" width="57.124" height="7.334"/>
	<polygon fill="#A89C80" points="1267.548,870.392 1285.77,852.17 1267.548,852.17 	"/>
	<g>
		<path opacity="0.75" fill="#F8F8D3" d="M1213.373,827.705c-8.896,2.115-14.391,11.045-12.27,19.941
			c2.122,8.893,11.049,14.384,19.941,12.266c0.438-0.104,0.861-0.236,1.281-0.375l-8.657-31.89
			C1213.569,827.672,1213.47,827.678,1213.373,827.705z"/>
		<path opacity="0.75" fill="#E9E9C7" d="M1222.326,859.537c8.126-2.635,13.003-11.108,10.987-19.566
			c-2.094-8.797-10.852-14.251-19.645-12.323L1222.326,859.537z"/>
		<path fill="#EC74BB" d="M1217.21,821.404c-12.374,0-22.403,10.033-22.403,22.404c0,4.705,1.45,9.062,3.929,12.667l-18.639,18.636
			c-2.769,3.506,0,6.35,0,6.35c3.221,3.127,6.493,0.293,6.493,0.293l18.872-18.868c3.42,2.105,7.439,3.323,11.748,3.323
			c12.372,0,22.401-10.032,22.401-22.4C1239.611,831.438,1229.582,821.404,1217.21,821.404z M1217.21,860.365
			c-9.144,0-16.553-7.413-16.553-16.557c0-9.145,7.409-16.554,16.553-16.554c9.142,0,16.554,7.409,16.554,16.554
			C1233.764,852.952,1226.352,860.365,1217.21,860.365z"/>
	</g>
</g>
<g>
	<g>
		<path fill="#EACE02" d="M1126.595,244.763c0-32.831-26.71-59.536-59.539-59.537v119.073
			C1099.885,304.299,1126.595,277.59,1126.595,244.763z"/>
		<path fill="#FEDF00" d="M1007.514,244.763c0,32.829,26.713,59.536,59.542,59.536l0,0V185.226l0,0
			C1034.227,185.226,1007.514,211.932,1007.514,244.763z"/>
		<path fill="#DBD9CB" d="M1139.761,244.763c0-40.089-32.614-72.703-72.705-72.705v13.167c32.829,0.001,59.539,26.707,59.539,59.537
			c0,32.828-26.71,59.536-59.539,59.536v13.169C1107.146,317.468,1139.761,284.852,1139.761,244.763z"/>
		<path fill="#FFFDED" d="M1067.056,304.299c-32.829,0-59.542-26.707-59.542-59.536c0-32.831,26.713-59.537,59.542-59.537l0,0
			v-13.167l0,0c-40.09,0-72.704,32.614-72.704,72.705c0,40.091,32.614,72.705,72.704,72.705l0,0V304.299L1067.056,304.299z"/>
	</g>
	<g>
		<polygon fill="#FFFDED" points="1070.815,250.26 1031.19,250.26 1031.19,242.737 1063.291,242.737 1063.291,195.45 
			1070.815,195.45 		"/>
	</g>
	<g>
		
			<rect x="1064.404" y="255.009" transform="matrix(0.8778 0.479 -0.479 0.8778 255.7714 -488.871)" fill="#FFFDED" width="43.392" height="3.764"/>
	</g>
	<g>
		<rect x="1065.177" y="290.092" fill="#FFFDED" width="3.759" height="5.359"/>
	</g>
	<g>
		<rect x="1114.39" y="244.618" fill="#FFFDED" width="6.268" height="3.759"/>
	</g>
	<g>
		<rect x="1012.663" y="244.618" fill="#FFFDED" width="5.646" height="3.759"/>
	</g>
	<g>
		<path fill="#FFFDED" d="M1073.949,246.498c0,3.811-3.086,6.897-6.894,6.897c-3.813,0-6.901-3.086-6.901-6.897
			c0-3.809,3.088-6.899,6.901-6.899C1070.863,239.599,1073.949,242.688,1073.949,246.498z"/>
	</g>
</g>
<g>
	<polygon fill="#FFFDED" points="1224.278,560.736 1230.477,559.192 1220.528,519.361 1208.142,496.124 	"/>
	<polygon fill="#FFFDED" points="1242.854,519.465 1232.93,559.192 1239.131,560.736 1255.24,496.226 	"/>
	<path fill="#E8C312" d="M1214.047,497.698c0,0,0.027-0.175,0.136-0.505c0.114-0.317,0.281-0.802,0.589-1.362
		c0.157-0.273,0.342-0.587,0.553-0.925c0.221-0.32,0.478-0.665,0.777-1.021c0.311-0.334,0.646-0.716,1.049-1.063
		c0.199-0.187,0.447-0.26,0.713-0.301c0.257-0.05,0.514-0.141,0.785-0.201c0.535-0.136,1.091-0.287,1.689-0.348
		c0.299-0.039,0.596-0.081,0.903-0.124c0.309-0.006,0.623-0.017,0.943-0.025c0.641-0.036,1.287,0.024,1.948,0.104
		c0.675,0.042,1.318,0.219,1.982,0.376c0.681,0.132,1.297,0.406,1.949,0.646c0.665,0.218,1.258,0.556,1.871,0.876
		c0.302,0.16,0.619,0.312,0.912,0.489l0.85,0.571l1.541,1.058c0.489,0.326,1.021,0.733,1.475,1.001
		c0.429,0.24,0.861,0.48,1.287,0.719c0.459,0.185,0.912,0.411,1.359,0.577c0.441,0.104,0.889,0.307,1.306,0.354
		c0.42,0.065,0.834,0.154,1.218,0.127c0.396,0.039,0.759-0.036,1.115-0.075c0.701-0.146,1.351-0.361,1.928-0.721
		c0.14-0.096,0.303-0.135,0.414-0.275c0.1-0.148,0.239-0.237,0.438-0.234c0.387-0.021,0.752-0.117,1.112-0.185
		c0.707-0.184,1.381-0.38,1.934-0.57c0.541-0.212,1.016-0.353,1.323-0.471c0.314-0.106,0.483-0.161,0.483-0.161
		s-0.069,0.713-0.365,1.914c-0.157,0.602-0.372,1.344-0.759,2.168c-0.211,0.402-0.411,0.861-0.71,1.314
		c-0.133,0.248-0.348,0.405-0.602,0.511c-0.235,0.14-0.48,0.275-0.73,0.42c-0.979,0.596-2.225,1.062-3.566,1.315
		c-0.68,0.097-1.381,0.202-2.088,0.156c-0.719,0.021-1.411-0.1-2.118-0.217c-0.71-0.106-1.348-0.366-2.037-0.557
		c-0.658-0.238-1.274-0.538-1.922-0.815c-0.625-0.326-1.245-0.695-1.864-1.052c-0.583-0.359-1.021-0.701-1.541-1.049l-1.466-1.003
		l-0.652-0.449c-0.224-0.131-0.453-0.235-0.677-0.354c-0.45-0.232-0.889-0.5-1.348-0.639c-0.457-0.157-0.895-0.375-1.348-0.444
		c-0.444-0.1-0.88-0.237-1.312-0.252c-0.429-0.052-0.852-0.1-1.26-0.066c-0.205,0.004-0.404,0.007-0.602,0.007
		c-0.199,0.027-0.393,0.058-0.586,0.088c-0.381,0.027-0.743,0.136-1.091,0.224c-0.172,0.045-0.354,0.065-0.499,0.179
		c-0.147,0.106-0.296,0.178-0.492,0.133c-0.384-0.077-0.743-0.074-1.109-0.112c-0.725-0.036-1.401-0.028-1.976,0.011
		c-0.556,0.058-1.046,0.096-1.36,0.151C1214.234,497.664,1214.047,497.698,1214.047,497.698z"/>
	<path fill="none" d="M1253.143,556.771l4.826-22.516l0.985-0.716c24.748-17.959,24.237-45.153,24.231-45.432
		c-2.275-48.087-46.08-49.475-51.071-49.475c-0.193,0-0.303,0.003-0.327,0.003h-0.084h-0.091c-0.012,0-0.121-0.001-0.274-0.003
		v118.138H1253.143z"/>
	<path fill="none" d="M1180.221,488.17c-0.004,0.211-0.402,27.49,24.231,45.37l0.991,0.716l4.823,22.516h21.071V438.634
		c-0.019,0-0.027,0-0.046,0C1226.306,438.634,1182.496,440.021,1180.221,488.17z"/>
	<path fill="#DBD9CB" d="M1289.564,487.87c-1.332-28.25-15.9-41.787-27.891-48.174c-13.306-7.09-26.955-7.453-29.56-7.453
		c-0.188,0-0.33,0.004-0.411,0.004c-0.072,0-0.203-0.004-0.365-0.004v6.391c0.153,0.001,0.263,0.003,0.274,0.003h0.091h0.084
		c0.024,0,0.134-0.003,0.327-0.003c4.991,0,48.796,1.387,51.071,49.475c0.006,0.278,0.517,27.473-24.231,45.432l-0.985,0.716
		l-4.826,22.516h-21.805v6.386h26.969l5.397-25.181C1290.139,518.068,1289.604,489.159,1289.564,487.87z"/>
	<path fill="#FFFDED" d="M1210.267,556.771l-4.823-22.516l-0.991-0.716c-24.634-17.88-24.235-45.158-24.231-45.37
		c2.275-48.149,46.085-49.537,51.071-49.537c0.019,0,0.027,0,0.046,0v-6.391c-0.016,0-0.027,0-0.046,0
		c-2.602,0-16.251,0.363-29.56,7.453c-11.99,6.384-26.556,19.924-27.895,48.23c-0.033,1.236-0.571,30.143,25.87,50.051l5.394,25.181
		h26.236v-6.386H1210.267z"/>
	<path fill="#FFFDED" d="M1224,615.289c0,2.569,2.082,4.648,4.645,4.648h2.693v-5.936H1224V615.289z"/>
	<path fill="#DBD9CB" d="M1234.029,619.938c2.562,0,4.648-2.079,4.648-4.648v-1.287h-7.34v5.936H1234.029z"/>
	<path fill="#FFFDED" d="M1207.504,570.041l-5.515,2.127v2.388l5.515,5.515v1.889l-5.515,2.127v2.385l5.515,5.512v4.623
		c0,8.337,6.76,15.1,15.098,15.1h8.736v-46.3h-23.834V570.041z"/>
	<path fill="#DBD9CB" d="M1240.073,611.705c8.337,0,15.097-6.763,15.097-15.1v-0.665l5.516-5.515v-2.381l-5.516-2.134v-1.886
		l5.516-5.512v-2.384l-5.516-2.131v-8.594h-23.832v46.3H1240.073z"/>
</g>
<path fill="#FFFFFF" d="M263.103,217.681c-2.564,0.708-5.17,0.607-7.532-0.136c-1.156,3.508-1.835,7.203-1.991,10.968
	c5.491,0.377,10.391,4.143,11.939,9.738c1.542,5.603-0.736,11.341-5.261,14.476c2.097,3.189,4.601,6.042,7.429,8.485
	c1.633-1.825,3.798-3.228,6.341-3.929c7.086-1.957,14.429,2.2,16.38,9.297c0.417,1.511,0.539,3.02,0.434,4.518
	c3.695,0.329,7.497,0.159,11.304-0.547c-1.059-6.609,3.008-13.097,9.598-14.919c4.549-1.239,9.205,0.018,12.453,2.977
	c2.579-2.706,4.781-5.742,6.535-9.017c-2.94-1.689-5.25-4.481-6.208-8.014c-1.97-7.081,2.197-14.416,9.288-16.375
	c0.483-0.134,0.959-0.232,1.434-0.311c-0.246-1.854-0.607-3.708-1.12-5.582c-0.529-1.834-1.156-3.619-1.892-5.347
	c-0.462,0.186-0.911,0.348-1.397,0.475c-7.082,1.959-14.413-2.202-16.366-9.292c-0.978-3.528-0.438-7.12,1.224-10.067
	c-3.182-1.911-6.621-3.406-10.226-4.389c-1.291,4.196-4.632,7.671-9.174,8.928c-6.604,1.822-13.408-1.663-15.893-7.869
	c-3.653,1.333-7.009,3.137-10.018,5.343c0.884,1.247,1.582,2.65,2.013,4.205C274.357,208.391,270.191,215.731,263.103,217.681z
	 M308.301,206.913c12.799,7.283,17.282,23.555,10.008,36.355c-7.278,12.797-23.552,17.277-36.355,10.005
	c-12.797-7.272-17.273-23.551-10.005-36.355C279.227,204.121,295.499,199.647,308.301,206.913z"/>
<path fill="#FFFFFF" d="M333.514,228.036c-1.709,5.516-2.674,11.298-2.812,17.181c8.563,0.447,16.301,6.193,18.863,14.9
	c2.552,8.706-0.861,17.73-7.846,22.732c3.347,4.928,7.332,9.316,11.812,13.072c2.514-2.898,5.843-5.137,9.812-6.317
	c11.013-3.22,22.574,3.087,25.811,14.103c0.682,2.368,0.917,4.726,0.778,7.053c5.785,0.44,11.705,0.085,17.645-1.145
	c-1.836-10.291,4.345-20.485,14.603-23.513c7.077-2.081,14.366-0.197,19.546,4.318c3.947-4.282,7.298-9.079,9.948-14.229
	c-4.626-2.569-8.298-6.875-9.917-12.356c-3.217-11.015,3.098-22.585,14.109-25.802c0.758-0.224,1.499-0.376,2.241-0.503
	c-0.423-2.901-1.058-5.808-1.881-8.676c-0.866-2.892-1.898-5.654-3.101-8.316c-0.697,0.282-1.41,0.541-2.153,0.763
	c-11.043,3.235-22.573-3.082-25.817-14.097c-1.607-5.486-0.837-11.102,1.667-15.753c-5.016-2.907-10.412-5.145-16.068-6.604
	c-1.908,6.587-7.035,12.105-14.116,14.177c-10.244,3.018-20.957-2.265-25.013-11.886c-5.657,2.179-10.844,5.083-15.499,8.609
	c1.426,1.91,2.543,4.104,3.265,6.503c3.238,11.029-3.083,22.573-14.095,25.811C341.288,229.226,337.222,229.139,333.514,228.036z
	 M416.411,210.26c20.182,11.466,27.244,37.12,15.772,57.297c-11.468,20.18-37.12,27.242-57.296,15.772
	c-20.18-11.465-27.237-37.117-15.771-57.297C370.581,205.853,396.239,198.791,416.411,210.26z"/>
<path fill="#C7C7C7" d="M374.887,283.329c20.176,11.469,45.829,4.407,57.296-15.772c11.471-20.177,4.409-45.831-15.772-57.297
	c-20.172-11.469-45.83-4.407-57.295,15.772C347.65,246.212,354.708,271.864,374.887,283.329z M385.146,214.137
	c18.077-5.291,37.023,5.053,42.327,23.143c5.293,18.075-5.057,37.007-23.122,42.312c-18.098,5.312-37.042-5.042-42.335-23.118
	C356.717,238.393,367.061,219.433,385.146,214.137z"/>
<path fill="#C7C7C7" d="M281.954,253.274c12.803,7.272,29.077,2.792,36.355-10.005c7.273-12.8,2.791-29.073-10.008-36.355
	c-12.802-7.266-29.075-2.792-36.353,10.005C264.681,229.723,269.157,246.002,281.954,253.274z M288.77,209.176
	c11.625-3.208,23.66,3.614,26.864,15.25c3.198,11.628-3.614,23.651-15.248,26.87c-11.634,3.202-23.657-3.627-26.87-15.254
	C270.305,224.411,277.134,212.384,288.77,209.176z"/>
<g>
	<g>
		<g>
			<polygon fill="#CCCCCC" points="191.596,545.035 174.888,545.035 174.888,583.282 191.596,584.467 			"/>
		</g>
		<g>
			<path fill="#FFFFFF" d="M183.012,568.076c0.079,0,0.151,0.019,0.228,0.021V466.261c-0.077,0.004-0.149,0.023-0.228,0.023
				c-2.288,0-4.143-1.857-4.143-4.145v-7.36h-10.122v7.36c0,2.288-1.857,4.145-4.147,4.145c-2.286,0-4.145-1.857-4.145-4.145v-7.193
				c-9.924,1.218-17.611,9.661-17.611,19.917v0.517h28.643c2.286,0,4.145,1.854,4.145,4.143c0,2.291-1.858,4.146-4.145,4.146
				h-28.643v6.773h28.643c2.286,0,4.145,1.858,4.145,4.146c0,2.288-1.858,4.142-4.145,4.142h-28.643v6.778h28.643
				c2.286,0,4.145,1.855,4.145,4.146c0,2.285-1.858,4.141-4.145,4.141h-28.643v6.777h28.643c2.286,0,4.145,1.853,4.145,4.143
				c0,2.288-1.858,4.144-4.145,4.144h-28.643v6.774h28.643c2.286,0,4.145,1.855,4.145,4.144c0,2.29-1.858,4.146-4.145,4.146h-28.643
				v6.775h28.643c2.286,0,4.145,1.855,4.145,4.143s-1.858,4.143-4.145,4.143h-28.643v0.518c0,10.256,7.688,18.695,17.611,19.919
				v-7.194c0-2.288,1.858-4.146,4.145-4.146c2.291,0,4.147,1.858,4.147,4.146v7.361h10.122v-7.361
				C178.869,569.935,180.725,568.076,183.012,568.076z"/>
		</g>
		<g>
			<path fill="#FFFFFF" d="M194.54,498.729c-2.287,0-4.144-1.854-4.144-4.142c0-2.287,1.857-4.146,4.144-4.146h28.641v-6.773H194.54
				c-2.287,0-4.144-1.855-4.144-4.146c0-2.289,1.857-4.143,4.144-4.143h28.641v-0.517c0-10.256-7.69-18.699-17.616-19.917v7.193
				c0,2.288-1.855,4.145-4.145,4.145s-4.143-1.857-4.143-4.145v-7.36h-10.122v7.36c0,2.208-1.734,4.001-3.916,4.122v101.837
				c2.182,0.124,3.916,1.913,3.916,4.125v7.361h10.122v-7.361c0-2.288,1.854-4.146,4.143-4.146s4.145,1.858,4.145,4.146v7.194
				c9.925-1.224,17.616-9.663,17.616-19.919v-0.518H194.54c-2.287,0-4.144-1.855-4.144-4.143s1.857-4.143,4.144-4.143h28.641v-6.775
				H194.54c-2.287,0-4.144-1.855-4.144-4.146c0-2.288,1.857-4.144,4.144-4.144h28.641v-6.774H194.54
				c-2.287,0-4.144-1.855-4.144-4.144c0-2.29,1.857-4.143,4.144-4.143h28.641v-6.777H194.54c-2.287,0-4.144-1.855-4.144-4.141
				c0-2.29,1.857-4.146,4.144-4.146h28.641v-6.778H194.54z"/>
		</g>
		<g>
			<path fill="#E0E0E0" d="M175.631,479.522c0-2.289-1.858-4.143-4.145-4.143h-28.643v8.289h28.643
				C173.773,483.668,175.631,481.812,175.631,479.522z"/>
		</g>
		<g>
			<path fill="#E0E0E0" d="M175.631,494.587c0-2.287-1.858-4.146-4.145-4.146h-28.643v8.287h28.643
				C173.773,498.729,175.631,496.875,175.631,494.587z"/>
		</g>
		<g>
			<path fill="#E0E0E0" d="M175.631,509.652c0-2.29-1.858-4.146-4.145-4.146h-28.643v8.286h28.643
				C173.773,513.793,175.631,511.938,175.631,509.652z"/>
		</g>
		<g>
			<path fill="#E0E0E0" d="M175.631,524.713c0-2.29-1.858-4.143-4.145-4.143h-28.643v8.286h28.643
				C173.773,528.856,175.631,527.001,175.631,524.713z"/>
		</g>
		<g>
			<path fill="#E0E0E0" d="M175.631,539.774c0-2.288-1.858-4.144-4.145-4.144h-28.643v8.289h28.643
				C173.773,543.92,175.631,542.064,175.631,539.774z"/>
		</g>
		<g>
			<path fill="#E0E0E0" d="M175.631,554.838c0-2.287-1.858-4.143-4.145-4.143h-28.643v8.285h28.643
				C173.773,558.98,175.631,557.125,175.631,554.838z"/>
		</g>
		<g>
			<path fill="#BDBDBD" d="M190.396,479.522c0,2.291,1.857,4.146,4.144,4.146h28.641v-8.289H194.54
				C192.253,475.379,190.396,477.233,190.396,479.522z"/>
		</g>
		<g>
			<path fill="#BDBDBD" d="M190.396,494.587c0,2.288,1.857,4.142,4.144,4.142h28.641v-8.287H194.54
				C192.253,490.441,190.396,492.3,190.396,494.587z"/>
		</g>
		<g>
			<path fill="#BDBDBD" d="M190.396,509.652c0,2.285,1.857,4.141,4.144,4.141h28.641v-8.286H194.54
				C192.253,505.507,190.396,507.362,190.396,509.652z"/>
		</g>
		<g>
			<path fill="#BDBDBD" d="M201.421,466.284c2.289,0,4.145-1.857,4.145-4.145v-7.193c-0.81-0.098-1.632-0.167-2.469-0.167h-5.819
				v7.36C197.278,464.427,199.132,466.284,201.421,466.284z"/>
		</g>
		<g>
			<path fill="#BDBDBD" d="M183.24,466.261c2.182-0.121,3.916-1.914,3.916-4.122v-7.36h-3.916V466.261z"/>
		</g>
		<g>
			<path fill="#E0E0E0" d="M183.012,466.284c0.079,0,0.151-0.019,0.228-0.023v-11.481h-4.371v7.36
				C178.869,464.427,180.725,466.284,183.012,466.284z"/>
		</g>
		<g>
			<path fill="#E0E0E0" d="M164.6,466.284c2.291,0,4.147-1.857,4.147-4.145v-7.36h-5.818c-0.837,0-1.661,0.068-2.474,0.167v7.193
				C160.456,464.427,162.314,466.284,164.6,466.284z"/>
		</g>
		<g>
			<path fill="#BDBDBD" d="M201.421,568.076c-2.289,0-4.143,1.858-4.143,4.146v7.361h5.819c0.837,0,1.659-0.066,2.469-0.167v-7.194
				C205.565,569.935,203.71,568.076,201.421,568.076z"/>
		</g>
		<g>
			<path fill="#BDBDBD" d="M183.24,568.098v11.486h3.916v-7.361C187.156,570.011,185.422,568.222,183.24,568.098z"/>
		</g>
		<g>
			<path fill="#E0E0E0" d="M183.24,568.098c-0.077-0.003-0.149-0.021-0.228-0.021c-2.288,0-4.143,1.858-4.143,4.146v7.361h4.371
				V568.098z"/>
		</g>
		<g>
			<path fill="#E0E0E0" d="M164.6,568.076c-2.286,0-4.145,1.858-4.145,4.146v7.194c0.813,0.101,1.636,0.167,2.474,0.167h5.818
				v-7.361C168.748,569.935,166.891,568.076,164.6,568.076z"/>
		</g>
		<g>
			<path fill="#BDBDBD" d="M190.396,524.713c0,2.288,1.857,4.144,4.144,4.144h28.641v-8.286H194.54
				C192.253,520.57,190.396,522.423,190.396,524.713z"/>
		</g>
		<g>
			<path fill="#BDBDBD" d="M190.396,539.774c0,2.29,1.857,4.146,4.144,4.146h28.641v-8.289H194.54
				C192.253,535.631,190.396,537.486,190.396,539.774z"/>
		</g>
		<g>
			<path fill="#BDBDBD" d="M190.396,554.838c0,2.287,1.857,4.143,4.144,4.143h28.641v-8.285H194.54
				C192.253,550.695,190.396,552.551,190.396,554.838z"/>
		</g>
		<g>
			<g>
				<path fill="#E0E0E0" d="M186.464,622.813h-6.447c-28.384,0-51.48-23.087-51.48-51.474v-54.199c0-2.773,2.25-5.02,5.022-5.02
					s5.022,2.246,5.022,5.02v54.199c0,22.849,18.587,41.436,41.436,41.436h6.447c22.851,0,41.435-18.587,41.435-41.436v-54.199
					c0-2.773,2.249-5.02,5.021-5.02c2.774,0,5.022,2.246,5.022,5.02v54.199C237.943,599.727,214.85,622.813,186.464,622.813z"/>
			</g>
		</g>
		<g>
			<polygon fill="#E0E0E0" points="174.888,583.282 174.888,652.107 183.24,652.107 183.24,583.875 			"/>
		</g>
		<g>
			<polygon fill="#D1D1D1" points="191.596,584.467 183.24,583.875 183.24,652.107 191.596,652.107 			"/>
		</g>
	</g>
	<g>
		<path fill="#FFFFFF" d="M108.695,572.66c-1.021,0-2.041-0.39-2.825-1.157c-20.792-20.527-19.518-45.019-19.359-47.186
			c0.932-28.199,18.802-43.878,19.563-44.532c1.682-1.448,4.223-1.256,5.67,0.431c1.448,1.678,1.257,4.215-0.42,5.663
			c-0.26,0.224-16.002,14.264-16.777,38.787l-0.012,0.212c-0.018,0.211-1.55,22.603,16.982,40.9c1.583,1.559,1.599,4.106,0.04,5.684
			C110.77,572.259,109.73,572.66,108.695,572.66z"/>
	</g>
	<g>
		<path fill="#FFFFFF" d="M90.467,591.108c-1,0-2.003-0.371-2.783-1.117c-25.723-24.683-26.905-56.424-26.958-59.041
			c-2.582-37.576,20.057-62.059,21.023-63.083c1.521-1.617,4.069-1.692,5.686-0.169c1.613,1.523,1.69,4.064,0.172,5.681l0,0
			c-0.213,0.227-21.231,23.102-18.847,57.118l0.008,0.235c0.004,0.297,0.718,30.647,24.484,53.45
			c1.602,1.541,1.657,4.086,0.119,5.688C92.581,590.695,91.525,591.108,90.467,591.108z"/>
	</g>
	<g>
		<path fill="#FFFFFF" d="M258.972,572.66c-1.04,0-2.078-0.401-2.865-1.199c-1.56-1.577-1.543-4.125,0.038-5.684
			c18.536-18.298,17.004-40.689,16.986-40.913l-0.014-0.199c-0.784-24.761-16.608-38.643-16.767-38.782
			c-1.686-1.447-1.878-3.985-0.429-5.667c1.446-1.687,3.987-1.878,5.67-0.431c0.762,0.654,18.631,16.333,19.565,44.532
			c0.157,2.167,1.429,26.658-19.358,47.186C261.013,572.271,259.993,572.66,258.972,572.66z"/>
	</g>
	<g>
		<path fill="#FFFFFF" d="M277.196,591.108c-1.058,0-2.112-0.413-2.901-1.238c-1.538-1.602-1.485-4.146,0.118-5.688
			c23.765-22.803,24.478-53.153,24.481-53.456l0.013-0.229c2.391-34.161-18.632-56.887-18.844-57.112
			c-1.526-1.617-1.449-4.164,0.166-5.687c1.617-1.523,4.164-1.448,5.686,0.169c0.967,1.024,23.608,25.507,21.021,63.083
			c-0.053,2.617-1.233,34.358-26.955,59.041C279.203,590.737,278.198,591.108,277.196,591.108z"/>
	</g>
</g>
<g>
	<path fill="#FFFFFF" d="M251.527,870.972c4.798-6.473,7.601-14.275,7.601-22.67c0-22.428-20.003-40.613-44.677-40.613
		c-24.676,0-44.679,18.186-44.679,40.613c0,22.435,20.003,40.619,44.679,40.619c5.753,0,11.254-0.991,16.304-2.792
		c11.352,13.623,31.863,5.597,31.863,5.597C255.951,887.773,252.833,877.239,251.527,870.972z"/>
	<path fill="#F15F4C" d="M249.309,892.088c-7.301-0.003-13.028-2.436-17.026-7.228l-0.89-1.064l-1.303,0.466
		c-4.98,1.771-10.241,2.671-15.639,2.671c-23.543,0-42.694-17.327-42.694-38.631c0-21.298,19.151-38.631,42.694-38.631
		c23.54,0,42.692,17.333,42.692,38.631c0,7.693-2.496,15.128-7.212,21.491l-0.529,0.713l0.18,0.874
		c1.354,6.481,3.944,14.616,8.837,19.542c-2.309,0.571-5.56,1.166-9.109,1.166H249.309z"/>
	<circle fill="#FFFFFF" cx="190.363" cy="850.88" r="4.154"/>
	<circle fill="#FFFFFF" cx="215.086" cy="850.88" r="4.154"/>
	<circle fill="#FFFFFF" cx="239.815" cy="850.88" r="4.154"/>
</g>
<g>
	<path fill="#FFFFFF" d="M104.627,829.67c-5.826-7.863-9.227-17.334-9.227-27.521c0-27.229,24.279-49.304,54.231-49.304
		c29.954,0,54.233,22.074,54.233,49.304s-24.279,49.305-54.233,49.305c-6.985,0-13.662-1.206-19.793-3.391
		c-13.778,16.532-38.676,6.793-38.676,6.793C99.253,850.061,103.042,837.272,104.627,829.67z"/>
	<path fill="#FEDF00" d="M107.32,855.298c8.86-0.003,15.813-2.952,20.667-8.778l1.077-1.288l1.585,0.562
		c6.043,2.154,12.43,3.245,18.983,3.245c28.576,0,51.823-21.031,51.823-46.89c0-25.857-23.247-46.896-51.823-46.896
		c-28.574,0-51.823,21.038-51.823,46.896c0,9.341,3.026,18.357,8.753,26.082l0.645,0.87l-0.219,1.058
		c-1.644,7.872-4.79,17.744-10.726,23.721c2.8,0.695,6.746,1.418,11.055,1.418C107.317,855.298,107.317,855.298,107.32,855.298z"/>
	<path fill="#FFFFFF" d="M173.829,805.277c0,2.783,2.259,5.04,5.042,5.04c2.786,0,5.043-2.257,5.043-5.04
		c0-2.786-2.257-5.047-5.043-5.047C176.087,800.23,173.829,802.491,173.829,805.277z"/>
	<circle fill="#FFFFFF" cx="148.856" cy="805.277" r="5.042"/>
	<path fill="#FFFFFF" d="M113.799,805.277c0,2.783,2.26,5.04,5.043,5.04c2.786,0,5.045-2.257,5.045-5.04
		c0-2.786-2.259-5.047-5.045-5.047C116.059,800.23,113.799,802.491,113.799,805.277z"/>
</g>
<path fill="#FFFFFF" d="M699.996,250.782c-24.667,0-44.667,19.999-44.667,44.669c0,24.67,20,44.668,44.667,44.668
	c24.67,0,44.668-19.999,44.668-44.668C744.664,270.781,724.666,250.782,699.996,250.782z M684.445,319.367v-47.835l41.429,23.919
	L684.445,319.367z"/>
</svg>
