<?xml version="1.0" ?><!DOCTYPE svg  PUBLIC '-//W3C//DTD SVG 1.1//EN'  'http://www.w3.org/Graphics/SVG/1.1/DTD/svg11.dtd'><svg enable-background="new 0 0 512 512" height="512px" id="Layer_1" version="1.1" viewBox="0 0 512 512" width="512px" xml:space="preserve" xmlns="http://www.w3.org/2000/svg" xmlns:xlink="http://www.w3.org/1999/xlink"><path d="M314,205v-21h-47v-22h-21v22h-47v83h47v42h-47v20h47v22h21v-22h47v-83h-47v-41H314z M246,246h-27v-41h27V246  z M294,267v42h-27v-42H294z" fill="#FFCA71"/><path d="M386.163,126.994c-71.49-71.49-187.825-71.49-259.315,0.009c-71.49,71.482-71.481,187.808,0.009,259.297  c71.501,71.499,187.816,71.499,259.307,0.019C457.653,314.818,457.661,198.494,386.163,126.994z M152.369,360.797  c-52.962-52.963-56.961-136.49-12.24-194.218l25.115,25.125l26.305-26.306l-25.115-25.115  c57.727-44.736,141.264-40.748,194.227,12.215c52.961,52.97,56.959,136.508,12.223,194.234l-25.107-25.106l-26.305,26.295  l25.116,25.116C288.86,417.766,205.331,413.758,152.369,360.797z" fill="#D0583B"/></svg>