<?xml version="1.0" encoding="utf-8"?>
<!-- Generator: Adobe Illustrator 16.0.4, SVG Export Plug-In . SVG Version: 6.00 Build 0)  -->
<!DOCTYPE svg PUBLIC "-//W3C//DTD SVG 1.1//EN" "http://www.w3.org/Graphics/SVG/1.1/DTD/svg11.dtd">
<svg version="1.1" id="Layer_1" xmlns="http://www.w3.org/2000/svg" xmlns:xlink="http://www.w3.org/1999/xlink" x="0px" y="0px"
	 width="512px" height="512px" viewBox="0 0 512 512" enable-background="new 0 0 512 512" xml:space="preserve">
<g id="XMLID_1_">
	<g>
		<circle fill="#7068FF" cx="258" cy="256.5" r="231"/>
	</g>
	<g>
		<circle fill="none" stroke="#7068FF" stroke-width="7" stroke-miterlimit="10" cx="258" cy="256.5" r="231"/>
	</g>
</g>
<path fill="#7068FF" stroke="#FFFFFF" stroke-width="7" stroke-miterlimit="10" d="M107,364.976c0,0,17.812-2.64,47.823,2.77
	c33.812,6.093,86.609,21.11,99.171,23.749c12.562,2.639,22.479-5.277,31.734-8.576s27.768-4.618,42.975-12.535
	c13.85-7.209,27.045-15.859,40.307-24.074c11.178-6.922,25.332-13.351,34.934-22.239c-3.965-6.237-15.172-11.2-22.517-11.208
	c-8.761,0-13.831,4.618-23.747,9.235c-9.918,4.618-26.992,10.44-26.992,13.983c0,11.215-9.918,9.895-24.463,11.875
	c-14.545,1.979-32.396-1.32-50.908-2.64c-18.512-1.32-36.363,5.276-36.363,5.276s12.562-11.874,31.074-10.555
	c18.512,1.318,36.363,4.617,50.908,2.638c14.545-1.979,24.463-0.659,24.463-11.874s-13.224-15.832-28.43-15.832
	c-15.205,0-42.312,0-50.247-2.639s-28.854-19.833-46.047-19.262c-36.449,1.213-57.938,19.649-62.669,21.771
	C127.116,319.716,107,314.18,107,314.18V364.976z"/>
<path fill="#7068FF" stroke="#FFFFFF" stroke-width="7" stroke-miterlimit="10" d="M343.798,285.753
	c0-5.028-4.077-9.106-9.108-9.106H231.471c-5.03,0-9.108,4.078-9.108,9.106l0,0c0,5.03,4.078,9.108,9.108,9.108h103.218
	C339.721,294.861,343.798,290.783,343.798,285.753L343.798,285.753z"/>
<path fill="#7068FF" stroke="#FFFFFF" stroke-width="7" stroke-miterlimit="10" d="M343.798,255.395c0-5.03-4.077-9.107-9.108-9.107
	H231.471c-5.03,0-9.108,4.077-9.108,9.107l0,0c0,5.03,4.078,9.107,9.108,9.107h103.218
	C339.721,264.502,343.798,260.425,343.798,255.395L343.798,255.395z"/>
<path fill="#7068FF" stroke="#FFFFFF" stroke-width="7" stroke-miterlimit="10" d="M280.045,94.509
	c-38.564,0-69.825,31.262-69.825,69.825s31.261,69.824,69.825,69.824c38.562,0,69.824-31.261,69.824-69.824
	S318.607,94.509,280.045,94.509z"/>
<path fill="#7068FF" stroke="#FFFFFF" stroke-width="5" stroke-miterlimit="10" d="M283.59,202.811V216h-7.938v-12.683
	c-7.307-0.126-14.742-2.409-19.151-5.581l3.024-8.497c4.409,2.917,10.96,5.456,18.017,5.456c8.946,0,14.995-5.201,14.995-12.43
	c0-6.977-4.915-11.29-14.236-15.093c-12.854-5.074-20.792-11.034-20.792-22.069c0-10.528,7.436-18.518,18.899-20.419V112h7.941
	v12.303c7.432,0.253,12.597,2.282,16.378,4.438l-3.15,8.372c-2.645-1.522-7.812-4.439-15.876-4.439
	c-9.699,0-13.354,5.834-13.354,11.034c0,6.469,4.66,9.767,15.623,14.458c12.978,5.326,19.53,11.796,19.53,23.084
	C303.497,191.395,296.568,200.781,283.59,202.811z"/>
</svg>
