<?xml version="1.0" encoding="utf-8"?>
<!-- Generator: Adobe Illustrator 16.0.4, SVG Export Plug-In . SVG Version: 6.00 Build 0)  -->
<!DOCTYPE svg PUBLIC "-//W3C//DTD SVG 1.1//EN" "http://www.w3.org/Graphics/SVG/1.1/DTD/svg11.dtd">
<svg version="1.1" id="Layer_1" xmlns="http://www.w3.org/2000/svg" xmlns:xlink="http://www.w3.org/1999/xlink" x="0px" y="0px"
	 width="512px" height="512px" viewBox="0 0 512 512" enable-background="new 0 0 512 512" xml:space="preserve">
<g id="XMLID_1_">
	<g>
		<circle fill="#FFC300" cx="256" cy="256" r="231"/>
	</g>
	<g>
		<circle fill="none" stroke="#FFC300" stroke-width="8" stroke-miterlimit="10" cx="256" cy="256" r="231"/>
	</g>
</g>
<path fill="#FFC300" stroke="#FFFFFF" stroke-width="8" stroke-miterlimit="10" d="M349.475,215.636L349.475,215.636
	c0,37.604-29.812,69.099-70.105,78.073v69.928h46.736c4.307,0,7.789,3.016,7.789,6.728c0,3.719-3.482,6.728-7.789,6.728h-140.21
	c-4.309,0-7.789-3.009-7.789-6.728c0-3.712,3.48-6.728,7.789-6.728h46.737v-69.928c-40.294-8.975-70.105-40.468-70.105-78.073l0,0
	c-30.116,0-54.527-21.081-54.527-47.091V155.09c0-3.712,3.48-6.727,7.79-6.727h46.737v-6.728c0-11.148-10.459-20.182-23.369-20.182
	l0,0c-4.309,0-7.79-3.016-7.79-6.727c0-3.712,3.48-6.728,7.79-6.728l0,0l0,0h233.684l0,0l0,0c4.307,0,7.79,3.016,7.79,6.728
	c0,3.711-3.483,6.727-7.79,6.727l0,0c-12.908,0-23.367,9.033-23.367,20.182l0,0v6.728h46.736c4.305,0,7.789,3.015,7.789,6.727
	v13.455C404,194.555,379.59,215.636,349.475,215.636z M248.21,363.637h15.579v-67.615c-2.57,0.185-5.157,0.342-7.789,0.342
	s-5.218-0.157-7.79-0.342V363.637z M123.579,161.818v6.727c0,18.582,17.431,33.636,38.947,33.636v-40.363H123.579z M170.145,121.455
	c4.922,5.637,7.961,12.574,7.961,20.182l0,0v74c0,37.155,34.874,67.273,77.895,67.273c43.011,0,77.896-30.118,77.896-67.273v-74l0,0
	l0,0c0-7.607,3.043-14.545,7.957-20.182H170.145z M388.421,161.818h-38.946v40.363c21.512,0,38.946-15.054,38.946-33.636V161.818z
	 M162.526,390.545h186.947c4.307,0,7.791,3.016,7.791,6.729c0,3.719-3.484,6.728-7.791,6.728H162.526c-4.31,0-7.79-3.009-7.79-6.728
	C154.737,393.561,158.217,390.545,162.526,390.545z"/>
</svg>
