<?xml version="1.0" encoding="utf-8"?>
<!-- Generator: Adobe Illustrator 16.0.4, SVG Export Plug-In . SVG Version: 6.00 Build 0)  -->
<!DOCTYPE svg PUBLIC "-//W3C//DTD SVG 1.1//EN" "http://www.w3.org/Graphics/SVG/1.1/DTD/svg11.dtd">
<svg version="1.1"
	 id="svg2" xmlns:dc="http://purl.org/dc/elements/1.1/" xmlns:cc="http://creativecommons.org/ns#" xmlns:rdf="http://www.w3.org/1999/02/22-rdf-syntax-ns#" xmlns:svg="http://www.w3.org/2000/svg" xmlns:sodipodi="http://sodipodi.sourceforge.net/DTD/sodipodi-0.dtd" xmlns:inkscape="http://www.inkscape.org/namespaces/inkscape" sodipodi:docname="dessin-rose.svg" inkscape:version="0.91 r13725"
	 xmlns="http://www.w3.org/2000/svg" xmlns:xlink="http://www.w3.org/1999/xlink" x="0px" y="0px" width="1379.429px"
	 height="608px" viewBox="0 130.286 1379.429 608" enable-background="new 0 130.286 1379.429 608" xml:space="preserve">
<sodipodi:namedview  fit-margin-left="0" fit-margin-top="0" id="base" pagecolor="#ffffff" bordercolor="#666666" borderopacity="1.0" inkscape:zoom="0.49497475" inkscape:cx="664.07403" inkscape:cy="1030.3984" showgrid="false" fit-margin-bottom="0" fit-margin-right="0" inkscape:window-width="2495" inkscape:window-height="1416" inkscape:window-x="65" inkscape:pageopacity="0.0" inkscape:window-y="24" inkscape:window-maximized="1" inkscape:document-units="px" inkscape:current-layer="layer1" inkscape:pageshadow="2" inkscape:object-nodes="false">
	</sodipodi:namedview>
<g id="layer1" transform="translate(547.14288,-89.505058)" inkscape:label="Calque 1" inkscape:groupmode="layer">
	<rect id="rect4173" x="-547.143" y="219.791" fill="#E36F76" width="1379.429" height="608"/>
	<path id="path4424" inkscape:connector-curvature="0" display="none" opacity="0.1" enable-background="new    " d="
		M319.954,323.568L219.913,536.775l-43.393-43.391l-96.974-3.231l-25.861,17.778l9.676,9.675l-98.172-56.68L80.787,576.525
		l-13.139,11.41l370.14,370.141h394.498V835.9L319.954,323.568L319.954,323.568z"/>
	<path id="path4166" inkscape:connector-curvature="0" fill="#999999" d="M67.647,649.935l108.874-94.551l-96.974-3.232
		l-25.86,17.779L67.647,649.935z"/>
	<path id="rect4136" sodipodi:nodetypes="cccc" inkscape:connector-curvature="0" fill="#F2F2F2" d="M319.954,385.569
		L193.62,654.812L-34.812,522.927L319.954,385.569z"/>
	<path id="path4141" inkscape:connector-curvature="0" fill="#CCCCCC" d="M319.954,385.569L22.575,556.06l45.072,93.875v-67.854
		L319.954,385.569L319.954,385.569z"/>
	<g id="g4479" display="none">
		
			<linearGradient id="path4169_1_" gradientUnits="userSpaceOnUse" x1="-372.8807" y1="125.634" x2="-438.9388" y2="160.3639" gradientTransform="matrix(0.8 0 0 -0.8 429.3292 798.6198)">
			<stop  offset="0" style="stop-color:#FFFFFF"/>
			<stop  offset="1" style="stop-color:#FFFFFF;stop-opacity:0"/>
		</linearGradient>
		<path id="path4169" inkscape:connector-curvature="0" display="inline" fill="url(#path4169_1_)" d="M96.32,671.291l-0.062,3.039
			l0.084,0.002l1.879,0.152l1.86,0.26l1.843,0.359l0.009,0.002l0.038,0.008l0.131-0.672l0.578-2.281l-0.044-0.012l-0.039-0.012
			l-0.042-0.008l-1.938-0.379l-0.042-0.01l-0.042-0.004l-1.952-0.271l-0.042-0.006l-0.045-0.004l-1.965-0.156l-0.045-0.004
			l-0.045-0.002L96.32,671.291L96.32,671.291z M83.792,673.127l-1.686,0.639l-0.047,0.018l-0.046,0.021l-1.925,0.879l-0.045,0.021
			L80,674.728l-1.903,1.023l1.442,2.678l1.85-0.998l1.851-0.846l1.631-0.617L83.792,673.127L83.792,673.127z M114.346,676.814
			l-1.573,2.602l1.506,0.912l1.601,1.066h0.001l1.583,1.162l0.008,0.006l0.171,0.137l1.906-2.369l-0.179-0.143l-0.026-0.021
			l-0.028-0.02l-1.636-1.201l-0.028-0.021l-0.028-0.018l-1.684-1.127l-0.028-0.018l-0.029-0.02l-1.535-0.926V676.814z
			 M128.354,689.23l-2.453,1.797l1.085,1.482l1.079,1.619l0.991,1.645l0.009,0.018l0.073,0.133l2.674-1.447l-0.081-0.15
			l-0.018-0.029l-0.019-0.031l-1.041-1.73l-0.017-0.029l-0.02-0.029l-1.123-1.686l-0.019-0.027l-0.021-0.027L128.354,689.23
			L128.354,689.23z M136.494,706.058l-2.942,0.771l0.282,1.072l0.008,0.029l0.004,0.016l0.321,1.408l0.004,0.016l0.008,0.029
			l0.284,1.455l0.002,0.002l0.234,1.408l0.047,0.334l3.011-0.408l-0.047-0.334l-0.003-0.023l-0.004-0.021l-0.248-1.5l-0.003-0.021
			l-0.007-0.023l-0.295-1.5l-0.005-0.023l-0.005-0.021l-0.344-1.5l-0.005-0.021l-0.005-0.023L136.494,706.058L136.494,706.058z"/>
		<path id="path4463" inkscape:connector-curvature="0" display="inline" fill="#FFFFFF" d="M41.846,593.662l-0.672,0.363
			l-0.016,0.01l-0.014,0.008l-2.114,1.201l-0.014,0.01l-0.015,0.008l-2.084,1.246l-0.015,0.01l-0.014,0.008l-0.386,0.242
			l1.617,2.574l0.355-0.225l0.007-0.004l0.021-0.014l2.057-1.229l2.057-1.17l0.027-0.016l0.646-0.348L41.846,593.662L41.846,593.662
			z M26.393,603.799l-1.49,1.172l-0.011,0.012l-0.013,0.01l-1.862,1.531l-0.013,0.01l-0.013,0.01l-1.344,1.154l1.979,2.307
			l1.32-1.135l0.023-0.018l1.812-1.492l0.011-0.008l0.015-0.012l1.466-1.152L26.393,603.799L26.393,603.799z M12.781,616.24
			l-0.334,0.354l-0.012,0.012l-0.011,0.014l-1.611,1.773l-0.011,0.012l-0.009,0.012l-1.572,1.807l-0.011,0.014l-0.01,0.012
			l-0.513,0.613l2.333,1.947l0.515-0.613l1.529-1.76l0.005-0.004l0.018-0.021l1.566-1.729l0.021-0.023l0.314-0.328L12.781,616.24
			L12.781,616.24z M1.279,630.697l-0.764,1.135l-0.008,0.014l-0.01,0.014l-1.286,2.004l-0.008,0.014l-0.009,0.016l-1.215,1.984
			l2.593,1.586l1.214-1.984l1.252-1.951l0.006-0.01l0.011-0.016l0.747-1.113L1.279,630.697L1.279,630.697z M-7.779,646.799
			l-0.878,1.953l-0.007,0.016l-0.006,0.016l-0.924,2.182l-0.008,0.016l-0.005,0.016l-0.58,1.457l2.824,1.123l0.568-1.426l0,0
			l0.011-0.031l0.913-2.15l0.862-1.926L-7.779,646.799L-7.779,646.799z M-14.05,664.152l-0.125,0.455l-0.004,0.018l-0.005,0.016
			l-0.576,2.293l-0.005,0.018l-0.003,0.02l-0.523,2.305l-0.003,0.016l-0.004,0.018l-0.175,0.861l2.979,0.605l0.168-0.828
			l0.516-2.273l0.009-0.033l0.558-2.227l0.002-0.006l0.007-0.029l0.115-0.42L-14.05,664.152L-14.05,664.152z M-17.235,682.371
			l-0.099,1.174l-0.002,0.018v0.018l-0.141,2.373l-0.001,0.018v0.02l-0.085,2.379l-0.001,0.018v0.018l-0.004,0.148l3.041,0.033
			l0.002-0.109l0.001-0.037l0.082-2.305v-0.008l0.001-0.031l0.136-2.299l0.004-0.029v-0.008l0.095-1.135L-17.235,682.371
			L-17.235,682.371z M-14.037,700.541l-3.022,0.342l0.231,2.062l0.003,0.018l0.003,0.018l0.333,2.398l0.002,0.021l0.003,0.018
			l0.257,1.562l2.998-0.492l-0.248-1.525l-0.005-0.021l-0.002-0.016l-0.322-2.322l-0.004-0.039L-14.037,700.541L-14.037,700.541z
			 M-10.503,718.131l-2.914,0.871l0.284,0.953l0.008,0.018l0.005,0.018l0.776,2.379l0.007,0.016l0.008,0.018l0.705,1.99l0.006,0.016
			l0.008,0.018l0.171,0.445l2.837-1.086l-0.156-0.41l-0.005-0.01l-0.009-0.025l-0.692-1.953l-0.753-2.303l-0.007-0.021l-0.006-0.018
			L-10.503,718.131L-10.503,718.131z M135.015,724.373l-0.096,0.955l-0.175,1.385l-0.002,0.006l-0.228,1.459l-0.252,1.375
			l-0.006,0.031l-0.002,0.01l-0.131,0.621l2.973,0.629l0.143-0.66l0.005-0.023l0.003-0.018l0.268-1.457l0.003-0.02l0.003-0.021
			l0.229-1.461l0.002-0.023l0.003-0.02l0.188-1.471l0.003-0.021v-0.02l0.094-0.955L135.015,724.373L135.015,724.373z
			 M-3.655,734.644l-2.658,1.48l1.006,1.807l0.01,0.016l0.008,0.016l1.061,1.805l0.01,0.016l0.008,0.016l1.008,1.629l2.586-1.6
			l-0.99-1.6l-0.008-0.016l-0.012-0.016l-1.023-1.742l-0.011-0.02l-0.006-0.012L-3.655,734.644L-3.655,734.644z M130.461,741.478
			l-0.192,0.451l-1.261,2.615l-1.213,2.23l2.672,1.453l1.227-2.26l0.019-0.031l0.015-0.033l1.299-2.691l0.017-0.031l0.015-0.035
			l0.203-0.48L130.461,741.478L130.461,741.478z M6.422,749.476l-2.342,1.936l0.342,0.416l0.011,0.012l0.011,0.014l1.361,1.574
			l0.013,0.012l0.011,0.014l1.396,1.541l0.012,0.014l0.011,0.014l0.95,1.002l2.207-2.092l-0.928-0.977l-0.021-0.025l-1.351-1.49
			l-0.016-0.018l-0.008-0.008l-1.315-1.523l-0.021-0.025L6.422,749.476L6.422,749.476z M121.018,756.515l-0.177,0.219l-1.973,2.221
			l-0.013,0.016l-1.862,1.916l2.181,2.117l1.908-1.967l0.024-0.023l0.022-0.027l2.011-2.264l0.021-0.025l0.022-0.025l0.195-0.242
			L121.018,756.515L121.018,756.515z M19.205,762.009l-1.905,2.371l0.752,0.605l0.014,0.01l0.015,0.012l1.637,1.256l0.015,0.012
			l0.014,0.008l1.666,1.219l0.014,0.01l0.015,0.012l0.809,0.564l1.738-2.496l-0.781-0.543l-0.03-0.021l-1.634-1.197l-1.585-1.215
			l-0.008-0.006l-0.019-0.014L19.205,762.009L19.205,762.009z M107.859,768.472l-0.217,0.154l-2.461,1.604l-0.015,0.008
			l-2.347,1.381l1.542,2.619l2.359-1.385l0.03-0.018l0.029-0.02l2.552-1.662l0.028-0.018l0.027-0.02l0.242-0.176L107.859,768.472
			L107.859,768.472z M34.223,771.728l-1.37,2.713l1.098,0.555l0.016,0.008l0.018,0.008l1.847,0.879l0.018,0.008l0.017,0.008
			l1.867,0.832l0.018,0.008l0.018,0.008l0.699,0.293l1.171-2.809l-0.703-0.293l-1.799-0.801l-0.013-0.004l-0.021-0.01l-1.812-0.863
			l-1.065-0.537V771.728z M92.021,776.435l-1.547,0.516l-2.032,0.613l-0.015,0.004l-0.029,0.01l-1.99,0.535l-0.012,0.004
			l-0.032,0.01l-0.038,0.008l0.705,2.955l0.079-0.018l0.022-0.006l0.021-0.008l2.078-0.559l0.021-0.006l0.021-0.006l2.077-0.627
			l0.021-0.004l0.021-0.008l1.591-0.531L92.021,776.435L92.021,776.435z M50.937,778.023l-0.731,2.951l1.314,0.324l0.021,0.004
			l0.019,0.006l1.989,0.438l0.02,0.004l0.022,0.004l2.001,0.385l0.019,0.004l0.021,0.004l0.641,0.105l0.495-2.998l-0.602-0.1
			l-2.003-0.385v0.002l-1.912-0.422l-0.019-0.006l-0.019-0.002L50.937,778.023L50.937,778.023z M74.559,780.07l-0.401,0.033
			l-1.984,0.117l-2.023,0.062l-0.018,0.002h-0.025l-1.49,0.004l0.006,3.039l1.535-0.004h0.02l0.023-0.002l2.066-0.062h0.02h0.023
			l2.07-0.125h0.022l0.021-0.002l0.402-0.037L74.559,780.07L74.559,780.07z"/>
	</g>
</g>
</svg>
