<?xml version="1.0" ?><svg height="58px" version="1.1" viewBox="0 0 58 58" width="58px" xmlns="http://www.w3.org/2000/svg" xmlns:sketch="http://www.bohemiancoding.com/sketch/ns" xmlns:xlink="http://www.w3.org/1999/xlink"><title/><desc/><defs/><g fill="none" fill-rule="evenodd" id="Page-1" stroke="none" stroke-width="1"><g id="27---Holy-Scripture-(Flat)"><path d="M7.221,5 C7.7,4.468 8,3.772 8,3 C8,1.343 6.657,0 5,0 C3.343,0 2,1.343 2,3 C2,3.772 2.3,4.468 2.779,5 L7.221,5" fill="#E57E25" id="Fill-160"/><path d="M2,9 L8,9 L8,49 L2,49 L2,9 Z" fill="#F0C419" id="Fill-174"/><path d="M0,5 L10,5 L10,9 L0,9 L0,5 Z" fill="#F29C1F" id="Fill-175"/><path d="M0,49 L10,49 L10,53 L0,53 L0,49 Z" fill="#F29C1F" id="Fill-176"/><path d="M47,9 L56,9 L56,49 L47,49 L47,9 Z" fill="#F0C419" id="Fill-177"/><path d="M45,5 L58,5 L58,9 L45,9 L45,5 Z" fill="#F29C1F" id="Fill-178"/><path d="M45,49 L58,49 L58,53 L45,53 L45,49 Z" fill="#F29C1F" id="Fill-179"/><path d="M2.779,53 C2.3,53.532 2,54.228 2,55 C2,56.657 3.343,58 5,58 C6.657,58 8,56.657 8,55 C8,54.228 7.7,53.532 7.221,53 L2.779,53" fill="#E57E25" id="Fill-180"/><path d="M54.221,5 C54.7,4.468 55,3.772 55,3 C55,1.343 53.657,0 52,0 C50.343,0 49,1.343 49,3 C49,3.772 49.3,4.468 49.779,5 L54.221,5" fill="#E57E25" id="Fill-181"/><path d="M49.779,53 C49.3,53.532 49,54.228 49,55 C49,56.657 50.343,58 52,58 C53.657,58 55,56.657 55,55 C55,54.228 54.7,53.532 54.221,53 L49.779,53" fill="#E57E25" id="Fill-182"/><path d="M8,12 L47,12 L47,46 L8,46 L8,12 Z" fill="#F0EDE0" id="Fill-183"/><path d="M12,20 L15,20 C15.552,20 16,19.552 16,19 C16,18.448 15.552,18 15,18 L12,18 C11.448,18 11,18.448 11,19 C11,19.552 11.448,20 12,20" fill="#D6D1BB" id="Fill-184"/><path d="M24,18 L21,18 C20.448,18 20,18.448 20,19 C20,19.552 20.448,20 21,20 L24,20 C24.552,20 25,19.552 25,19 C25,18.448 24.552,18 24,18" fill="#D6D1BB" id="Fill-185"/><path d="M18,20 C18.26,20 18.52,19.89 18.71,19.71 C18.89,19.52 19,19.27 19,19 C19,18.73 18.89,18.48 18.71,18.29 C18.33,17.92 17.66,17.92 17.29,18.29 C17.11,18.48 17,18.74 17,19 C17,19.26 17.11,19.52 17.29,19.71 C17.48,19.89 17.74,20 18,20" fill="#D6D1BB" id="Fill-186"/><path d="M12,30 C12.26,30 12.52,29.89 12.71,29.71 C12.89,29.52 13,29.27 13,29 C13,28.74 12.89,28.48 12.71,28.29 C12.33,27.92 11.66,27.92 11.29,28.29 C11.11,28.48 11,28.73 11,29 C11,29.27 11.11,29.52 11.29,29.71 C11.48,29.89 11.74,30 12,30" fill="#D6D1BB" id="Fill-187"/><path d="M24,23 L15,23 C14.448,23 14,23.448 14,24 C14,24.552 14.448,25 15,25 L24,25 C24.552,25 25,24.552 25,24 C25,23.448 24.552,23 24,23" fill="#D6D1BB" id="Fill-188"/><path d="M21,30 C21.552,30 22,29.552 22,29 C22,28.448 21.552,28 21,28 L15,28 C14.448,28 14,28.448 14,29 C14,29.552 14.448,30 15,30 L21,30" fill="#D6D1BB" id="Fill-189"/><path d="M12,25 C12.26,25 12.52,24.89 12.71,24.71 C12.89,24.52 13,24.26 13,24 C13,23.74 12.89,23.48 12.71,23.29 C12.33,22.92 11.66,22.93 11.29,23.29 C11.11,23.48 11,23.73 11,24 C11,24.26 11.11,24.52 11.29,24.71 C11.48,24.89 11.74,25 12,25" fill="#D6D1BB" id="Fill-190"/><path d="M23.29,28.29 C23.11,28.48 23,28.74 23,29 C23,29.26 23.11,29.52 23.29,29.71 C23.48,29.89 23.74,30 24,30 C24.26,30 24.52,29.89 24.71,29.71 C24.89,29.52 25,29.26 25,29 C25,28.74 24.89,28.48 24.71,28.29 C24.34,27.92 23.67,27.92 23.29,28.29" fill="#D6D1BB" id="Fill-191"/><path d="M24,33 L12,33 C11.448,33 11,33.448 11,34 C11,34.552 11.448,35 12,35 L24,35 C24.552,35 25,34.552 25,34 C25,33.448 24.552,33 24,33" fill="#D6D1BB" id="Fill-192"/><path d="M15,38 L12,38 C11.448,38 11,38.448 11,39 C11,39.552 11.448,40 12,40 L15,40 C15.552,40 16,39.552 16,39 C16,38.448 15.552,38 15,38" fill="#D6D1BB" id="Fill-193"/><path d="M24,38 L18,38 C17.448,38 17,38.448 17,39 C17,39.552 17.448,40 18,40 L24,40 C24.552,40 25,39.552 25,39 C25,38.448 24.552,38 24,38" fill="#D6D1BB" id="Fill-194"/><path d="M31,20 L34,20 C34.552,20 35,19.552 35,19 C35,18.448 34.552,18 34,18 L31,18 C30.448,18 30,18.448 30,19 C30,19.552 30.448,20 31,20" fill="#D6D1BB" id="Fill-195"/><path d="M40,20 L43,20 C43.552,20 44,19.552 44,19 C44,18.448 43.552,18 43,18 L40,18 C39.448,18 39,18.448 39,19 C39,19.552 39.448,20 40,20" fill="#D6D1BB" id="Fill-196"/><path d="M37,20 C37.26,20 37.52,19.89 37.71,19.71 C37.89,19.52 38,19.26 38,19 C38,18.74 37.89,18.48 37.71,18.29 C37.34,17.92 36.66,17.92 36.29,18.29 C36.11,18.48 36,18.74 36,19 C36,19.26 36.11,19.52 36.29,19.71 C36.48,19.89 36.74,20 37,20" fill="#D6D1BB" id="Fill-197"/><path d="M31,30 C31.26,30 31.52,29.89 31.71,29.71 C31.89,29.52 32,29.26 32,29 C32,28.74 31.89,28.48 31.71,28.29 C31.33,27.92 30.66,27.92 30.29,28.29 C30.11,28.48 30,28.74 30,29 C30,29.26 30.11,29.52 30.29,29.71 C30.48,29.89 30.74,30 31,30" fill="#D6D1BB" id="Fill-198"/><path d="M43,23 L34,23 C33.448,23 33,23.448 33,24 C33,24.552 33.448,25 34,25 L43,25 C43.552,25 44,24.552 44,24 C44,23.448 43.552,23 43,23" fill="#D6D1BB" id="Fill-199"/><path d="M40,30 C40.552,30 41,29.552 41,29 C41,28.448 40.552,28 40,28 L34,28 C33.448,28 33,28.448 33,29 C33,29.552 33.448,30 34,30 L40,30" fill="#D6D1BB" id="Fill-200"/><path d="M31,25 C31.26,25 31.52,24.89 31.71,24.71 C31.89,24.52 32,24.26 32,24 C32,23.74 31.89,23.48 31.71,23.29 C31.34,22.92 30.66,22.92 30.29,23.29 C30.11,23.48 30,23.74 30,24 C30,24.26 30.11,24.52 30.29,24.71 C30.48,24.89 30.74,25 31,25" fill="#D6D1BB" id="Fill-201"/><path d="M42.29,28.29 C42.11,28.48 42,28.74 42,29 C42,29.26 42.11,29.52 42.29,29.71 C42.48,29.89 42.74,30 43,30 C43.26,30 43.52,29.89 43.71,29.71 C43.89,29.52 44,29.26 44,29 C44,28.74 43.89,28.48 43.71,28.29 C43.34,27.92 42.66,27.92 42.29,28.29" fill="#D6D1BB" id="Fill-202"/><path d="M43,33 L31,33 C30.448,33 30,33.448 30,34 C30,34.552 30.448,35 31,35 L43,35 C43.552,35 44,34.552 44,34 C44,33.448 43.552,33 43,33" fill="#D6D1BB" id="Fill-203"/><path d="M34,38 L31,38 C30.448,38 30,38.448 30,39 C30,39.552 30.448,40 31,40 L34,40 C34.552,40 35,39.552 35,39 C35,38.448 34.552,38 34,38" fill="#D6D1BB" id="Fill-204"/><path d="M43,38 L37,38 C36.448,38 36,38.448 36,39 C36,39.552 36.448,40 37,40 L43,40 C43.552,40 44,39.552 44,39 C44,38.448 43.552,38 43,38" fill="#D6D1BB" id="Fill-205"/></g></g></svg>