<?xml version="1.0" encoding="utf-8"?>
<!-- Generator: Adobe Illustrator 16.0.4, SVG Export Plug-In . SVG Version: 6.00 Build 0)  -->
<!DOCTYPE svg PUBLIC "-//W3C//DTD SVG 1.1//EN" "http://www.w3.org/Graphics/SVG/1.1/DTD/svg11.dtd">
<svg version="1.1" id="Layer_1" xmlns="http://www.w3.org/2000/svg" xmlns:xlink="http://www.w3.org/1999/xlink" x="0px" y="0px"
	 width="512px" height="512px" viewBox="0 0 512 512" enable-background="new 0 0 512 512" xml:space="preserve">
<g id="XMLID_4_">
	<g>
		<circle fill="#3399FF" cx="256" cy="256" r="231"/>
	</g>
	<g>
		<circle fill="none" stroke="#3399FF" stroke-width="8" stroke-miterlimit="10" cx="256" cy="256" r="231"/>
	</g>
</g>
<g>
	<path fill="#FFFFFF" d="M316.341,199.466V143.21l18.66-7.477v26.85h-2.981l-10.068,27.788l17.916,18.699l17.897-18.69
		l-10.047-27.787h-2.982v-30.745l21.938-8.781L256.008,81.238l-110.682,41.838l50.329,20.124v56.258
		c-31.11,20.344-50.37,55.273-50.37,92.598c0,61.029,49.654,110.706,110.711,110.706c61.04,0,110.719-49.658,110.719-110.706
		C366.715,254.731,347.443,219.811,316.341,199.466z M339.868,195.007l-6.69-6.996l5.673-15.694h2.05l5.662,15.686L339.868,195.007z
		"/>
	<g id="XMLID_3_">
		<g>
			<polygon fill="#3399FF" points="339.85,123.33 256.01,156.86 172.17,123.33 256.01,91.65 			"/>
		</g>
		<g>
		</g>
	</g>
	<g id="XMLID_2_">
		<g>
			<path fill="#3399FF" d="M306.62,147.1v50.32c-4.13,3.42-9.521,6.29-16.07,8.54c-16.439,5.64-34.04,5.13-34.76,5.14
				c-0.15,0.01-17.81,0.49-34.29-5.15c-6.54-2.26-11.95-5.16-16.11-8.64V147.1l50.62,20.24L306.62,147.1z"/>
		</g>
		<g>
		</g>
	</g>
	<g id="XMLID_1_">
		<g>
			<path fill="#3399FF" d="M356.96,292.04C356.97,347.73,311.68,393.02,256,393.02c-55.68,0-100.98-45.289-100.98-100.979
				c0-34.521,18.04-66.83,47.13-85.27c4.6,3.28,9.85,6.19,16.19,8.38c18.22,6.25,37.46,5.67,37.35,5.66c0.12,0,0.82,0.02,2.03,0.02
				c5.46,0,20.94-0.51,35.971-5.66c6.359-2.18,11.859-4.95,16.409-8.2C339.03,225.42,356.96,257.64,356.96,292.04z"/>
		</g>
		<g>
		</g>
	</g>
</g>
<path fill="#3399FF" stroke="#FFFFFF" stroke-width="5" stroke-miterlimit="10" d="M260.566,350.048v16.668h-10.098v-16.028
	c-9.294-0.16-18.753-3.045-24.362-7.053l3.847-10.738c5.609,3.687,13.942,6.894,22.919,6.894c11.381,0,19.075-6.572,19.075-15.708
	c0-8.816-6.252-14.268-18.11-19.074c-16.35-6.412-26.449-13.945-26.449-27.89c0-13.304,9.458-23.401,24.042-25.805v-16.029h10.102
	v15.548c9.455,0.32,16.025,2.884,20.834,5.609l-4.006,10.579c-3.365-1.924-9.938-5.609-20.197-5.609
	c-12.339,0-16.987,7.373-16.987,13.943c0,8.176,5.929,12.344,19.874,18.272c16.509,6.731,24.845,14.907,24.845,29.173
	C285.891,335.621,277.076,347.482,260.566,350.048z"/>
</svg>
