<?xml version="1.0" encoding="utf-8"?>
<!-- Generator: Adobe Illustrator 16.0.4, SVG Export Plug-In . SVG Version: 6.00 Build 0)  -->
<!DOCTYPE svg PUBLIC "-//W3C//DTD SVG 1.1//EN" "http://www.w3.org/Graphics/SVG/1.1/DTD/svg11.dtd">
<svg version="1.1" id="Layer_1" xmlns="http://www.w3.org/2000/svg" xmlns:xlink="http://www.w3.org/1999/xlink" x="0px" y="0px"
	 width="960px" height="560px" viewBox="0 0 960 560" enable-background="new 0 0 960 560" xml:space="preserve">
<g opacity="0.2">
	<path fill="#FFFFFF" d="M568.387,213.533l0.882,92.954c0.026,2.75-1.523,6.61-3.443,8.579l-68.611,70.342
		c-1.92,1.969-5.741,3.579-8.491,3.579h-1.352c-2.75,0-5.501,0-6.114,0c-0.613,0-3.364,0-6.114,0h-2.774
		c-2.75,0-6.623-1.559-8.605-3.464l-67.069-64.438c-1.983-1.905-3.614-5.714-3.624-8.464l-0.347-94.088
		c-0.01-2.75,1.913-6.153,4.274-7.563l60.329-36.018c2.361-1.41,6.543-2.563,9.293-2.563h11.629"/>
	<path fill="none" stroke="#B3B3B3" stroke-miterlimit="10" d="M568.387,213.533l0.882,92.954c0.026,2.75-1.523,6.61-3.443,8.579
		l-68.611,70.342c-1.92,1.969-5.741,3.579-8.491,3.579h-1.352c-2.75,0-5.501,0-6.114,0c-0.613,0-3.364,0-6.114,0h-2.774
		c-2.75,0-6.623-1.559-8.605-3.464l-67.069-64.438c-1.983-1.905-3.614-5.714-3.624-8.464l-0.347-94.088
		c-0.01-2.75,1.913-6.153,4.274-7.563l60.329-36.018c2.361-1.41,6.543-2.563,9.293-2.563h11.629"/>
</g>
<g opacity="0.2">
	<line fill="#FFFFFF" x1="499.473" y1="172.389" x2="568.387" y2="213.533"/>
	<line fill="none" stroke="#B3B3B3" stroke-miterlimit="10" x1="499.473" y1="172.389" x2="568.387" y2="213.533"/>
</g>
<path opacity="0.2" fill="#F5F5F5" stroke="#B3B3B3" stroke-miterlimit="10" d="M474.889,172.431l-28.668,34.778
	c0,0-4.816,5.068-4.996,14.181c-0.18,9.121,0,14.589,0,14.589v8.099l-18.728,0.041c0,0-5.95,0.477-5.95,6.522
	c0,4.27-0.003,43.541-0.003,43.541s0.582,6.896,4.562,10.771c2.445,2.381,29.012,28.521,29.012,28.521l24.926,55.516h-2.49
	c0,0-2.008,0.084-6.037-1.984c-1.052-0.539-5.625-3.5-7.641-5.252c-0.916-0.795-56.388-54.16-56.388-54.16
	s-10.517-9.23-10.517-23.141c0-9.014-0.281-78.039-0.281-78.039s0.504-13.093,10.902-19.458c6.441-3.943,52.197-31.14,52.197-31.14
	s6.535-3.469,13.295-3.469"/>
<g opacity="0.45">
	<path fill="#FFFFFF" d="M472.453,352.984c-1.375,0-3.301-0.79-4.28-1.755l-49.842-49.125c-0.979-0.965-1.78-2.88-1.78-4.255
		v-51.208c0-1.375,1.125-2.5,2.5-2.5h57.6c1.375,0,3.625,0,5,0h57.602c1.375,0,2.5,1.125,2.5,2.5v50.198
		c0,1.375-0.794,3.297-1.764,4.271l-49.877,50.102c-0.97,0.975-2.889,1.771-4.264,1.771h-4.197c-1.375,0-3.625,0-5,0H472.453z"/>
	<path fill="none" stroke="#B3B3B3" stroke-miterlimit="10" d="M472.453,352.984c-1.375,0-3.301-0.79-4.28-1.755l-49.842-49.125
		c-0.979-0.965-1.78-2.88-1.78-4.255v-51.208c0-1.375,1.125-2.5,2.5-2.5h57.6c1.375,0,3.625,0,5,0h57.602c1.375,0,2.5,1.125,2.5,2.5
		v50.198c0,1.375-0.794,3.297-1.764,4.271l-49.877,50.102c-0.97,0.975-2.889,1.771-4.264,1.771h-4.197c-1.375,0-3.625,0-5,0H472.453
		z"/>
</g>
<g>
	<g>
		<path fill="#B3B3B3" d="M108,79.5c1.935,0,1.935-3,0-3S106.065,79.5,108,79.5L108,79.5z"/>
	</g>
</g>
<g>
	<g>
		<path fill="#B3B3B3" d="M129,82.5c1.935,0,1.935-3,0-3S127.065,82.5,129,82.5L129,82.5z"/>
	</g>
</g>
<g>
	<g>
		<path fill="#B3B3B3" d="M41,235.5c1.935,0,1.935-3,0-3S39.065,235.5,41,235.5L41,235.5z"/>
	</g>
</g>
</svg>
