<?xml version="1.0" encoding="utf-8"?>
<!-- Generator: Adobe Illustrator 16.0.4, SVG Export Plug-In . SVG Version: 6.00 Build 0)  -->
<!DOCTYPE svg PUBLIC "-//W3C//DTD SVG 1.1//EN" "http://www.w3.org/Graphics/SVG/1.1/DTD/svg11.dtd">
<svg version="1.1" id="Layer_1" xmlns="http://www.w3.org/2000/svg" xmlns:xlink="http://www.w3.org/1999/xlink" x="0px" y="0px"
	 width="475px" height="377px" viewBox="242.5 104.5 475 377" enable-background="new 242.5 104.5 475 377" xml:space="preserve">
<g opacity="0.2">
	<path fill="#FFFFFF" d="M633.7,208.171l1.317,125.828c0.038,3.723-2.272,8.946-5.137,11.613l-102.349,95.219
		c-2.864,2.664-8.565,4.845-12.667,4.845h-2.017c-4.102,0-8.206,0-9.121,0c-0.914,0-5.018,0-9.119,0h-4.139
		c-4.102,0-9.88-2.111-12.837-4.689l-100.048-87.228c-2.958-2.578-5.392-7.733-5.406-11.457l-0.518-127.362
		c-0.015-3.722,2.854-8.329,6.376-10.237l89.994-48.756c3.523-1.909,9.761-3.47,13.862-3.47h17.348"/>
	<path fill="none" stroke="#B3B3B3" stroke-miterlimit="10" d="M633.7,208.171l1.317,125.828c0.038,3.723-2.272,8.946-5.137,11.613
		l-102.349,95.219c-2.864,2.664-8.565,4.845-12.667,4.845h-2.017c-4.102,0-8.206,0-9.121,0c-0.914,0-5.018,0-9.119,0h-4.139
		c-4.102,0-9.88-2.111-12.837-4.689l-100.048-87.228c-2.958-2.578-5.392-7.733-5.406-11.457l-0.518-127.362
		c-0.015-3.722,2.854-8.329,6.376-10.237l89.994-48.756c3.523-1.909,9.761-3.47,13.862-3.47h17.348"/>
</g>
<g opacity="0.2">
	<line fill="none" x1="530.9" y1="152.477" x2="633.7" y2="208.171"/>
	<line fill="none" stroke="#B3B3B3" stroke-miterlimit="10" x1="530.9" y1="152.477" x2="633.7" y2="208.171"/>
</g>
<path opacity="0.2" fill="#F5F5F5" stroke="#B3B3B3" stroke-miterlimit="10" enable-background="new    " d="M494.227,152.533
	l-42.764,47.077c0,0-7.184,6.86-7.454,19.197c-0.268,12.346,0,19.749,0,19.749v10.963l-27.937,0.056c0,0-8.876,0.646-8.876,8.828
	c0,5.78-0.004,58.939-0.004,58.939s0.868,9.335,6.806,14.58c3.646,3.223,43.277,38.607,43.277,38.607l37.184,75.15h-3.716
	c0,0-2.995,0.113-9.005-2.686c-1.569-0.73-8.392-4.738-11.398-7.11c-1.366-1.076-84.114-73.313-84.114-73.313
	s-15.688-12.494-15.688-31.325c0-12.201-0.421-105.637-0.421-105.637s0.753-17.724,16.263-26.34
	c9.609-5.337,77.865-42.153,77.865-42.153s9.749-4.695,19.832-4.695"/>
<g opacity="0.45">
	<path fill="#FFFFFF" d="M490.594,396.94c-2.051,0-4.924-1.069-6.385-2.377l-74.35-66.498c-1.462-1.307-2.656-3.898-2.656-5.761
		v-69.316c0-1.862,1.678-3.385,3.729-3.385h85.925c2.051,0,5.407,0,7.459,0h85.926c2.052,0,3.729,1.522,3.729,3.385v67.95
		c0,1.861-1.185,4.463-2.632,5.781l-74.402,67.82c-1.448,1.32-4.311,2.399-6.361,2.399h-6.26c-2.052,0-5.408,0-7.459,0
		L490.594,396.94L490.594,396.94z"/>
	<path fill="none" stroke="#B3B3B3" stroke-miterlimit="10" d="M490.594,396.94c-2.051,0-4.924-1.069-6.385-2.377l-74.35-66.498
		c-1.462-1.307-2.656-3.898-2.656-5.761v-69.316c0-1.862,1.678-3.385,3.729-3.385h85.925c2.051,0,5.407,0,7.459,0h85.926
		c2.052,0,3.729,1.522,3.729,3.385v67.95c0,1.861-1.185,4.463-2.632,5.781l-74.402,67.82c-1.448,1.32-4.311,2.399-6.361,2.399h-6.26
		c-2.052,0-5.408,0-7.459,0L490.594,396.94L490.594,396.94z"/>
</g>
<g>
	<g>
		<path fill="#B3B3B3" d="M-53.071,26.737c2.887,0,2.887-4.061,0-4.061C-55.958,22.676-55.958,26.737-53.071,26.737L-53.071,26.737z
			"/>
	</g>
</g>
<g>
	<g>
		<path fill="#B3B3B3" d="M-21.745,30.798c2.886,0,2.886-4.061,0-4.061C-24.632,26.737-24.632,30.798-21.745,30.798L-21.745,30.798z
			"/>
	</g>
</g>
<g>
	<g>
		<path fill="#B3B3B3" d="M-153.017,237.907c2.886,0,2.886-4.062,0-4.062C-155.904,233.846-155.904,237.907-153.017,237.907
			L-153.017,237.907z"/>
	</g>
</g>
</svg>
