<?xml version="1.0" encoding="utf-8"?>
<!-- Generator: Adobe Illustrator 16.0.4, SVG Export Plug-In . SVG Version: 6.00 Build 0)  -->
<!DOCTYPE svg PUBLIC "-//W3C//DTD SVG 1.1//EN" "http://www.w3.org/Graphics/SVG/1.1/DTD/svg11.dtd">
<svg version="1.1" id="Layer_1" xmlns="http://www.w3.org/2000/svg" xmlns:xlink="http://www.w3.org/1999/xlink" x="0px" y="0px"
	 width="335.986px" height="235.19px" viewBox="0 0 335.986 235.19" enable-background="new 0 0 335.986 235.19"
	 xml:space="preserve">
<g>
	<rect fill-rule="evenodd" clip-rule="evenodd" fill="#F3CDA2" width="335.99" height="235.19"/>
</g>
<g>
	<g>
		<path fill="#E3C098" d="M231.877,24.844c-13.54,0-24.556,11.016-24.556,24.557c0,13.538,11.016,24.554,24.556,24.554
			s24.556-11.016,24.556-24.554C256.433,35.859,245.417,24.844,231.877,24.844z M231.877,71.457
			c-12.163,0-22.059-9.896-22.059-22.057c0-8.902,5.304-16.584,12.914-20.065c-7.312,3.547-12.359,11.095-12.359,19.833
			c0,12.147,9.752,21.993,21.78,21.993c11.99,0,21.717-9.783,21.779-21.876c0,0.038,0.003,0.076,0.003,0.115
			C253.936,61.562,244.04,71.457,231.877,71.457z"/>
	</g>
	<g>
		<path fill="#E3C098" d="M66.255,69.612c0.01-0.063,0.038-0.121,0.038-0.188c0-0.7-0.569-1.27-1.271-1.27
			c-0.701,0-1.27,0.569-1.27,1.27c0,0.094,0.034,0.177,0.054,0.265l-29.061,9.375H24.69v49.258h3.474h76.899V81.985v-2.922H93.724
			L66.255,69.612z M64.061,70.229c0.233,0.279,0.57,0.467,0.961,0.467c0.42,0,0.775-0.218,1.006-0.532l25.872,8.9H36.668
			L64.061,70.229z"/>
	</g>
	<g>
		<path fill="#E3C098" d="M285.8,47.995c0.053-0.126,0.083-0.264,0.083-0.409c0-0.598-0.484-1.082-1.084-1.082
			c-0.596,0-1.08,0.484-1.08,1.082c0,0.131,0.032,0.253,0.074,0.369l-4.02,4.538h-8.408V86.92h26.871V52.493h-8.672L285.8,47.995z
			 M284.364,48.573c0.134,0.06,0.279,0.095,0.435,0.095c0.146,0,0.284-0.031,0.41-0.083l3.561,3.908h-8.182L284.364,48.573z"/>
	</g>
	<g>
		<path fill="#E3C098" d="M318.557,81.76l-2.722-3.1c0.066-0.141,0.11-0.294,0.11-0.46c0-0.598-0.484-1.081-1.082-1.081
			s-1.082,0.483-1.082,1.081c0,0.219,0.081,0.411,0.192,0.581l-2.769,2.979h-6.539v26.081h20.355V81.76H318.557z M314.454,79.201
			c0.127,0.052,0.264,0.083,0.409,0.083c0.196,0,0.371-0.066,0.53-0.159l2.542,2.635h-6.092L314.454,79.201z"/>
	</g>
	<g>
		<path fill="#E3C098" d="M55.671,34.252h-6.465l-2.722-3.1c0.066-0.141,0.11-0.294,0.11-0.46c0-0.598-0.484-1.081-1.082-1.081
			s-1.082,0.483-1.082,1.081c0,0.219,0.081,0.411,0.192,0.581l-2.768,2.979h-6.54v26.081h20.355V34.252z M45.104,31.693
			c0.126,0.052,0.264,0.083,0.409,0.083c0.197,0,0.371-0.066,0.53-0.159l2.542,2.635h-6.092L45.104,31.693z"/>
	</g>
	<g>
		<polygon fill="#E3C098" points="165.441,54.273 165.441,48.947 165.441,47.881 123.787,47.881 123.787,55.34 165.441,55.34 		"/>
	</g>
	<g>
		<rect x="93.082" y="56.425" fill="#E3C098" width="83.625" height="4.908"/>
	</g>
	<g>
		<polygon fill="#E3C098" points="161.172,46.697 161.172,41.371 161.172,40.305 119.518,40.305 119.518,47.763 161.172,47.763 		
			"/>
	</g>
	<g>
		<polygon fill="#E3C098" points="159.669,26.869 159.669,25.803 118.016,25.803 118.016,33.262 131.838,33.262 131.838,33.865 
			131.838,39.191 131.838,40.258 173.49,40.258 173.49,32.8 159.669,32.8 159.669,32.195 		"/>
	</g>
	<g>
		
			<rect x="101.028" y="21.002" transform="matrix(0.9397 0.342 -0.342 0.9397 19.3321 -34.3742)" fill="#E3C098" width="12.257" height="33.28"/>
	</g>
	<g>
		<path fill="#E3C098" d="M64.613,145.678c-0.715,0-1.294,0.579-1.294,1.294h-4.292v-7.167H48.083c0-0.715-0.58-1.294-1.294-1.294
			s-1.294,0.579-1.294,1.294H34.55v21.603h17.825v7.167h24.478v-21.603H65.908C65.908,146.257,65.328,145.678,64.613,145.678z"/>
	</g>
	<g>
		<polygon fill="#E3C098" points="143.714,90.033 160.691,90.033 167.002,83.525 167.002,71.25 143.714,71.25 		"/>
	</g>
	<g>
		<polygon fill="#E3C098" points="177.159,95.756 194.138,95.756 200.448,89.248 200.448,76.973 177.159,76.973 		"/>
	</g>
</g>
<g>
	<g>
		<g>
			<ellipse fill="#FFFFFF" cx="227.504" cy="45.254" rx="21.781" ry="21.993"/>
		</g>
	</g>
	<g>
		<g>
			<g>
				<path fill="#172835" d="M227.227,70.04c-13.54,0-24.556-11.016-24.556-24.554c0-13.541,11.016-24.557,24.556-24.557
					s24.556,11.016,24.556,24.557C251.782,59.024,240.767,70.04,227.227,70.04z M227.227,23.428
					c-12.163,0-22.059,9.896-22.059,22.059c0,12.161,9.896,22.057,22.059,22.057s22.059-9.896,22.059-22.057
					C249.285,33.323,239.39,23.428,227.227,23.428z"/>
			</g>
		</g>
	</g>
	<g>
		<g>
			<g>
				<rect x="226.11" y="60.241" fill="#172835" width="2.232" height="5.114"/>
			</g>
		</g>
	</g>
	<g>
		<g>
			<g>
				<rect x="242.195" y="44.369" fill="#172835" width="5.302" height="2.232"/>
			</g>
		</g>
	</g>
	<g>
		<g>
			<g>
				<rect x="207.358" y="44.369" fill="#172835" width="5.303" height="2.232"/>
			</g>
		</g>
	</g>
	<g>
		<g>
			<g>
				<rect x="225.734" y="25.552" fill="#172835" width="2.233" height="4.511"/>
			</g>
		</g>
	</g>
	<g>
		<g>
			<g>
				<polygon fill="#172835" points="235.988,46.274 235.802,47.75 227.615,46.715 218.81,56.342 217.713,55.337 227.038,45.144 				
					"/>
			</g>
		</g>
	</g>
	<g>
		<g>
			<g>
				<circle fill="#172835" cx="227.107" cy="46.317" r="1.949"/>
			</g>
		</g>
	</g>
</g>
<g>
	<g>
		<rect x="21.513" y="77.071" fill="#F66E66" width="76.899" height="46.336"/>
	</g>
</g>
<g>
	<g>
		<g>
			<path fill="#172835" d="M98.413,123.407H18.04V74.149h80.373V123.407z M21.513,120.486h73.425V77.071H21.513V120.486z"/>
		</g>
	</g>
</g>
<g>
	<g>
		<polygon fill="#172835" points="19.854,77.428 19.537,76.91 58.534,64.33 95.106,76.913 94.771,77.425 58.523,64.955 		"/>
	</g>
</g>
<g opacity="0.15">
	<g>
		<g>
			<g>
				<g>
					<g>
						<g>
							<g>
								<g>
									<path fill="#553119" d="M221.271,171.738c0,2.44-1.917,4.42-4.28,4.42h-95.581c-2.361,0-4.283-1.979-4.283-4.42v-66.723
										c0-2.442,1.922-4.422,4.283-4.422h95.581c2.363,0,4.28,1.979,4.28,4.422V171.738z"/>
								</g>
							</g>
						</g>
					</g>
				</g>
			</g>
		</g>
	</g>
	<g>
		<g>
			<g>
				<g>
					<g>
						<g>
							<g>
								<g>
									<path fill="#553119" d="M102.15,171.679v4.004c0.495,0.07,1.021,0.107,1.567,0.107h130.964c0.547,0,1.08-0.037,1.565-0.107
										v-4.004H102.15z"/>
								</g>
							</g>
						</g>
					</g>
				</g>
			</g>
		</g>
	</g>
	<g>
		<g>
			<g>
				<g>
					<g>
						<g>
							<g>
								<g>
									<path fill="#553119" d="M157.948,171.679c-0.025,0.118-0.043,0.236-0.043,0.362c0,0.966,0.761,1.753,1.694,1.753h19.198
										c0.938,0,1.699-0.787,1.699-1.753c0-0.126-0.018-0.244-0.044-0.362H157.948z"/>
								</g>
							</g>
						</g>
					</g>
				</g>
			</g>
		</g>
	</g>
	<g>
		<g>
			<g>
				<g>
					<g>
						<g>
							<g>
								<g>
									<rect x="121.889" y="105.738" fill="#553119" width="94.735" height="61.844"/>
								</g>
							</g>
						</g>
					</g>
				</g>
			</g>
		</g>
	</g>
	<g>
		<g>
			<g>
				<g>
					<g>
						<g>
							<g>
								<g>
									<path fill="#553119" d="M169.825,103.585c0,0.359-0.281,0.65-0.626,0.65c-0.348,0-0.627-0.291-0.627-0.65
										c0-0.355,0.279-0.647,0.627-0.647C169.544,102.938,169.825,103.229,169.825,103.585z"/>
								</g>
							</g>
						</g>
					</g>
				</g>
			</g>
		</g>
	</g>
	<g opacity="0.15">
		<g>
			<g>
				<g>
					<g>
						<g>
							<g>
								<g>
									<polygon fill="#553119" points="121.889,167.582 121.909,105.767 216.624,105.738 									"/>
								</g>
							</g>
						</g>
					</g>
				</g>
			</g>
		</g>
	</g>
</g>
<g>
	<g>
		<g>
			<g>
				<g>
					<g>
						<g>
							<g>
								<path fill="#172835" d="M221.271,169.674c0,2.442-1.917,4.42-4.28,4.42h-95.581c-2.361,0-4.283-1.978-4.283-4.42v-66.723
									c0-2.442,1.922-4.425,4.283-4.425h95.581c2.363,0,4.28,1.982,4.28,4.425V169.674z"/>
							</g>
						</g>
					</g>
				</g>
			</g>
		</g>
	</g>
</g>
<g>
	<g>
		<g>
			<g>
				<g>
					<g>
						<g>
							<g>
								<path fill="#4D1F12" d="M102.243,172.158v1.154v0.154v0.054h0.047c2.648,3.425,4.535,2.928,5.067,2.928l61.861-0.006
									l53.019,0.006h9.83c0.916-0.114,2.331-0.665,4.075-2.928h0.015v-0.018v-0.19v-1.154H102.243z"/>
							</g>
						</g>
					</g>
				</g>
			</g>
		</g>
	</g>
</g>
<g>
	<g>
		<g>
			<g>
				<g>
					<g>
						<g>
							<g>
								<path fill="#F6F0DF" d="M102.15,169.613v3.041c0.495,0.052,1.021,0.081,1.567,0.081h130.964c0.547,0,1.08-0.029,1.565-0.081
									v-3.041H102.15z"/>
							</g>
						</g>
					</g>
				</g>
			</g>
		</g>
	</g>
</g>
<g>
	<g>
		<g>
			<g>
				<g>
					<g>
						<g>
							<g>
								<rect x="121.889" y="103.675" fill="#00CCA7" width="94.735" height="61.843"/>
							</g>
						</g>
					</g>
				</g>
			</g>
		</g>
	</g>
</g>
<g>
	<circle fill="#172835" cx="58.372" cy="64.51" r="1.271"/>
</g>
<g>
	<g>
		<rect x="267.834" y="49.699" fill="#F66E66" width="24.631" height="32.188"/>
	</g>
	<g>
		<g>
			<path fill="#172835" d="M293.586,83.006h-26.871V48.579h26.871V83.006z M268.953,80.769h22.393v-29.95h-22.393V80.769z"/>
		</g>
	</g>
	<g>
		<g>
			<polygon fill="#172835" points="274.741,49.82 274.238,49.578 280.157,42.896 285.754,49.582 285.244,49.814 280.143,44.214 			
				"/>
		</g>
	</g>
	<g>
		<circle fill="#1A3256" cx="280.15" cy="43.672" r="1.082"/>
	</g>
</g>
<g>
	<g>
		<path fill="#172835" d="M255.481,172.078c0,1.655,1.714,2.999,3.825,2.999h21.103c2.112,0,3.828-1.344,3.828-2.999l0,0
			c0-1.658-1.716-3.002-3.828-3.002h-21.103C257.195,169.076,255.481,170.42,255.481,172.078L255.481,172.078z"/>
	</g>
</g>
<g>
	<g>
		<rect x="300.865" y="78.694" fill="#00CCA7" width="18.658" height="24.384"/>
	</g>
	<g>
		<g>
			<polygon fill="#172835" points="306.232,78.787 305.852,78.603 310.335,73.778 314.574,78.606 314.188,78.782 310.324,74.777 			
				"/>
		</g>
	</g>
	<g>
		<circle fill="#172835" cx="310.213" cy="74.286" r="1.082"/>
	</g>
	<g>
		<g>
			<path fill="#172835" d="M320.371,103.927h-20.355V77.846h20.355V103.927z M301.713,102.23h16.963V79.543h-16.963V102.23z"/>
		</g>
	</g>
</g>
<g>
	<g>
		<rect x="31.515" y="31.187" fill="#00CCA7" width="18.658" height="24.384"/>
	</g>
	<g>
		<g>
			<polygon fill="#172835" points="36.882,31.279 36.501,31.095 40.985,26.271 45.224,31.099 44.838,31.274 40.974,27.27 			"/>
		</g>
	</g>
	<g>
		<circle fill="#1A3256" cx="40.863" cy="26.778" r="1.082"/>
	</g>
	<g>
		<g>
			<path fill="#172835" d="M51.021,56.419H30.666V30.338h20.355V56.419z M32.363,54.723h16.963V32.035H32.363V54.723z"/>
		</g>
	</g>
</g>
<g>
	<rect x="42.863" y="184.766" fill="#FFFFFF" width="13.307" height="50.425"/>
</g>
<g>
	<rect x="280.149" y="184.766" fill="#FFFFFF" width="13.307" height="50.425"/>
</g>
<g>
	<rect x="56.169" y="184.766" fill="#EEEFF0" width="223.804" height="50.425"/>
</g>
<g>
	<g>
		<g>
			<rect x="30.666" y="175.316" fill="#FFFFFF" width="275.467" height="12.822"/>
		</g>
	</g>
</g>
<g opacity="0.1">
	<polyline fill="#1D1D1B" points="293.456,188.139 42.863,188.139 42.863,209.979 293.456,198.064 	"/>
</g>
<g>
	<line x1="259.191" y1="100.169" x2="291.441" y2="132.419"/>
	<rect x="252.512" y="115.294" transform="matrix(0.7071 0.7071 -0.7071 0.7071 162.8705 -160.6164)" width="45.608" height="2"/>
</g>
<g>
	<line x1="268.191" y1="166.169" x2="289.879" y2="132.628"/>
	<rect x="278.035" y="129.428" transform="matrix(0.8398 0.5429 -0.5429 0.8398 125.8196 -127.5591)" width="2" height="39.942"/>
</g>
<g>
	<line x1="272.175" y1="166.169" x2="293.862" y2="132.628"/>
	<rect x="282.018" y="129.428" transform="matrix(0.8398 0.5429 -0.5429 0.8398 126.4578 -129.7218)" width="2" height="39.942"/>
</g>
<g>
	<rect x="286.256" y="131.773" width="9.873" height="1.708"/>
</g>
<g>
	<rect x="265.443" y="165.315" width="9.873" height="1.708"/>
</g>
<g>
	<line x1="270.38" y1="166.17" x2="270.38" y2="170.979"/>
	<rect x="269.38" y="166.17" width="2" height="4.809"/>
</g>
<g>
	<g>
		
			<ellipse transform="matrix(0.9958 0.0916 -0.0916 0.9958 11.4958 -22.3665)" fill="#F7F0DF" cx="249.375" cy="114.035" rx="6.007" ry="5.908"/>
	</g>
</g>
<g>
	<g>
		<polygon fill="#172835" points="271.836,102.534 264.879,94.241 253.834,100.142 239.228,103.512 258.078,125.472 
			264.357,111.209 		"/>
	</g>
</g>
<g>
	<rect x="119.137" y="43.967" fill="#00CCA7" width="41.654" height="7.459"/>
</g>
<g>
	<rect x="88.431" y="52.511" fill="#FFFFFF" width="83.625" height="4.908"/>
</g>
<g>
	<rect x="120.725" y="45.033" fill="#FFFEFD" width="40.066" height="5.326"/>
</g>
<g>
	<rect x="114.868" y="36.391" fill="#F7965B" width="41.654" height="7.458"/>
</g>
<g>
	<rect x="116.456" y="37.457" fill="#FFFEFD" width="40.066" height="5.326"/>
</g>
<g>
	<rect x="127.188" y="28.886" fill="#00CCA7" width="41.652" height="7.458"/>
</g>
<g>
	<rect x="127.188" y="29.951" fill="#FFFEFD" width="40.065" height="5.326"/>
</g>
<g>
	<rect x="113.365" y="21.889" fill="#F7965B" width="41.653" height="7.459"/>
</g>
<g>
	<rect x="114.953" y="22.955" fill="#FFFEFD" width="40.066" height="5.326"/>
</g>
<g>
	
		<rect x="96.378" y="17.088" transform="matrix(0.9397 0.342 -0.342 0.9397 17.7151 -33.022)" fill="#00CCA7" width="12.256" height="33.28"/>
</g>
<g>
	
		<rect x="99.663" y="20.429" transform="matrix(0.9397 0.3419 -0.3419 0.9397 16.0958 -33.9469)" fill="#FFFEFD" width="9.357" height="16.51"/>
</g>
<g>
	
		<rect x="94.873" y="40.868" transform="matrix(0.9397 0.3419 -0.3419 0.9397 20.3103 -31.5166)" fill="#FFFEFD" width="9.356" height="1.967"/>
</g>
<g>
	
		<rect x="93.545" y="44.516" transform="matrix(0.9397 0.342 -0.342 0.9397 21.4812 -30.8464)" fill="#FFFEFD" width="9.358" height="1.967"/>
</g>
<g opacity="0.1">
	<g>
		<polygon fill="#172835" points="64.949,96.678 60.004,103.476 51.317,88.052 36.356,116.241 50.717,116.241 67.193,116.241 
			77.148,116.241 		"/>
	</g>
	<g>
		<ellipse fill="#172835" cx="65.322" cy="86.218" rx="4.718" ry="4.729"/>
	</g>
</g>
<g>
	<rect x="29.899" y="135.891" fill="#FFFFFF" width="24.478" height="21.603"/>
</g>
<g>
	<rect x="32.885" y="139.141" fill="#29485E" width="18.506" height="12.604"/>
</g>
<g>
	<rect x="42.058" y="139.141" fill="#172835" width="9.333" height="12.604"/>
</g>
<g>
	<circle fill="#172835" cx="42.138" cy="135.891" r="1.294"/>
</g>
<g>
	<rect x="47.724" y="143.058" fill="#FFFFFF" width="24.478" height="21.603"/>
</g>
<g>
	<rect x="50.71" y="146.308" fill="#29485E" width="18.506" height="12.604"/>
</g>
<g>
	<rect x="59.882" y="146.308" fill="#172835" width="9.333" height="12.604"/>
</g>
<g>
	<circle fill="#172835" cx="59.963" cy="143.058" r="1.294"/>
</g>
<g>
	<polygon fill="#00CCA7" points="162.352,67.336 139.063,67.336 139.063,86.119 156.041,86.119 162.352,79.611 	"/>
</g>
<g>
	<polyline fill="#FFFFFF" points="162.352,79.611 156.041,79.611 156.041,86.119 	"/>
</g>
<g>
	<rect x="140.938" y="70.606" fill="#FFFFFF" width="17.75" height="2.015"/>
</g>
<g>
	<rect x="140.938" y="73.885" fill="#FFFFFF" width="17.75" height="2.015"/>
</g>
<g>
	<rect x="140.938" y="76.938" fill="#FFFFFF" width="12.25" height="2.015"/>
</g>
<g>
	<polygon fill="#F66E66" points="196.798,74.059 173.509,74.059 173.509,92.842 190.487,92.842 196.798,86.334 	"/>
</g>
<g>
	<polyline fill="#FFFFFF" points="196.798,86.334 190.487,86.334 190.487,92.842 	"/>
</g>
<g>
	<rect x="175.384" y="77.329" fill="#FFFFFF" width="17.75" height="2.015"/>
</g>
<g>
	<rect x="175.384" y="80.607" fill="#FFFFFF" width="17.75" height="2.015"/>
</g>
<g>
	<rect x="175.384" y="83.661" fill="#FFFFFF" width="12.25" height="2.015"/>
</g>
<g opacity="0.1">
	<g>
		<g>
			<g>
				<rect x="128.735" y="133.055" fill="#172835" width="71.493" height="8.788"/>
			</g>
		</g>
	</g>
	<g>
		<g>
			<g>
				<rect x="128.735" y="145.932" fill="#172835" width="81.779" height="5.117"/>
			</g>
		</g>
	</g>
	<g>
		<g>
			<g>
				<rect x="128.735" y="110.449" fill="#172835" width="63.958" height="5.117"/>
			</g>
		</g>
	</g>
	<g>
		<g>
			<g>
				<rect x="128.735" y="155.028" fill="#172835" width="75.27" height="5.116"/>
			</g>
		</g>
	</g>
	<g>
		<g>
			<g>
				<rect x="128.735" y="119.416" fill="#172835" width="75.27" height="5.12"/>
			</g>
		</g>
	</g>
</g>
<g>
	<circle fill="#FFFFFF" cx="189.299" cy="17.496" r="3.773"/>
</g>
<g>
	<circle fill="#FFFFFF" cx="69.216" cy="13.723" r="3.773"/>
</g>
<g>
	<circle fill="#FFFFFF" cx="97.123" cy="153.543" r="3.773"/>
</g>
<g>
	<circle fill="#FFFFFF" cx="19.537" cy="201.838" r="3.773"/>
</g>
<g>
	<circle fill="#FFFFFF" cx="236.247" cy="141.764" r="3.773"/>
</g>
<g>
	<circle fill="#FFFFFF" cx="309.131" cy="151.744" r="3.773"/>
</g>
<g>
	<circle fill="#FFFFFF" cx="307.716" cy="31.173" r="3.773"/>
</g>
<g>
	<circle fill="#FFFFFF" cx="193.072" cy="30.062" r="2.203"/>
</g>
<g>
	<circle fill="#FFFFFF" cx="86.228" cy="26.779" r="2.203"/>
</g>
<g>
	<circle fill="#FFFFFF" cx="19.537" cy="24.576" r="2.203"/>
</g>
<g>
	<circle fill="#FFFFFF" cx="88.431" cy="139.141" r="2.203"/>
</g>
<g>
	<circle fill="#FFFFFF" cx="285.754" cy="102.072" r="2.203"/>
</g>
<g>
	<circle fill="#FFFFFF" cx="291.192" cy="20.93" r="2.203"/>
</g>
<g>
	<circle fill="#FFFFFF" cx="124.509" cy="80.642" r="2.203"/>
</g>
<g>
	<circle fill="#FFFFFF" cx="24.69" cy="168.574" r="2.203"/>
</g>
<g>
	<circle fill="#FFFFFF" cx="314.844" cy="207.52" r="2.203"/>
</g>
<g>
	<circle fill="#FFFFFF" cx="317.047" cy="140.31" r="2.203"/>
</g>
<g>
	<circle fill="#FFFFFF" cx="240.123" cy="87.522" r="2.203"/>
</g>
</svg>
