<?xml version="1.0" encoding="utf-8"?>
<!-- Generator: Adobe Illustrator 16.0.4, SVG Export Plug-In . SVG Version: 6.00 Build 0)  -->
<!DOCTYPE svg PUBLIC "-//W3C//DTD SVG 1.1//EN" "http://www.w3.org/Graphics/SVG/1.1/DTD/svg11.dtd">
<svg version="1.1" id="Layer_1" xmlns="http://www.w3.org/2000/svg" xmlns:xlink="http://www.w3.org/1999/xlink" x="0px" y="0px"
	 width="512px" height="512px" viewBox="0 0 512 512" enable-background="new 0 0 512 512" xml:space="preserve">
<path fill-opacity="0" stroke="#00DA8D" stroke-width="6" stroke-miterlimit="10" d="M395.571,240.175
	c-4.831-7.676,5.187-5.188,5.187-5.188s9.906,0.092,5.188-7.779c-3.661-6.104-14.353,2.062-19.477,6.61
	c7.594,13.679,11.696,29.343,11.696,46.551c0,31.646-10.563,56.32-28.559,74.426l9.903,43.542c1.589,6.981-2.785,13.93-9.768,15.519
	l-35.401,8.051c-6.982,1.589-13.93-2.784-15.519-9.767l-5.939-26.116c-17.455,4.786-34.218,7.152-54.752,7.152
	c-16.673,0-25.069-2.656-34.025-7.07l-5.921,26.034c-1.588,6.981-8.537,11.354-15.519,9.767l-35.401-8.051
	c-6.982-1.589-11.355-8.537-9.767-15.519l11.708-51.48c-11.566-6.457-26.243-12.988-45.924-19.16l-12.966-1.944
	c-8.113-1.226-11.47-5.669-12.966-12.967c0,0-1.992-8.596-2.593-12.966c-1.22-8.854-2.594-15.56-2.594-15.56
	c0-7.162,5.805-12.968,12.966-12.968h4.303c22.302-1.36,21.523-23.053,40.462-44.545c0.852-0.965,1.5-2.108,2.277-3.163
	c2.388-9.855-28.89-22.308-28.89-22.308s2.271-8.292,25.932-10.373c12.656-1.113,21.271,3.617,27.108,9.998
	c3.938,2.722,13.554,14.437,11.791,31.493c11.444-22.126-6.719-33.62-7.78-36.305c8.862-5.425,22.435-10.177,40.649-13.456
	c11.75,12.732,29.1,18.644,44.928,18.644c13.412,0,30.933-6.493,42.755-19.926c31.376,6.056,53.159,19.941,68.958,39.376
	c13.797-6.08,36.104-17.678,41.289,3.889C424.854,249.33,400.403,247.849,395.571,240.175z M160.884,255.735
	c-5.013,0-9.077,4.063-9.077,9.076c0,5.014,4.064,9.077,9.077,9.077c5.012,0,9.076-4.063,9.076-9.077
	C169.96,259.798,165.896,255.735,160.884,255.735z M264.614,190.903c-27.928,0-50.568-22.64-50.568-50.568
	s22.641-50.568,50.568-50.568s50.567,22.64,50.567,50.568S292.542,190.903,264.614,190.903z M264.614,100.14
	c-22.2,0-40.195,17.996-40.195,40.195c0,22.199,17.996,40.195,40.195,40.195c22.198,0,40.194-17.996,40.194-40.195
	C304.809,118.136,286.812,100.14,264.614,100.14z M278.767,161.057c-1.677,1.33-3.69,2.341-6.045,3.039
	c-0.838,0.248-1.753,0.399-2.66,0.559v3.867c0,2.336-1.899,4.229-4.243,4.229h-2.83c-2.344,0-4.245-1.893-4.245-4.229v-3.863
	c-2.062-0.329-4.07-0.82-6.02-1.49c-3.826-1.315-7.21-3.291-10.152-5.922l7.334-8.746c4.753,3.789,9.892,5.683,15.415,5.683
	c1.765,0,3.112-0.281,4.04-0.843c0.928-0.562,1.392-1.363,1.392-2.398v-0.133c0-0.496-0.113-0.935-0.339-1.318
	c-0.228-0.383-0.646-0.753-1.257-1.114c-0.611-0.359-1.426-0.708-2.444-1.046c-1.019-0.338-2.344-0.687-3.973-1.048
	c-2.537-0.585-4.89-1.226-7.062-1.923c-2.173-0.698-4.063-1.599-5.671-2.702c-1.607-1.103-2.875-2.476-3.803-4.119
	c-0.929-1.643-1.392-3.68-1.392-6.111v-0.134c0-2.206,0.417-4.232,1.256-6.078c0.836-1.845,2.059-3.444,3.667-4.794
	c1.607-1.352,3.542-2.397,5.807-3.141c1.001-0.329,2.084-0.556,3.203-0.74v-4.391c0-2.334,1.9-4.228,4.244-4.228h2.829
	c2.344,0,4.245,1.894,4.245,4.228v4.667c1.401,0.255,2.789,0.528,4.052,0.949c3.191,1.067,6.077,2.644,8.658,4.731l-6.587,9.297
	c-2.173-1.533-4.403-2.695-6.689-3.483c-2.286-0.789-4.493-1.185-6.62-1.185c-1.585,0-2.773,0.292-3.565,0.878
	c-0.793,0.586-1.188,1.305-1.188,2.16v0.135c0,0.54,0.124,1.013,0.373,1.417c0.249,0.406,0.68,0.777,1.29,1.116
	c0.611,0.337,1.449,0.675,2.514,1.012c1.062,0.338,2.41,0.688,4.04,1.047c2.716,0.585,5.172,1.272,7.367,2.06
	c2.195,0.788,4.063,1.745,5.603,2.871s2.717,2.486,3.532,4.085c0.815,1.597,1.223,3.5,1.223,5.705v0.136
	c0,2.431-0.466,4.592-1.393,6.482C281.741,158.119,280.44,159.729,278.767,161.057z"/>
<circle fill="#3399FF" fill-opacity="0" stroke="#00DA8D" stroke-width="8" stroke-miterlimit="10" cx="256" cy="256" r="231"/>
</svg>
